<svg xmlns="http://www.w3.org/2000/svg" width="60" height="60" viewBox="0 0 60 60"><defs><style>.a{fill:#1ea9ec;}.b{fill:#fff;}</style></defs><g transform="translate(-1120.45 -384.82)"><path class="a" d="M877.981,377.987H858.15a20.144,20.144,0,0,0-20.085,20.084v39.916h39.916A20.144,20.144,0,0,0,898.065,417.9V398.071A20.143,20.143,0,0,0,877.981,377.987Z" transform="translate(282.385 6.833)"/><path class="b" d="M-6.2,2.507q.592,0,1.131-.027A7.869,7.869,0,0,0-4.212,2.4V-.644Q-4.454-.7-4.939-.751a8.1,8.1,0,0,0-.889-.054,7.952,7.952,0,0,0-1.064.067,2.779,2.779,0,0,0-.875.256A1.5,1.5,0,0,0-8.359.03a1.426,1.426,0,0,0-.215.808,1.376,1.376,0,0,0,.633,1.306A3.5,3.5,0,0,0-6.2,2.507ZM-6.528-9.234a9.292,9.292,0,0,1,2.962.4,4.6,4.6,0,0,1,1.9,1.158A4.256,4.256,0,0,1-.657-5.841a9.032,9.032,0,0,1,.3,2.4V4.9q-.862.189-2.4.444A23.03,23.03,0,0,1-6.474,5.6a11.782,11.782,0,0,1-2.491-.242,5.406,5.406,0,0,1-1.925-.794,3.635,3.635,0,0,1-1.239-1.441A4.973,4.973,0,0,1-12.56.945a4.134,4.134,0,0,1,.5-2.1,3.834,3.834,0,0,1,1.333-1.373,6.024,6.024,0,0,1,1.912-.741A10.726,10.726,0,0,1-6.582-3.5a12.689,12.689,0,0,1,1.387.067,6.173,6.173,0,0,1,.983.175v-.377a2.22,2.22,0,0,0-.619-1.643,3,3,0,0,0-2.154-.619,13.718,13.718,0,0,0-2.02.148,8.664,8.664,0,0,0-1.723.417l-.512-3.232q.35-.108.875-.229t1.145-.215Q-8.6-9.1-7.915-9.167T-6.528-9.234ZM10.734-1.667A4.855,4.855,0,0,0,9.9-4.643,2.9,2.9,0,0,0,7.422-5.76q-.539,0-1,.04t-.754.094V1.619a3.486,3.486,0,0,0,.983.4,4.736,4.736,0,0,0,1.225.162Q10.734,2.184,10.734-1.667Zm4.093-.108a10.378,10.378,0,0,1-.4,2.989,6.726,6.726,0,0,1-1.185,2.316A5.349,5.349,0,0,1,11.3,5.039a6.256,6.256,0,0,1-2.666.539,7.191,7.191,0,0,1-1.562-.162,7.517,7.517,0,0,1-1.4-.458V10.29H1.659V-8.372Q2.2-8.534,2.9-8.682t1.468-.256q.767-.108,1.562-.175T7.449-9.18a8.7,8.7,0,0,1,3.124.525,6.42,6.42,0,0,1,2.316,1.481,6.35,6.35,0,0,1,1.441,2.329A8.953,8.953,0,0,1,14.827-1.775Zm5.494,7.082H16.308V-8.857h4.012ZM20.7-12.95a2.2,2.2,0,0,1-.714,1.737,2.454,2.454,0,0,1-1.683.633,2.454,2.454,0,0,1-1.683-.633A2.2,2.2,0,0,1,15.9-12.95a2.2,2.2,0,0,1,.714-1.737A2.454,2.454,0,0,1,18.3-15.32a2.454,2.454,0,0,1,1.683.633A2.2,2.2,0,0,1,20.7-12.95Z" transform="translate(1146.462 417.456)"/></g></svg>