<svg xmlns="http://www.w3.org/2000/svg" width="60" height="60" viewBox="0 0 60 60"><defs><style>.a{fill:#f38d45;}.b{fill:#fff;}</style></defs><g transform="translate(-636 -384.951)"><path class="a" d="M287.531,378.118H267.7A20.143,20.143,0,0,0,247.615,398.2v39.916h39.916a20.143,20.143,0,0,0,20.084-20.084V398.2A20.143,20.143,0,0,0,287.531,378.118Z" transform="translate(388.385 6.833)"/><g transform="translate(647.338 402.072)"><path class="b" d="M268.958,404.391a8.79,8.79,0,0,1-.489,3.012,6.357,6.357,0,0,1-1.414,2.3,6.208,6.208,0,0,1-2.272,1.466,8.522,8.522,0,0,1-3.067.516c-.474,0-.972-.023-1.492-.066s-1.031-.1-1.534-.172-.982-.154-1.439-.251-.863-.2-1.216-.3V391.469l3.937-.635v6.924a7.4,7.4,0,0,1,1.375-.448,7.008,7.008,0,0,1,1.532-.159,6.278,6.278,0,0,1,2.616.516,5.121,5.121,0,0,1,1.9,1.468,6.542,6.542,0,0,1,1.162,2.285A10.427,10.427,0,0,1,268.958,404.391Zm-4.016-.106q0-3.8-2.8-3.805a4.672,4.672,0,0,0-1.2.159,3.44,3.44,0,0,0-.965.4V408.2c.194.035.44.066.741.092s.625.04.978.04a2.826,2.826,0,0,0,2.43-1.111A4.817,4.817,0,0,0,264.942,404.285Z" transform="translate(-256.036 -390.833)"/><path class="b" d="M279.884,402.759a9.026,9.026,0,0,1-.477,3,6.472,6.472,0,0,1-1.375,2.324,6.152,6.152,0,0,1-2.152,1.493,7.187,7.187,0,0,1-2.816.528,7.1,7.1,0,0,1-2.787-.528,6.175,6.175,0,0,1-2.154-1.493,6.845,6.845,0,0,1-1.4-2.324,8.632,8.632,0,0,1-.5-3,8.3,8.3,0,0,1,.516-2.985,6.771,6.771,0,0,1,1.426-2.3,6.445,6.445,0,0,1,2.168-1.48,7.4,7.4,0,0,1,5.5,0,6.254,6.254,0,0,1,2.153,1.48,6.674,6.674,0,0,1,1.4,2.3A8.478,8.478,0,0,1,279.884,402.759Zm-4.018,0a4.964,4.964,0,0,0-.726-2.868,2.379,2.379,0,0,0-2.075-1.044,2.411,2.411,0,0,0-2.087,1.044,4.881,4.881,0,0,0-.741,2.868,5,5,0,0,0,.741,2.894,2.39,2.39,0,0,0,2.087,1.07,2.359,2.359,0,0,0,2.075-1.07A5.088,5.088,0,0,0,275.866,402.759Z" transform="translate(-252.507 -389.228)"/><path class="b" d="M277.348,393.332l3.938-.634v4.1h4.729v3.276h-4.729v4.889a3.886,3.886,0,0,0,.435,1.982,1.871,1.871,0,0,0,1.759.741,7.62,7.62,0,0,0,1.306-.118,6.792,6.792,0,0,0,1.229-.331l.556,3.066a11.187,11.187,0,0,1-1.586.5,9.216,9.216,0,0,1-2.141.212,7.028,7.028,0,0,1-2.667-.435,4.189,4.189,0,0,1-1.693-1.216,4.54,4.54,0,0,1-.886-1.89,11.159,11.159,0,0,1-.25-2.457Z" transform="translate(-248.652 -390.187)"/></g></g></svg>