<svg xmlns="http://www.w3.org/2000/svg" xmlns:xlink="http://www.w3.org/1999/xlink" width="335" height="133.045" viewBox="0 0 335 133.045"><defs><style>.a{fill:url(#a);}</style><linearGradient id="a" x1="0.5" x2="0.5" y2="1" gradientUnits="objectBoundingBox"><stop offset="0" stop-color="#7959eb"/><stop offset="1" stop-color="#1ea9ec"/></linearGradient></defs><path class="a" d="M7607.937-2657.365l-14.243-17.752a20.353,20.353,0,0,0-15.863-7.714H7567V-2683H7449v-83a20,20,0,0,1,20-20h295a20,20,0,0,1,20,20v83H7667v.168h-10.831a20.353,20.353,0,0,0-15.862,7.714l-14.241,17.752a11.572,11.572,0,0,1-9.064,4.409A11.566,11.566,0,0,1,7607.937-2657.365Z" transform="translate(-7449 2786.001)"/></svg>