<svg xmlns="http://www.w3.org/2000/svg" xmlns:xlink="http://www.w3.org/1999/xlink" width="240.001" height="170" viewBox="0 0 240.001 170"><defs><style>.a{fill:url(#a);}</style><linearGradient id="a" x1="0.5" x2="0.5" y2="1" gradientUnits="objectBoundingBox"><stop offset="0" stop-color="#7959eb"/><stop offset="1" stop-color="#1ea9ec"/></linearGradient></defs><g transform="translate(-293 -270)"><path class="a" d="M9339.656-2619.087l-9.971-12.425a14.465,14.465,0,0,0-6.136-4.488H9226v-130a20,20,0,0,1,20-20h200a20,20,0,0,1,20,20v130h-97.55a14.465,14.465,0,0,0-6.136,4.488l-9.971,12.425A8.1,8.1,0,0,1,9346-2616,8.1,8.1,0,0,1,9339.656-2619.087Z" transform="translate(-8933 3056)"/></g></svg>