<svg xmlns="http://www.w3.org/2000/svg" xmlns:xlink="http://www.w3.org/1999/xlink" width="516" height="325.021" viewBox="0 0 516 325.021"><defs><style>.a{fill:#1a1f69;}.b{fill:none;stroke:#fff;stroke-width:2px;opacity:0.5;}.c{fill:#252532;}.d{fill:#1b7c6d;}.e{fill:#29d6b0;}.f{fill:#0fa088;}.g{fill:#8b51dd;}.h{fill:#2a214f;}.i{fill:#fb7a8e;}.j{fill:#413196;}.k{fill:#614cd4;}.l{fill:#6b6b88;}.m{fill:#dfedf2;}.n{fill:#fff;}.o{fill:#d0dadd;}.p,.q{mix-blend-mode:screen;isolation:isolate;}.p{fill:url(#a);}.q{fill:url(#b);}.r{fill:#d96b7c;}.s{fill:#2e88bf;}.t{fill:url(#c);}.u{fill:#1e1240;}.v{fill:#2e2e3d;}.w{fill:#404057;}.x{fill:#d37829;}.y{fill:#f79a48;}.z{fill:#311e69;}.aa{fill:#fe457c;}.ab{fill:#d95f76;}.ac{fill:url(#d);}.ad{fill:url(#e);}.ae{fill:#bc3960;}.af{fill:#ff6161;}.ag{fill:#ffe6e6;}.ah{fill:url(#f);}.ai{fill:url(#g);}.aj{fill:url(#h);}.ak{fill:#d1e7f0;}.al{fill:url(#j);}.am{fill:#fff3f3;}.an{fill:#ff8f8f;}.ao{fill:#1ea9ec;}.ap{fill:#1f8bbf;}.aq{fill:url(#l);}.ar{fill:url(#m);}.as{fill:url(#n);}.at{fill:url(#o);}.au{fill:url(#p);}.av{fill:url(#q);}.aw{fill:url(#r);}.ax{fill:url(#t);}.ay{fill:#a399ff;}.az{fill:url(#v);}.ba{fill:url(#w);}.bb{fill:#e6f3f9;}</style><linearGradient id="a" x1="0.158" y1="-0.431" x2="0.69" y2="0.382" gradientUnits="objectBoundingBox"><stop offset="0" stop-color="#fff"/><stop offset="0.032" stop-color="#f1f1f1"/><stop offset="0.19" stop-color="#b2b2b2"/><stop offset="0.346" stop-color="#7b7b7b"/><stop offset="0.496" stop-color="#4f4f4f"/><stop offset="0.64" stop-color="#2c2c2c"/><stop offset="0.775" stop-color="#141414"/><stop offset="0.899" stop-color="#050505"/><stop offset="1"/></linearGradient><linearGradient id="b" x1="0.064" y1="-0.409" x2="0.763" y2="0.394" xlink:href="#a"/><linearGradient id="c" x1="0.5" y1="0.126" x2="0.5" y2="0.842" gradientUnits="objectBoundingBox"><stop offset="0" stop-color="#4cb4d4"/><stop offset="1" stop-color="#2e88bf"/></linearGradient><linearGradient id="d" x1="0.5" y1="0.918" x2="0.5" y2="0.239" gradientUnits="objectBoundingBox"><stop offset="0" stop-color="#311e69"/><stop offset="1" stop-color="#614cd4"/></linearGradient><linearGradient id="e" x1="0" y1="0.5" x2="1" y2="0.5" xlink:href="#d"/><linearGradient id="f" x1="0.5" y1="0.918" x2="0.5" y2="0.239" gradientUnits="objectBoundingBox"><stop offset="0" stop-color="#d95f76"/><stop offset="1" stop-color="#ff8f8f"/></linearGradient><linearGradient id="g" x1="0.5" y1="0.938" x2="0.5" y2="0.113" xlink:href="#f"/><linearGradient id="h" x1="0.5" y1="0.938" x2="0.5" y2="0.113" xlink:href="#f"/><linearGradient id="j" x1="0.988" y1="0.918" x2="0.988" y2="0.239" gradientUnits="objectBoundingBox"><stop offset="0" stop-color="#d37829"/><stop offset="1" stop-color="#f79a48"/></linearGradient><linearGradient id="l" x1="0.5" y1="2.964" x2="0.5" y2="-1.761" xlink:href="#d"/><linearGradient id="m" x1="0.5" y1="1.929" x2="0.5" y2="-0.306" xlink:href="#d"/><linearGradient id="n" x1="0.5" y1="9.898" x2="0.5" y2="2.118" xlink:href="#d"/><linearGradient id="o" x1="0.5" y1="9.819" x2="0.5" y2="0.585" xlink:href="#d"/><linearGradient id="p" x1="0.5" y1="9.42" x2="0.5" y2="-7.433" xlink:href="#d"/><linearGradient id="q" x1="0.5" y1="0.956" x2="0.5" y2="-8.279" xlink:href="#d"/><linearGradient id="r" x1="0.5" y1="-0.662" x2="0.5" y2="-8.44" xlink:href="#d"/><linearGradient id="t" x1="0.5" y1="9.42" x2="0.5" y2="-7.433" xlink:href="#d"/><linearGradient id="v" x1="0.5" y1="0.18" x2="0.5" y2="1.27" xlink:href="#c"/><linearGradient id="w" x1="0.5" y1="1.225" x2="0.5" y2="0.456" xlink:href="#f"/></defs><g transform="translate(-864 -198.549)"><ellipse class="a" cx="251.5" cy="62" rx="251.5" ry="62" transform="translate(864 399.57)"/><ellipse class="b" cx="251.5" cy="60.5" rx="251.5" ry="60.5" transform="translate(876 393.57)"/><path class="c" d="M1043.981,542.822s-56.948,29.84-67.272,41.907c0,0-55.189,32.649-48.78,56.541h329.725s-2.2-31.857-13.918-34.961l-11.719-3.1s7.83-54.108-24.252-56.279S1043.981,542.822,1043.981,542.822Z" transform="translate(19.478 -183.059)"/><path class="d" d="M1403.148,427.34s9.969-38.542,33.276-46.562,43.01-7.943,46.874,4.342-22.215.425-26.155,4.83,8.3,1.307,10.794,7.761-9.872,5.889-18.415,8.373-13.666,2.99-9.532,7.587.414,7.089-7.867,7.872-14.313,21.266-23.119,20.22S1403.148,427.34,1403.148,427.34Z" transform="translate(-220.473 -98.451)"/><g transform="translate(1015.688 236.682)"><path class="e" d="M1102.193,417.207c12.217-5.745,28.566-13.315,40.832-18.976a15.088,15.088,0,0,0,5.453-23.136c-22.483-28.063-69.656-84.991-78.967-80.624s4.263,76.815,11.477,112.1A15.088,15.088,0,0,0,1102.193,417.207Z" transform="translate(-1066.363 -294.233)"/><path class="f" d="M1135.475,394.512a.994.994,0,0,0-1.405.086l-7.254,8.2c-1.977-4.289-3.9-8.493-5.73-12.518l6.477-9.018a1,1,0,1,0-1.617-1.161l-5.81,8.089c-2.83-6.236-5.412-11.98-7.59-16.854l5.1-8.655a1,1,0,0,0-1.716-1.011l-4.383,7.434c-3.608-8.09-5.887-13.29-5.984-13.511a1,1,0,1,0-1.823.8c.543,1.24,4.924,11.24,11.082,24.919l-8.634-2.671a1,1,0,0,0-.588,1.9l10.313,3.19c1.659,3.677,3.431,7.584,5.279,11.633l-14.467,1.355a1,1,0,0,0,.186,1.983l15.158-1.419c1.135,2.482,2.3,5.01,3.475,7.565a.982.982,0,0,0,.187.4q1.716,3.719,3.473,7.488l-14.334,1.342a1,1,0,0,0,.186,1.983l15.043-1.409c11.259,24.081,23.149,48.224,29.077,56.2a1,1,0,0,0,1.221.308.985.985,0,0,0,.172-.1,1,1,0,0,0,.2-1.393c-6.5-8.753-20.685-38.142-33.048-64.9l7.833-8.851A1,1,0,0,0,1135.475,394.512Z" transform="translate(-1085.193 -324.909)"/></g><path class="f" d="M1385.6,543.075s-29.746-12.7-22.861-31.856,17.24-38.156,33.071-36c0,0,14.34-28.952,30.75-22.659,19.468,7.464,6.9,39.318,6.9,39.318s10.483,14.509,1.794,35.975S1405.076,552.327,1385.6,543.075Z" transform="translate(-199.787 -137.034)"/><path class="d" d="M1419.351,535.353a.772.772,0,0,0-.852-.683l-8.772.965c1.882-4.441,3.735-8.783,5.51-12.926l9.091-2.084a.772.772,0,0,0-.345-1.5l-7.993,1.832c2.74-6.383,5.274-12.24,7.421-17.179l8.192-2.746a.772.772,0,1,0-.491-1.464l-6.872,2.3c3.552-8.162,5.86-13.389,5.958-13.611a.772.772,0,0,0-.394-1.018l-.015-.006a.772.772,0,0,0-1,.4c-.1.235-2.7,6.114-6.632,15.162a.636.636,0,0,0-.028.065c-1.279,2.941-2.7,6.216-4.22,9.739l-2.424-7.489a.772.772,0,1,0-1.469.475l2.965,9.163c-1.625,3.771-3.352,7.793-5.136,11.972l-7.863-8.553a.772.772,0,1,0-1.136,1.045l8.334,9.067c-1.084,2.543-2.187,5.139-3.3,7.766a.765.765,0,0,0-.189.447c-1.08,2.553-2.169,5.135-3.256,7.727l-7.794-8.479a.772.772,0,0,0-1.137,1.045l8.274,9c-10.239,24.446-20.233,49.384-22.515,58.771a.772.772,0,0,0,.452.894.8.8,0,0,0,.116.038.772.772,0,0,0,.932-.568c2.549-10.486,14.843-40.635,26.275-67.656l9.631-1.06A.772.772,0,0,0,1419.351,535.353Z" transform="translate(-209.651 -154.963)"/><path class="g" d="M1240.01,265.684s-6.656-15.13.421-21.539,11.2-11.294,26.564-6.392c11.8,3.762,28.183,20.814,29.785,32.964S1248.289,285.846,1240.01,265.684Z" transform="translate(-136.914 -28.026)"/><path class="h" d="M1105.244,406.72s-1.35-1.816-2.726-.727-.648,2.863-1.908,3.689-3.326.319-3.179,3.067,2.192,2.663,2,3.794.276,2.876,2.2,2.271.367-5.185,1.349-5.385S1106.175,408.4,1105.244,406.72Z" transform="translate(-66.358 -113.801)"/><path class="h" d="M1115.957,412.507a4.317,4.317,0,0,0,.636-3.5c-.534-1.97-2.509-3.144-4.911-1.5-1.573,1.075-2.352,6.144.512,6.185S1115.957,412.507,1115.957,412.507Z" transform="translate(-72.845 -114.344)"/><path class="i" d="M1083.351,566.68a6.947,6.947,0,0,0-.23,1.692c.044.093,1.125.476,1.973.939.375.345.738.785.32.908-.717.211-4.886.107-5.26-.593a1.855,1.855,0,0,0-.468-.569,5.462,5.462,0,0,0,1-2.445Z" transform="translate(-57.402 -195.07)"/><path class="h" d="M1079.365,572.12c.374.7,4.544.8,5.26.593.418-.123.055-.563-.32-.909,1.271.694,2.839,1.587,2.884,2.029.073.736-7.514.52-8.757-.223-.649-.389-.168-1.175.465-2.059A1.854,1.854,0,0,1,1079.365,572.12Z" transform="translate(-56.613 -197.564)"/><path class="j" d="M1114.154,457.592s16.8,3.16,17.571,11.882c1.612,9.356-8.675,23.533-14.2,26.669-1.649.937-8.863-.686-9.247-1.782-.7-1.99,4.975-11.651,10.539-19.529a11.676,11.676,0,0,1,1.472-1.651,45.063,45.063,0,0,1-4.73-1.443s-12.4-1.276-14.274-5.38S1102.473,455.085,1114.154,457.592Z" transform="translate(-68.05 -139.766)"/><path class="k" d="M1085.8,490.39c.416-.435-1.672-23.916-.663-26.162,1.538-3.42,6.42-8.307,6.42-8.307l10.348,1.126c.928,1.786-5.2,37.59-13.381,53.561a2.884,2.884,0,0,1-3.311,1.626l-3.707-1.028S1081.328,495.063,1085.8,490.39Z" transform="translate(-58.32 -139.184)"/><path class="j" d="M1094.124,485.239c-2.136,4.3-4.451,22.255-5.964,26.794-.8,2.386-3.8,3.627-6.478,4.267-.2,3.052-.176,5.293-.176,5.293l3.707,1.028a2.884,2.884,0,0,0,3.311-1.626c5.773-11.266,10.521-32.4,12.492-44.5C1099.34,478.176,1095.735,481.993,1094.124,485.239Z" transform="translate(-58.32 -149.572)"/><path class="l" d="M1070.088,469.685l-15.12,135.289a1.155,1.155,0,0,0,.964,1.3,1.089,1.089,0,0,0,.131.008,1.126,1.126,0,0,0,1.093-1.03l2.527-22.933h24.083l-2.5,22.659a1.155,1.155,0,0,0,.965,1.3,1.08,1.08,0,0,0,.131.008,1.127,1.127,0,0,0,1.093-1.03l9.089-81.549a1.16,1.16,0,0,0,.1-.921l5.914-52.82a1.137,1.137,0,0,0-1.087-1.3h-.014a1.119,1.119,0,0,0-1.087,1.023l-1.52,13.57h-24.082l1.489-13.3a1.137,1.137,0,0,0-1.087-1.3h0A1.119,1.119,0,0,0,1070.088,469.685Zm-1.48,32.915,1.9-17.012H1094.6l-1.9,17.012Zm21.917,19.346h-24.083l1.9-17.012h24.083Zm-2.166,19.345h-23.94a1,1,0,0,0-.145.015l1.907-17.027h24.083Zm-2.166,19.345H1062.11l1.914-17.092a1.037,1.037,0,0,0,.4.081H1088.1Zm-26.248,19.346,1.9-17.012h24.083l-1.9,17.012Z" transform="translate(-44.919 -145.617)"/><path class="i" d="M1118.168,528.505a2.018,2.018,0,0,1,1.136,2.478.352.352,0,0,0-.024.123c.007.118,1,.989,1.712,1.844.254.529.456,1.154-.044,1.108-.857-.079-5.276-1.964-5.378-2.872a2.125,2.125,0,0,0-.259-.808,6.686,6.686,0,0,0,1.707-1.567.964.964,0,0,1,1.151-.306Z" transform="translate(-75.388 -175.791)"/><path class="h" d="M1114.005,533.175c.1.909,4.521,2.793,5.378,2.872.5.046.3-.579.044-1.108,1.065,1.283,2.363,2.906,2.223,3.4-.235.818-8.262-2.641-9.276-3.964-.53-.692.319-1.329,1.373-2.006A2.125,2.125,0,0,1,1114.005,533.175Z" transform="translate(-73.823 -177.78)"/><g transform="translate(1048.724 226.333)"><path class="m" d="M1258.63,518.608H1145.606a12.317,12.317,0,0,1-12.465-13.657l19.027-217.962a15.2,15.2,0,0,1,14.849-13.657h113.024a12.318,12.318,0,0,1,12.465,13.657L1273.479,504.95A15.2,15.2,0,0,1,1258.63,518.608Z" transform="translate(-1133.088 -273.331)"/></g><g transform="translate(1040.944 226.333)"><path class="n" d="M1242.916,518.608H1129.892a12.317,12.317,0,0,1-12.465-13.657l19.027-217.962a15.2,15.2,0,0,1,14.849-13.657h113.024a12.318,12.318,0,0,1,12.465,13.657L1257.766,504.95A15.2,15.2,0,0,1,1242.916,518.608Z" transform="translate(-1117.375 -273.331)"/></g><path class="m" d="M1277.49,305.1H1155.956a1.784,1.784,0,0,0-1.741,1.6l-16.473,188.7a1.445,1.445,0,0,0,1.461,1.6h121.534a1.784,1.784,0,0,0,1.741-1.6l16.473-188.7A1.445,1.445,0,0,0,1277.49,305.1Z" transform="translate(-86.71 -63.039)"/><path class="o" d="M1157.472,310.014a1.784,1.784,0,0,1,1.74-1.6H1278.8l.149-1.709a1.445,1.445,0,0,0-1.461-1.6H1155.956a1.784,1.784,0,0,0-1.741,1.6l-16.473,188.7a1.445,1.445,0,0,0,1.461,1.6h1.945Z" transform="translate(-86.71 -63.039)"/><g transform="translate(1114.713 233.849)"><path class="o" d="M1297.368,288.511H1267.4a1.055,1.055,0,0,0-1.028.946.855.855,0,0,0,.863.946H1297.2a1.056,1.056,0,0,0,1.028-.946A.855.855,0,0,0,1297.368,288.511Z" transform="translate(-1266.366 -288.511)"/></g><g transform="translate(1102.432 443.027)"><path class="o" d="M1249.994,729.388a8.3,8.3,0,0,1-8.395-9.2,10.25,10.25,0,0,1,10-9.2,8.305,8.305,0,0,1,8.4,9.2A10.251,10.251,0,0,1,1249.994,729.388Zm1.482-16.979a8.671,8.671,0,0,0-8.459,7.78,7.024,7.024,0,0,0,7.1,7.78,8.671,8.671,0,0,0,8.46-7.78A7.025,7.025,0,0,0,1251.476,712.409Z" transform="translate(-1241.563 -710.991)"/></g><path class="p" d="M1191.663,305.1l20.027,191.9h36.323l-23.054-191.9Z" transform="translate(-113.937 -63.039)"/><path class="q" d="M1281.554,305.1l20.027,191.9h22.349l-23.054-191.9Z" transform="translate(-159.321 -63.039)"/><path class="l" d="M1414.745,609.733l-20.084-169.68a.97.97,0,0,0-1.927.228l.462,3.9h-21.208l-.489-4.126a.97.97,0,0,0-1.927.228l11.989,101.1a.973.973,0,0,0-.045.278.963.963,0,0,0,.136.488l8,67.808a.97.97,0,0,0,.962.856.923.923,0,0,0,.116-.007.97.97,0,0,0,.849-1.077l-2.2-18.841h21.208l2.225,19.069a.97.97,0,0,0,.962.856.921.921,0,0,0,.116-.007A.97.97,0,0,0,1414.745,609.733ZM1385.57,558.72h20.853a.967.967,0,0,0,.348-.067l1.685,14.212h-21.208Zm11.441-82.369H1375.8l-1.677-14.146h21.208Zm.23,1.94,1.677,14.145H1377.71l-1.677-14.145Zm1.907,16.085,1.677,14.146h-21.208l-1.677-14.146Zm1.908,16.086,1.677,14.146h-21.208l-1.677-14.146Zm1.907,16.086,1.677,14.145h-21.208l-1.677-14.145Zm1.908,16.085,1.678,14.158a.977.977,0,0,0-.127-.013H1385.34l-1.677-14.146Zm-11.445-96.514,1.677,14.146H1373.9l-1.677-14.146Zm-4.272,142.832-1.677-14.146h21.209l1.677,14.146Z" transform="translate(-203.756 -130.741)"/><path class="r" d="M1349.04,404.708l6.676,4.006s15.528-4.5,16.51-.757-7.163,10.148-13.929,10.727-12.418-5.482-12.64-9.039S1349.04,404.708,1349.04,404.708Z" transform="translate(-191.681 -113.328)"/><g transform="translate(1132.759 264.09)"><rect class="s" width="34.062" height="32.047" rx="11.882" transform="translate(0 1.648)"/><rect class="t" width="34.062" height="32.047" rx="11.882" transform="translate(2.014 0)"/><path class="n" d="M1341.04,371.487v-4.033h-3.412a9,9,0,0,0-1.159-2.8l2.413-2.413-2.852-2.852-2.413,2.413a9,9,0,0,0-2.8-1.16V357.23h-4.033v3.412a9,9,0,0,0-2.8,1.16l-2.413-2.413-2.852,2.852,2.413,2.413a9,9,0,0,0-1.16,2.8h-3.412v4.033h3.412a9,9,0,0,0,1.16,2.8l-2.413,2.413,2.852,2.852,2.413-2.413a9,9,0,0,0,2.8,1.16v3.412h4.033V378.3a9,9,0,0,0,2.8-1.16l2.413,2.413,2.852-2.852-2.413-2.413a9,9,0,0,0,1.159-2.8Zm-12.24,1.251a3.267,3.267,0,1,1,3.267-3.267A3.271,3.271,0,0,1,1328.8,372.738Z" transform="translate(-1309.754 -353.447)"/></g><g transform="translate(1166.889 274.311)"><g transform="translate(3.325 1.212)"><path class="i" d="M1379.18,379.266a18.44,18.44,0,0,0,.192,2.871c.237,1.29.559,2.017,1.431,2.118a2.42,2.42,0,0,0,2.075-2.959C1382.326,379.708,1379.18,379.266,1379.18,379.266Z" transform="translate(-1378.825 -376.005)"/><path class="r" d="M1381.2,387.292a3.552,3.552,0,0,0,1.883-.613,2.389,2.389,0,0,1-1.9,1.315c-.671-.078-1.016-.53-1.248-1.322A3.332,3.332,0,0,0,1381.2,387.292Z" transform="translate(-1379.208 -379.744)"/><path class="i" d="M1389.14,385.106s-.659-.858-1.191-1.657c-.79-1.188-1.187-2.13-2.911-2.006-1.928.139-.435,5.169.466,5.3S1389.14,385.106,1389.14,385.106Z" transform="translate(-1381.308 -377.099)"/><path class="u" d="M1383.893,379.107l.745-.655s.117-5.041-1.944-5.382-3.464-.864-3.965.494c-.809,2.189.47,2.511.688,3.388s.34,1.252.63,1.073.761-.274,1.248.331S1383.893,379.107,1383.893,379.107Z" transform="translate(-1378.463 -372.681)"/><path class="i" d="M1381.569,382.782a.926.926,0,0,1,.159-1c.424-.418.893.146.734,1.143S1381.818,383.751,1381.569,382.782Z" transform="translate(-1379.99 -377.207)"/></g><path class="v" d="M1376.5,376.719s-6.06-2.27-4.491-3.456c1.495-1.13,5.255.707,6.179,1.31S1376.5,376.719,1376.5,376.719Z" transform="translate(-1371.748 -371.581)"/><path class="w" d="M1384.192,375.467a5.4,5.4,0,0,1-3.082.429c-1.544-.325-3.3-1.3-3.355-2.007s.268-3.293,2.291-3.617A3.829,3.829,0,0,1,1384.192,375.467Z" transform="translate(-1374.778 -370.233)"/><path class="v" d="M1386.357,376.329a3.768,3.768,0,0,0-1.17-4.389,1.134,1.134,0,0,1-.068.875c-.726,1.631-.354,1.126-1.237,1.862s-1.634.048-1.832,1.235a1.253,1.253,0,0,0,.034.484,7.622,7.622,0,0,0,1.192.361A5.4,5.4,0,0,0,1386.357,376.329Z" transform="translate(-1376.943 -371.095)"/></g><path class="x" d="M1410.179,574.464a5.768,5.768,0,0,1-.812-2.81l-3.106-.076a2.922,2.922,0,0,1-.358,1.891,4.388,4.388,0,0,1-1.839.976c-1.472.711-3.292,1.63-3.366,2.126-.124.825,8.445,1.009,9.889.242C1411.342,576.411,1410.843,575.5,1410.179,574.464Z" transform="translate(-219.475 -197.577)"/><path class="x" d="M1389.786,540.288a5.773,5.773,0,0,1-1.23-2.654l-3.082.4a2.925,2.925,0,0,1-.066,1.924c-.18.389-.806.743-1.668,1.244-1.348.927-3.006,2.112-3,2.613,0,.835,8.5-.288,9.81-1.266C1391.231,542.035,1390.6,541.207,1389.786,540.288Z" transform="translate(-209.397 -180.439)"/><path class="w" d="M1369.867,442.489s-11.287,15.209-11.91,25.178,10.182,23.8,14.11,24.316,5.719-.322,6-1.958c1.018-5.946-9.614-17.359-9.239-21.337.678-7.183,21.755-14.871,16.458-23.707C1383.375,441.8,1369.867,442.489,1369.867,442.489Z" transform="translate(-197.883 -132.37)"/><path class="w" d="M1405.515,473.411c-.9-8.013,4.264-29.895-2.567-33s-12.01,3.314-12.01,3.314,2.862,24.944,4.418,33.162c1.133,5.978,3.547,27.546,3.693,28.035.974,3.278,7.214,3.186,7.59-.831.037-.394,1.753-13.965.952-22.038C1407.2,478.13,1405.761,475.594,1405.515,473.411Z" transform="translate(-214.548 -130.927)"/><g transform="translate(1166.138 317.439)"><path class="v" d="M1392.009,457.339a40.6,40.6,0,0,1-8.5,4.675c-4.607,1.6-14.088,9.214-13.22,13.687s4.087,5.742,6.083,10.148c1.867,4.121.711,10.109-.652,12.288a5.9,5.9,0,0,0,2.559,1.376c3.928.512,5.719-.322,6-1.958,1.018-5.946-9.614-17.359-9.239-21.337C1375.589,470.375,1389.639,464.2,1392.009,457.339Z" transform="translate(-1370.23 -457.339)"/></g><g transform="translate(1184.164 309.586)"><path class="v" d="M1415.518,483.021c-.39-3.925-1.83-6.462-2.076-8.645-.894-7.941,4.164-29.492-2.393-32.9.21,4.9.464,13.846-.173,19.138-.911,7.566.958,17.44,1.315,20.248s1.833,19.01-2.066,20.968a27.778,27.778,0,0,1-3.487,1.476c.186,1.521.308,2.484.338,2.583.973,3.278,7.214,3.186,7.59-.831C1414.6,504.664,1416.318,491.093,1415.518,483.021Z" transform="translate(-1406.638 -441.478)"/></g><path class="v" d="M1381.429,442.458c-.921.019-1.5.048-1.5.048s-.837,1.129-2.064,2.965c1.582,1.521,6.84,6.17,11.429,5.556C1393.1,450.518,1386.072,445.482,1381.429,442.458Z" transform="translate(-207.95 -132.387)"/><path class="y" d="M1397.523,419.571c3.9-7.3.129-30.108-8.024-32.653-5.244-1.637-18.613,3.467-16.746,11.722.488,2.16,2.682,6.03,3.468,8.485.48,1.5.161,6.288-.375,7.949-.463,1.431,7.477,7.82,11.581,7.757C1397.975,422.669,1397.045,420.468,1397.523,419.571Z" transform="translate(-205.276 -104.192)"/><path class="i" d="M1342.274,397.592s-12.969,13.15-14.9,13.27c-2.8.175-17.3-10.792-19.414-6.451s14.088,17.836,22.046,14.7,15.854-13.031,15.854-13.031Z" transform="translate(-172.559 -109.735)"/><path class="r" d="M1345.874,412.386l-.975-2.308c-2.356.8-5.1,4.338-6.519,5.576-1.988,1.736-4.822,5.808-7.559,7.144s-5.541.334-10.682-1.591-8.679-9.291-11.216-9.892a1.442,1.442,0,0,0-1.114.07c-.442,4.9,14.624,17.021,22.212,14.032C1337.979,422.281,1345.874,412.386,1345.874,412.386Z" transform="translate(-172.572 -116.039)"/><path class="i" d="M1307.705,406.375a7.33,7.33,0,0,0-.75-2.548c-.405-.834-1.639-1.237-1.495-3.144.017-.228-.836-.407-1.012,1.2-.061.555-.019,1.182-.3,1.324-.963.486-1.811-1.283-2.44-2.342a.315.315,0,0,0-.548.01,1.9,1.9,0,0,0-.174,1.833c.579.948.048,1.577.391,2.441s3.778,4.253,4.974,3.393A3.417,3.417,0,0,0,1307.705,406.375Z" transform="translate(-169.043 -111.221)"/><g transform="translate(1161.038 287.857)"><path class="y" d="M1373.942,404.356c1-6.764-5.335-6.764-5.335-6.764s-4.561,4.624-8.676,8.414c.395,2.145,2,7.339,4.7,8.9C1369.132,410.878,1373.463,407.585,1373.942,404.356Z" transform="translate(-1359.931 -397.592)"/></g><g transform="translate(1179.654 282.423)"><path class="x" d="M1402.1,386.92a10.439,10.439,0,0,0-4.568-.109c1.937,1.7,6.87,6.5,8.6,12.814,2.174,7.923.675,10.95,0,15.846a40.791,40.791,0,0,1-1.89,7.144c6.07-.611,5.479-2.287,5.881-3.041C1414.019,412.273,1410.251,389.465,1402.1,386.92Z" transform="translate(-1397.53 -386.617)"/></g><path class="v" d="M1376.909,416.066a35.633,35.633,0,0,1,1.5,3.6,4.485,4.485,0,0,1,.156.815c2.415-2.368,3.617-9.03,3.617-9.03Z" transform="translate(-207.465 -116.732)"/><g transform="translate(1163.157 290.061)"><path class="x" d="M1375.313,402.044a12.024,12.024,0,0,1-2.882,5.636c-2.126,1.961-6.262,5.062-8.222,6.508a7.627,7.627,0,0,0,2.585,2.961c4.5-4.024,8.828-7.316,9.307-10.546A6.108,6.108,0,0,0,1375.313,402.044Z" transform="translate(-1364.21 -402.044)"/></g><path class="z" d="M1125.462,611.612a2.266,2.266,0,0,1,2.207-.734c2.162.216,2.42,2.821,2.887,3.338s1.157,2.219.84,2.92-1.8,1.419-1.8,1.419-2.145,2.438-4.582,2.288-4.623-2.224-4.59-3.874S1121.758,610.109,1125.462,611.612Z" transform="translate(-77.971 -217.409)"/><path class="r" d="M1133.994,600.314a62,62,0,0,0,15.859-10.61c3.473-3.34,7.914-23.209,11.9-22.418,1.773.352,1.084,21.019-6.581,30.95s-15.8,11.015-15.8,11.015Z" transform="translate(-84.821 -195.399)"/><g transform="translate(1031.843 420.863)"><path class="z" d="M1102.619,687.319c.073-6.357,1.75-12.707,3.918-15.344,1.224-1.489,2.426-2.667,3.242-3.849a3.941,3.941,0,0,0,.531-1.9c5.842,1.294,11.84,1.185,14.052.656,2.414,9.936,3.986,20.41,3.961,24.776-.081,14.265-.437,24.017-5.661,46.5-.261,1.123-4.394-.01-5.422-1.164-2.974-3.341-1.149-15.848,2-26.373.95-3.171-2.938-19.586-3.629-19.5-.337.04-1.913,19.638-3.849,28.251-1.313,5.844-2.914,21.71-12.418,19.276-1.746-.447,3.445-21.068,4.673-25.285C1104.533,711.6,1102.608,688.261,1102.619,687.319Z" transform="translate(-1098.992 -666.226)"/></g><path class="u" d="M1132.971,667.8c-1.3,6.589-2.73,16.352-.312,18.44,3.722,3.215,7.461,7.488,8.8,13.63s-4.54,26.438-6.142,29.51c-.649,1.243-1.887,3.033-2.986,5.166a6.333,6.333,0,0,0,1.25,3.114c1.027,1.154,5.16,2.288,5.422,1.164,5.224-22.482,5.58-32.234,5.661-46.5.025-4.365-1.547-14.84-3.961-24.776A29.73,29.73,0,0,1,1132.971,667.8Z" transform="translate(-83.486 -246.033)"/><g transform="translate(1034.874 403.094)"><path class="aa" d="M1105.443,664.259c-1.233-3.561,1.32-7.9,2.462-14.8,1.084-6.556.757-10.764,2.768-13.2,1.9-2.294,4.775-4.322,12.634-5.9,1.946-.392,5.14,4.76,5.792,9.152.334,2.248-1.62,4.416-1.335,6.943.484,4.3,2.056,8.962,3.025,13.453.96,4.448-1.8,6.9-7.832,7.278C1116.606,667.585,1107.109,669.07,1105.443,664.259Z" transform="translate(-1105.114 -630.338)"/></g><g transform="translate(1045.629 401.54)"><path class="i" d="M1126.837,627.2l.1,4.516c.074.749,2.453,2.511,3.533,1.437.316-.314-.249-1.294-.658-2.036l-1.309-3.809Z" transform="translate(-1126.837 -627.199)"/></g><g transform="translate(1046.226 402.551)"><path class="z" d="M1130.032,631.016a3.233,3.233,0,0,1-1.99-1.773l1.427.136Z" transform="translate(-1128.042 -629.242)"/></g><path class="i" d="M1127.094,619.693l-.446,1.72a2.626,2.626,0,0,0,1.753,3.2,2.252,2.252,0,0,0,2.9-1.852c.309-1.414-.586-2.749-.889-3.432C1129.72,617.775,1127.751,617.753,1127.094,619.693Z" transform="translate(-81.069 -221.115)"/><g transform="translate(1044.924 399.241)"><path class="i" d="M1126.4,623.577a2.2,2.2,0,0,1-.072-.461c-.019-.3-.116-.732-.542-.488-.619.356-.431,1.927.308,2C1126.642,624.683,1126.505,623.955,1126.4,623.577Z" transform="translate(-1125.412 -622.557)"/></g><g transform="translate(1049.553 399.053)"><path class="i" d="M1134.841,623.209a2.219,2.219,0,0,0,.057-.463c.009-.3.091-.735.525-.505.63.334.5,1.912-.241,2.01C1134.634,624.324,1134.747,623.591,1134.841,623.209Z" transform="translate(-1134.762 -622.176)"/></g><g transform="translate(1047.473 401.146)"><path class="n" d="M1130.561,626.459a5.153,5.153,0,0,0,1.7-.056,2.054,2.054,0,0,1-.579.975C1131.3,627.628,1130.845,627.216,1130.561,626.459Z" transform="translate(-1130.561 -626.403)"/></g><g transform="translate(1045.634 401.572)"><path class="ab" d="M1128.755,628.642a3.448,3.448,0,0,0,1.887-.329,3.566,3.566,0,0,0,.816-1.048c-.005.026-.007.052-.013.078a2.252,2.252,0,0,1-2.9,1.852,2.52,2.52,0,0,1-1.7-1.66A3.259,3.259,0,0,0,1128.755,628.642Z" transform="translate(-1126.846 -627.265)"/></g><path class="z" d="M1135.3,609.374a7.467,7.467,0,0,0,.478,2.166l2.857,4.741a5.536,5.536,0,0,0,3.715,1.709,24.122,24.122,0,0,0,4.7-2.281,34.855,34.855,0,0,0,8.086-15.664,60.944,60.944,0,0,0,1.334-14.245c-2.113,5.417-4.163,11.54-5.955,13.263A61.8,61.8,0,0,1,1135.3,609.374Z" transform="translate(-85.481 -204.758)"/><path class="r" d="M1185.745,564.238s.211-2.141-.179-2.627-.151-.864.285-.665.3,1.21.716,1.026.989-2.222,2.127-2.471.34,4.621-1.194,5.156S1185.745,564.238,1185.745,564.238Z" transform="translate(-110.759 -191.475)"/><g transform="translate(1050.851 491.629)"><path class="n" d="M1138.1,809.97c.633-.082,1.856.275,2.321.079s1.2-1.066,1.982-.865,2.363,2.223,2.953,2.682,2.086.848,2.351,1.8h0a.918.918,0,0,1-.918.918h-7.977a1.416,1.416,0,0,1-1.4-1.224C1137.307,812.607,1137.467,810.053,1138.1,809.97Z" transform="translate(-1137.383 -809.154)"/></g><g transform="translate(1067.242 351.374)"><rect class="z" width="34.062" height="32.047" rx="11.882" transform="translate(2.014 1.648)"/><rect class="ac" width="34.062" height="32.047" rx="11.882" transform="translate(0)"/><g transform="translate(4.049 3.042)"><circle class="n" cx="11.241" cy="11.241" r="11.241" transform="translate(0 22.157) rotate(-80.253)"/><path class="ad" d="M1207.292,551.639l-5.608,3.238-5.608,3.238V545.163l5.608,3.238Z" transform="translate(-1187.456 -538.657)"/></g></g><g transform="translate(1046.509 403.094)"><path class="ae" d="M1142.654,659.908c-.969-4.491-2.541-9.157-3.025-13.453-.284-2.528,1.669-4.7,1.335-6.943-.652-4.393-3.847-9.544-5.792-9.152a47.347,47.347,0,0,0-4.988,1.256c.685,3.086,1.652,9.527-1.57,11.68a33.416,33.416,0,0,1,4.106,9.013c.739,3.291-2.541,9.484-2.018,15.19,1.441-.108,2.844-.232,4.12-.312C1140.855,666.807,1143.614,664.356,1142.654,659.908Z" transform="translate(-1128.613 -630.338)"/></g><path class="z" d="M1125.413,652.281a10.089,10.089,0,0,0,6.369,0,13.375,13.375,0,0,0,5.786-4.583Z" transform="translate(-80.489 -236.009)"/><path class="i" d="M1120.7,608.712c2.96-3.741,11.038-6.3,14.421-10.1,3.59-4.037,8.165-25.459,12.155-24.668,1.774.352,1.084,21.02-6.581,30.951s-16.5,11.255-18.9,9.821A4.125,4.125,0,0,1,1120.7,608.712Z" transform="translate(-77.683 -198.759)"/><path class="r" d="M1148.751,574.92c-.038,0-.075,0-.112,0-2.136-.067-2.136,7.344-3.071,11.35s-3.605,15.89-5.608,18.894-2.6,3.4-8.546,6.209a38.816,38.816,0,0,1-9.375,3.146,3.921,3.921,0,0,0,.854.695c2.4,1.434,11.236.11,18.9-9.821C1148.844,596.263,1149.991,578.06,1148.751,574.92Z" transform="translate(-78.785 -199.264)"/><path class="i" d="M1170.91,570.89s.211-2.141-.179-2.626-.151-.864.285-.666.3,1.21.716,1.026.989-2.222,2.127-2.471.34,4.621-1.194,5.156S1170.91,570.89,1170.91,570.89Z" transform="translate(-103.27 -194.834)"/><g transform="translate(1031.844 445.751)"><path class="u" d="M1109.721,729.79c1.423,8.634.443,25.192-5.7,27.328a40.053,40.053,0,0,1-4.546,1.3c-.527,3.162-.7,5.453-.128,5.6,9.5,2.435,11.1-13.432,12.418-19.276,1.936-8.613,3.512-28.211,3.849-28.251C1115.615,716.494,1108.3,721.155,1109.721,729.79Z" transform="translate(-1098.995 -716.494)"/></g><g transform="translate(1032.246 491.629)"><path class="n" d="M1100.523,809.97c.633-.082,1.857.275,2.321.079s1.2-1.066,1.983-.865,2.363,2.223,2.953,2.682,2.087.848,2.351,1.8h0a.918.918,0,0,1-.918.918h-7.977a1.416,1.416,0,0,1-1.4-1.224C1099.731,812.607,1099.891,810.053,1100.523,809.97Z" transform="translate(-1099.806 -809.154)"/></g><path class="r" d="M1314.384,621.408c-3.459-.62-9.965,12.081-11.263,11.789-2.588-.583-5.077-15.044-8.348-14.161-2.8.757-.75,18.814,6.733,20.984,5.764,1.671,10.763-5.4,12.177-7.5S1316.974,621.872,1314.384,621.408Z" transform="translate(-165.389 -221.518)"/><path class="r" d="M1296.485,616.132a9.686,9.686,0,0,0,.675-1.8c-.052-.679-.438-.815-.438-.815s.163-1.571-.867-1.311c-1.639.414-1.831,1.055-1.909,2.488S1293.917,617.979,1296.485,616.132Z" transform="translate(-165.569 -218.076)"/><g transform="translate(1139.943 399.868)"><path class="n" d="M1326.376,623.845c-2.466-.442-6.48,5.884-9.052,9.448a7.892,7.892,0,0,0,4.464,6.318,26.953,26.953,0,0,0,3.887-4.657C1327.089,632.853,1328.966,624.309,1326.376,623.845Z" transform="translate(-1317.324 -623.823)"/></g><g transform="translate(1144.187 484.986)"><path class="af" d="M1334.811,799.135c-.53-.9-.456-1.9-.83-3.164l-3.916-.235s.9,1.757.362,2.5c-.234.324-4.442,2.052-4.53,2.511-.146.765,7.833,1.253,9.207.591C1335.822,800.993,1335.391,800.122,1334.811,799.135Z" transform="translate(-1325.895 -795.737)"/><g transform="translate(0 2.728)"><path class="z" d="M1334.659,801.553c-.878.026-1.724.6-3.117.6-1.193,0-1.434-.525-1.453-.9-1.049.58-4.117,1.892-4.192,2.284-.146.765,7.833,1.253,9.207.591.718-.347.288-1.217-.293-2.2A1.485,1.485,0,0,1,1334.659,801.553Z" transform="translate(-1325.895 -801.246)"/></g></g><path class="z" d="M1335.607,600.218s1.224-1.986,3.013-1.541,3.618,1.132,4.136,4.187c.461,2.725.017,3.888,1.4,5.446s6.009,8.5,4.3,12.374-9.214,3.6-12.4-1.888S1327.239,602.139,1335.607,600.218Z" transform="translate(-184.399 -211.226)"/><g transform="translate(1163.712 484.858)"><path class="af" d="M1366.133,798.8c.6-.854-.167-1.5-.565-3.155l4.4-.171a8.737,8.737,0,0,0,.6,2.792c.207.343,4.259,2.41,4.308,2.875.082.774-7.91.6-9.224-.168C1364.972,800.572,1365.474,799.74,1366.133,798.8Z" transform="translate(-1365.33 -795.479)"/><g transform="translate(0 2.975)"><path class="z" d="M1366.314,801.488c.873.1,1.668.74,3.058.85,1.189.094,1.471-.405,1.521-.779,1,.664,3.947,2.225,3.99,2.621.082.774-7.91.6-9.224-.168-.688-.4-.187-1.236.473-2.172A1.488,1.488,0,0,0,1366.314,801.488Z" transform="translate(-1365.33 -801.488)"/></g></g><path class="i" d="M1311.835,699.439a81.6,81.6,0,0,0,11.49,47.85c.539.906,3.792.054,3.792.054.141-1.358-.73-21.2-4.552-28.343-1.393-2.6,1.5-22.441,2.124-22.328C1325.135,696.752,1312.264,693.8,1311.835,699.439Z" transform="translate(-174.499 -260.381)"/><path class="z" d="M1327.923,643.149c.011-2.182-.293-4.149-1.38-4.4-1.148-.265-3.464,7.483-3.862,9.852A22.251,22.251,0,0,0,1327.923,643.149Z" transform="translate(-180.086 -231.487)"/><g transform="translate(1143.683 398.292)"><path class="n" d="M1341.019,621.671c-4.032-1.666-10.113-1.424-13.125,1.543-2.276,2.243-.784,5.963-.768,7.963.022,2.829-1.913,7.734-2.118,11.114a2.78,2.78,0,0,1-.128.591c3.1.32,11.576.736,17.862-1.252a16.393,16.393,0,0,1-1.448-3.289c-1.268-4.453.092-6.226,1.089-8.8C1342.845,628.339,1344.351,623.048,1341.019,621.671Z" transform="translate(-1324.879 -620.639)"/></g><path class="i" d="M1342.074,716.13s4.963,17.693,5.964,21.364c.8,2.92,3.522,13.346,6.253,17.448.7,1.057,4.561,2.482,4.543,1.755-.069-2.791-3.519-39.7-4.52-42.637S1342.074,716.13,1342.074,716.13Z" transform="translate(-189.877 -269.048)"/><path class="r" d="M1329.949,711.671c-1.916.469-5.357,5.124-5.086,8.224.324,3.707,1.921,18.6,3.859,23,1.55,3.523,3.141,9.731,5.082,12.25.1-2.084-.818-21.229-4.559-28.22C1328.41,725.366,1329.116,717.609,1329.949,711.671Z" transform="translate(-181.18 -268.308)"/><path class="r" d="M1365.443,754.85c-.626-8.116-3.5-38.15-4.4-40.788-.452-1.326-2.992-1.032-5.641-.311.566,8.428,5.7,19.434,5.508,26.082C1360.709,746.642,1364.768,753.376,1365.443,754.85Z" transform="translate(-196.606 -269.048)"/><g transform="translate(1149.321 398.428)"><path class="ag" d="M1347.042,638.481c-1.268-4.453.092-6.226,1.089-8.8.464-1.2,1.97-6.489-1.363-7.866a13.865,13.865,0,0,0-3.47-.895c.113,1.177,2.2,6.19.063,7.8-1.417,1.069-6-.079-6.988,1.378s5.182,3.454,5.935,4c.392.287.706,4.656.917,8.783a30.84,30.84,0,0,0,5.265-1.112A16.393,16.393,0,0,1,1347.042,638.481Z" transform="translate(-1336.266 -620.915)"/></g><path class="y" d="M1311.835,682.52c.378-4.97,2.681-12.08,6.511-20.06,6.369,1.7,14.615.745,17.7.285a29.216,29.216,0,0,1,2.3,7.329c.965,7.256.9,17.508,1.307,22.507-2.121.442-6.25,1.235-11.026,1.8-2,.237-4.113.432-6.239.546a51.914,51.914,0,0,1-10.533-.36A78.564,78.564,0,0,1,1311.835,682.52Z" transform="translate(-174.499 -243.462)"/><g transform="translate(1110.145 369.046)"><rect class="ab" width="34.062" height="32.047" rx="11.882" transform="translate(2.014 1.648)"/><rect class="ah" width="34.062" height="32.047" rx="11.882" transform="translate(0 0)"/><g transform="translate(5.861 6.098)"><path class="n" d="M1292.386,583.056c0-5.064-5.24-9.169-11.7-9.169s-11.7,4.1-11.7,9.169,5.24,9.169,11.7,9.169a14.823,14.823,0,0,0,2.669-.243c1.375.939,3.4,2.2,4.551,2.342l-.365-3.839C1290.473,588.82,1292.386,586.113,1292.386,583.056Z" transform="translate(-1268.978 -573.887)"/><g transform="translate(5.814 7.86)"><circle class="ai" cx="1.397" cy="1.397" r="1.397" transform="translate(0 0)"/><path class="aj" d="M1292.589,591.161a1.4,1.4,0,1,1-1.4-1.4A1.4,1.4,0,0,1,1292.589,591.161Z" transform="translate(-1285.302 -589.763)"/><circle class="ai" cx="1.397" cy="1.397" r="1.397" transform="translate(8.984 0)"/></g></g></g><path class="z" d="M1346.012,641.872a15.17,15.17,0,0,1-2.4,7.344c-1.565,2.281-6.61,3.639-7.946,3.3S1345.01,641.037,1346.012,641.872Z" transform="translate(-186.582 -233.045)"/><path class="i" d="M1345.076,613.647l.738,4.112c.119.677-1.262,2.7-2.475,2.019-.355-.2-.1-1.2.079-1.954l.218-3.674Z" transform="translate(-190.425 -218.817)"/><path class="z" d="M1343.859,617.059a2.4,2.4,0,0,0,1.475-1.973l-1.377.315Z" transform="translate(-190.778 -219.544)"/><path class="i" d="M1342.238,607.384l.511,1.541a2.4,2.4,0,0,1-1.4,3.029,2.059,2.059,0,0,1-2.758-1.511c-.367-1.271.366-2.542.6-3.184C1339.727,605.8,1341.521,605.655,1342.238,607.384Z" transform="translate(-188.066 -215.019)"/><path class="i" d="M1346.427,610.781a2.012,2.012,0,0,0,.037-.425c0-.271.061-.674.464-.477.586.286.511,1.731-.159,1.843C1346.272,611.8,1346.353,611.132,1346.427,610.781Z" transform="translate(-192.047 -216.888)"/><path class="i" d="M1338.686,610.951a2.036,2.036,0,0,1-.079-.418c-.027-.27-.128-.665-.51-.429-.555.344-.335,1.774.343,1.818C1338.943,611.955,1338.8,611.294,1338.686,610.951Z" transform="translate(-187.711 -216.992)"/><path class="n" d="M1342.137,613.678a4.709,4.709,0,0,1-1.553.053,1.877,1.877,0,0,0,.587.854C1341.532,614.789,1341.924,614.386,1342.137,613.678Z" transform="translate(-189.125 -218.833)"/><path class="r" d="M1341.208,615.757a3.151,3.151,0,0,1-1.741-.185,3.249,3.249,0,0,1-.808-.906c.006.024.01.047.016.071a2.058,2.058,0,0,0,2.758,1.511,2.3,2.3,0,0,0,1.447-1.617A2.976,2.976,0,0,1,1341.208,615.757Z" transform="translate(-188.153 -219.314)"/><g transform="translate(1154.64 419.283)"><path class="x" d="M1356.218,670.365a29.216,29.216,0,0,0-2.3-7.329,65,65,0,0,1-6.905.645,111.656,111.656,0,0,1,1.987,16.8c.21,5.036.352,10.218.542,13.792,3.453-.5,6.333-1.056,7.988-1.4C1357.119,687.873,1357.183,677.621,1356.218,670.365Z" transform="translate(-1347.008 -663.036)"/></g><path class="i" d="M1332.92,627.85c.772-3.86-5.308-3.582-6.6-.865-1.505,3.155-4.326,9.616-6.424,10.155-2.669.687-11.2-11.606-12.936-11.349-4.111.609,3.252,17.349,10.873,18.466C1323.131,645.035,1330.232,641.284,1332.92,627.85Z" transform="translate(-171.551 -224.522)"/><path class="z" d="M1338.779,642.807c1.52,1.232,6.461,1.9,6.461,1.9l-5-4.34A27.346,27.346,0,0,1,1338.779,642.807Z" transform="translate(-188.213 -232.306)"/><g transform="translate(1151.498 400.424)"><path class="n" d="M1350.533,627.85c.772-3.86-5.308-3.582-6.6-.865-.812,1.7-2.009,4.369-3.267,6.547,1.426,1.168,4.215,3.233,6.575,3.675A31.072,31.072,0,0,0,1350.533,627.85Z" transform="translate(-1340.662 -624.946)"/></g><path class="z" d="M1315.693,654.9a11.512,11.512,0,0,0,2.617-1.557l-5.647-4.214A45.512,45.512,0,0,0,1315.693,654.9Z" transform="translate(-175.028 -236.731)"/><path class="r" d="M1326.745,643.082c-1.967,1.167-4.47,2.379-6,2.083-2.82-.543-2.782-1.552-5.443-3.206s-4.319-5.016-6.135-7.885c-1.445-2.284-2.132-4.315-3.288-5.039-.89,3.934,5.437,16.331,11.962,17.287A10.5,10.5,0,0,0,1326.745,643.082Z" transform="translate(-171.559 -226.586)"/><path class="i" d="M1305.9,625.052a4.585,4.585,0,0,0-1.249-2.279.969.969,0,0,0-.932-.188s-1.133-1.063-1.607-.191c-.754,1.388-.374,1.908.706,2.829S1305.654,627.358,1305.9,625.052Z" transform="translate(-169.5 -223.06)"/><path class="ag" d="M1351.2,625.126c.708,1.623-.336,4.426-1.305,6.878-.747,1.891-2.947,2.969-4.2,3.447a13.332,13.332,0,0,0,4.2,1.994,32.3,32.3,0,0,0,3.175-9.5A2.2,2.2,0,0,0,1351.2,625.126Z" transform="translate(-191.705 -224.613)"/><path class="ak" d="M1126.059,431.183s8,9.706,11.307,12.248c4.168,3.209,16.673,8.823,16.623,12.9s-19.5-5.552-23.189-8.6-8.093-9.415-8.093-9.415Z" transform="translate(-79.123 -126.694)"/><path class="n" d="M1101.37,440.22a5.068,5.068,0,0,0,1.273-1.615c1.675-3.588-4.926-9.2.447-11.818,2.414-1.175,4.682-3.9,10.95.27,4.836,3.217-1.6,9.162.2,14.252C1109.812,445.029,1106.548,441.457,1101.37,440.22Z" transform="translate(-68.133 -123.483)"/><path class="i" d="M1112.222,418.617l-.8,4.045c-.129.666,1.265,2.7,2.514,2.052.366-.189.114-1.183-.061-1.931l-.185-3.635Z" transform="translate(-73.422 -120.35)"/><path class="z" d="M1114.675,422.268a2.694,2.694,0,0,1-1.555-2.2l1.469.529Z" transform="translate(-74.282 -121.081)"/><path class="i" d="M1114.3,412.561l-.971,1.274a2.368,2.368,0,0,0,.337,3.276,2.031,2.031,0,0,0,3.059-.526,4.938,4.938,0,0,0,.459-3.164C1117.152,411.884,1115.523,411.178,1114.3,412.561Z" transform="translate(-74.133 -116.918)"/><path class="i" d="M1113.492,415.033a1.975,1.975,0,0,1,.1-.408c.088-.253.159-.649-.28-.594-.639.079-1.032,1.452-.443,1.771C1113.309,416.039,1113.449,415.385,1113.492,415.033Z" transform="translate(-74.011 -118.032)"/><path class="i" d="M1120.466,417.63a1.99,1.99,0,0,0,.208-.365c.111-.244.333-.579.613-.237.407.5-.256,1.763-.9,1.587C1119.9,418.484,1120.254,417.914,1120.466,417.63Z" transform="translate(-77.828 -119.474)"/><path class="n" d="M1116.381,418.743a4.641,4.641,0,0,0,1.432.547,1.85,1.85,0,0,1-.822.609C1116.589,419.974,1116.352,419.472,1116.381,418.743Z" transform="translate(-75.927 -120.414)"/><path class="r" d="M1114.035,420.109a3.107,3.107,0,0,0,1.684.386,3.214,3.214,0,0,0,1.044-.586c-.013.02-.024.041-.038.06a2.031,2.031,0,0,1-3.059.526,2.274,2.274,0,0,1-.832-1.973A2.936,2.936,0,0,0,1114.035,420.109Z" transform="translate(-74.134 -120.302)"/><g transform="translate(1054.539 306.198)"><path class="x" d="M1156.8,437.964h22.3a5.32,5.32,0,0,1,5.37,5.883l-1.771,20.282a6.568,6.568,0,0,1-6.4,5.883H1154a5.321,5.321,0,0,1-5.37-5.883l1.771-20.282A6.568,6.568,0,0,1,1156.8,437.964Z" transform="translate(-1146.739 -436.316)"/><path class="al" d="M1153.021,434.635h22.3a5.32,5.32,0,0,1,5.37,5.883l-1.771,20.281a6.568,6.568,0,0,1-6.4,5.883h-22.3a5.321,5.321,0,0,1-5.37-5.883l1.771-20.281A6.568,6.568,0,0,1,1153.021,434.635Z" transform="translate(-1144.832 -434.635)"/></g><g transform="translate(1061.163 313.73)"><path class="am" d="M1179.192,465.556a4.307,4.307,0,0,1-.187-1.831c.308-2.7,1.078-10.462-.11-11.61-1.442-1.393-17.853-3.269-18.6-1.628s-4.676,13.215.7,14.11a74.5,74.5,0,0,0,12.016.591,6.881,6.881,0,0,1,2.969.605l3.863,1.738Z" transform="translate(-1158.21 -449.848)"/></g><path class="z" d="M1117.172,451.421c-.48-.706-1.1-1.626-1.692-2.516a71.989,71.989,0,0,1-3.439-6.881c-.88,1.97.479,6.54,1.44,9.265A6.335,6.335,0,0,0,1117.172,451.421Z" transform="translate(-73.594 -132.168)"/><path class="n" d="M1101.771,430.607c3.688,1.148,5.032,12.174,7.981,15.333,4.743,5.081,12.315,6.829,11.5,11.1-.835,4.4-14.168-2.119-17.048-5.945-3.44-4.569-5.309-12.932-5.268-16.834C1098.971,431.446,1100.667,430.263,1101.771,430.607Z" transform="translate(-67.123 -126.374)"/><path class="ak" d="M1101.12,430.6a9.261,9.261,0,0,1-.1,3.231c-.442,1.548.412,3.316,1.422,6.043s.862,4.422,2.263,7.3,3.909,2.8,6.008,4.274c1.693,1.189,8.585,3.66,10.357,6.143-1.818,3.3-14.1-2.807-16.856-6.462-3.44-4.569-5.309-12.932-5.268-16.833C1098.966,431.986,1100.1,430.776,1101.12,430.6Z" transform="translate(-67.123 -126.399)"/><path class="i" d="M1140.752,480.517c.251-.264,1.392-.021,1.933.137a2.707,2.707,0,0,0,2.112-.113c.4-.213.319.6-.3.835s-1.776.2-1.3.526,3.435,1.008,2.6,2.019c-1.789,2.176-4.634.428-5.963-.869C1139.843,483.052,1139.2,482.149,1140.752,480.517Z" transform="translate(-87.708 -151.543)"/><path class="h" d="M1118.656,411.313a5.542,5.542,0,0,0,.79,2.148,2.293,2.293,0,0,0,1.458,1.135S1121.471,410.813,1118.656,411.313Z" transform="translate(-77.077 -116.64)"/><path class="h" d="M1116.707,411.43s-1.319,1.374-1.765,1.72a2.333,2.333,0,0,0-.657.913,3.583,3.583,0,0,1,.151-2.114C1114.887,411.28,1116.08,410.6,1116.707,411.43Z" transform="translate(-74.822 -116.528)"/><path class="z" d="M1487.51,594.594a2.826,2.826,0,0,1,2.4-1.936c1.528-.233,1.651.362,1.651.362s2.6.1,3.542,1.237c1.684,2.034.118,5.007,1.367,6.524s9.281,8.319,2.387,13.667c-2.6,2.015-11.269-8.371-11.806-11.37A19.06,19.06,0,0,1,1487.51,594.594Z" transform="translate(-262.937 -208.193)"/><path class="r" d="M1458.853,618.3c-3.607,1.13-7.7,14.113-7.7,14.113s-18.656,16.044-16.371,18,24.954-8.967,26.564-19.347S1462.1,617.279,1458.853,618.3Z" transform="translate(-236.585 -221.078)"/><path class="i" d="M1488.433,672.469c-1.432-.49.91-21.391,1.009-23.229.607-11.305-5.739-14.274-6.672-17.606-1.12-4,6.517-8.3,2.519-13.458-1.723-2.225-11.108-4.277-13.452-1.438-.576.7-2.886,2.469-3.175,3.765-.6,2.709,1.21,5.729,1.179,9.265-.019,2.091-2.261,6.03-3.314,8.448-2.054,4.714-3.656,7.488-4.606,18.013-1.224,13.552,2.8,31.61,13.779,48.958.583.921,3.221.1,3.221.1.107-1.408-1.677-21.6-5.832-28.88-1.515-2.652.745-24.485,1.4-24.386.463.07-4.1,33.416,28.337,36.191l1.011-2.734S1497.044,675.416,1488.433,672.469Z" transform="translate(-250.278 -219.678)"/><g transform="translate(1225.653 391.911)"><path class="i" d="M1493.495,607.752l.121,4.63c.017.762-1.833,2.747-3.05,1.8-.356-.278.092-1.332.413-2.128l.853-3.991Z" transform="translate(-1490.435 -607.752)"/><path class="i" d="M1492.234,611.308a5.179,5.179,0,0,0,1.967-1.823l-1.583.022Z" transform="translate(-1491.344 -608.627)"/></g><path class="r" d="M1514.9,728.3c-.282-.1-.416-.99-.451-2.366a8.453,8.453,0,0,0,.538,6.105c2.236,3.906,11.65,10.082,14.488,10.315a2.062,2.062,0,0,0,.443-.014l.38-1.028S1523.509,731.248,1514.9,728.3Z" transform="translate(-276.743 -275.509)"/><path class="i" d="M1492.468,600.414l.3,1.776a2.66,2.66,0,0,1-2.057,3.076,2.282,2.282,0,0,1-2.761-2.129c-.184-1.455.838-2.722,1.207-3.384C1489.99,598.243,1491.979,598.4,1492.468,600.414Z" transform="translate(-263.513 -211.293)"/><path class="i" d="M1496.225,604.434a2.251,2.251,0,0,0,.237-.409c.127-.272.378-.648.69-.261.453.563-.3,1.979-1.027,1.776C1495.587,605.389,1495.984,604.752,1496.225,604.434Z" transform="translate(-267.519 -213.743)"/><path class="i" d="M1488.333,603.69a2.215,2.215,0,0,1-.017-.472c.016-.3-.029-.75-.486-.555-.665.283-.665,1.887.07,2.05C1488.446,604.832,1488.395,604.083,1488.333,603.69Z" transform="translate(-263.219 -213.247)"/><g transform="translate(1224.425 391.764)"><path class="r" d="M1490.559,609.087a2.5,2.5,0,0,1-1.875-.5,3.827,3.827,0,0,1-.729-1.13c0,.027,0,.053.006.08a2.282,2.282,0,0,0,2.761,2.129,2.552,2.552,0,0,0,1.863-1.522A3.3,3.3,0,0,1,1490.559,609.087Z" transform="translate(-1487.955 -607.455)"/></g><g transform="translate(1220.771 483.77)"><path class="af" d="M1489.61,795.1c-.557.5-2.808,3.441-3.6,3.52a3.1,3.1,0,0,1-1.012-.062,7.659,7.659,0,0,0,1.568-2.349,6.138,6.138,0,0,0,.709-2.933l3.333,1.115s.059.14.134.356A1.643,1.643,0,0,0,1489.61,795.1Z" transform="translate(-1482.806 -793.28)"/><path class="an" d="M1480.713,801.167a5.045,5.045,0,0,1,1.764-.938,1.054,1.054,0,0,0,.286-.168,3.1,3.1,0,0,0,1.012.062c.795-.08,3.047-3.02,3.6-3.52a1.643,1.643,0,0,1,1.13-.352,4.028,4.028,0,0,1,.287,1.911,18.661,18.661,0,0,0-.6,3.775h-.993v-2.543a5.087,5.087,0,0,0-1.152.835,2.782,2.782,0,0,0-.414.732,1.614,1.614,0,0,1-1.491.976h-3.123A.448.448,0,0,1,1480.713,801.167Z" transform="translate(-1480.575 -794.78)"/></g><g transform="translate(1251.414 465.421)"><path class="af" d="M1544.823,757.452c.342.665,2.612,3.592,2.486,4.38a3.1,3.1,0,0,1-.317.963,7.659,7.659,0,0,0-1.872-2.115,6.142,6.142,0,0,0-2.655-1.433l1.928-2.939s.15-.021.379-.039A1.64,1.64,0,0,0,1544.823,757.452Z" transform="translate(-1542.464 -756.245)"/><path class="an" d="M1549.8,765.034a5.039,5.039,0,0,1-.458-1.945,1.048,1.048,0,0,0-.089-.319,3.092,3.092,0,0,0,.317-.963c.126-.789-2.144-3.715-2.486-4.38a1.64,1.64,0,0,1-.052-1.182,4.025,4.025,0,0,1,1.921.209,18.642,18.642,0,0,0,3.5,1.538l-.253.961-2.459-.648a5.094,5.094,0,0,0,.513,1.327,2.777,2.777,0,0,0,.6.586,1.614,1.614,0,0,1,.564,1.69l-.8,3.02A.448.448,0,0,1,1549.8,765.034Z" transform="translate(-1544.729 -756.22)"/></g><path class="ao" d="M1478.455,708.484c-2.444.639-8.053,2.531-10.921,2.784-6.329-13.664-6.757-27.569-5.8-38.2.951-10.525,2.552-13.3,4.606-18.013.761-1.748,2.14-4.288,2.855-6.353,3.338.025,9.758.065,13.475.032,1.175,3.232,7.177,6.336,6.586,17.346-.1,1.839-2.441,22.74-1.009,23.229,4.031,1.379,7.662,4.318,10.385,7.055-1.473,1.723-4.365,5.809-7.439,8.048-20.553-8.359-16.492-35.487-16.9-35.548-.65-.1-1.821,21.711-.306,24.363C1476.019,696.766,1477.5,702.474,1478.455,708.484Z" transform="translate(-250.096 -236.513)"/><g transform="translate(1228.484 412.216)"><path class="ap" d="M1505.824,689.337c-1.432-.49.91-21.391,1.009-23.229.591-11.01-5.411-14.114-6.586-17.346-1.16.01-2.583.013-4.093.012.085,6.213.469,14.357,1.827,17.336,2.312,5.069.531,19.579,2.579,22.962,1.414,2.337,1.261,7.264.135,10.118a24.654,24.654,0,0,0,8.075,5.251c3.074-2.239,5.966-6.325,7.439-8.048C1513.486,693.656,1509.855,690.717,1505.824,689.337Z" transform="translate(-1496.153 -648.762)"/></g><path class="z" d="M1474.581,643.971c-.676.493-1.278.525-1.633-.187-1.307-2.614.093-7.467.233-8.541a49.386,49.386,0,0,0-.427-5.566,40.152,40.152,0,0,1,1.8-3.673,1.6,1.6,0,0,1,1.463.184c.926.887,1.874,5.461,2.36,9.149.3,2.289-1.36,5.994-2.976,7.853Q1475,643.585,1474.581,643.971Z" transform="translate(-255.673 -225.014)"/><path class="z" d="M1493.531,598.191a5.176,5.176,0,0,0,.052,1.167,3.008,3.008,0,0,0,.473.875l.07-.583a4.441,4.441,0,0,1,.782,1.843c.076.746.265,2.251.265,2.251a8.849,8.849,0,0,0,1.426-2.627c.28-1.165-.653-4.362-1.855-4.374S1493.531,598.191,1493.531,598.191Z" transform="translate(-266.339 -210.283)"/><path class="z" d="M1490.992,596.756a2.454,2.454,0,0,0-1.715-.6c-1.43.277-1.891,2.343-1.946,3.731a5.776,5.776,0,0,0,.225,2.115,6.572,6.572,0,0,1,1.161-3.281c.436-.635,1.38-.854,1.819-1.068C1490.7,597.577,1490.94,596.923,1490.992,596.756Z" transform="translate(-263.211 -209.978)"/><path class="n" d="M1470.307,638.425c1.133-2.381,2.679-5.675,2.695-7.456.032-3.536-.6-6.182,0-8.891.27-1.208,2.291-2.827,3.032-3.606l1.938,3.816,6.417-2.807a14.794,14.794,0,0,0,4.156,8.951c-1,1.659-.572,3.136-.142,4.673a19.588,19.588,0,0,0,2.906,5.321c-.723.277-1.025,1.332-3.431,1.692-.927.138-3.256-.363-4.425-.257-1.267.115-4.12,1.01-5.376.957C1474.047,640.648,1472.874,638.716,1470.307,638.425Z" transform="translate(-254.619 -221.253)"/><path class="ak" d="M1496.526,634.133c-.431-1.537-.859-3.014.141-4.673a14.794,14.794,0,0,1-4.156-8.951l-.575.252a13.464,13.464,0,0,1-1.414,5.491c-1.724,2.822-4.948,2.238-3.937,5.2.626,1.834,1.786,6.322,4.1,9.579a8.991,8.991,0,0,1,.891-.142c1.169-.106,3.5.4,4.425.257,2.406-.359,2.708-1.415,3.431-1.692A19.57,19.57,0,0,1,1496.526,634.133Z" transform="translate(-262.741 -222.282)"/><g transform="translate(1185.285 400.187)"><rect class="z" width="34.062" height="32.047" rx="11.882" transform="translate(2.014 1.648)"/><rect class="ac" width="34.062" height="32.047" rx="11.882" transform="translate(0)"/><g transform="translate(2.889 1.882)"><circle class="n" cx="12.24" cy="12.24" r="12.24" transform="translate(0 24.125) rotate(-80.222)"/><g transform="translate(3.243 3.243)"><g transform="translate(9.341 6.002)"><path class="aq" d="M1442.026,657l7.647-1.865-7.761-1.194a1.553,1.553,0,1,0-.408,3.078A1.586,1.586,0,0,0,1442.026,657Z" transform="translate(-1440.154 -650.466)"/><path class="ar" d="M1443.24,651.627l-1.64-4.687-1.42,4.729a1.559,1.559,0,0,0,3.069.55A1.583,1.583,0,0,0,1443.24,651.627Z" transform="translate(-1440.154 -646.94)"/></g><g transform="translate(10.463)"><path class="as" d="M1442.856,636.7a.435.435,0,0,1-.435-.435v-1.015a.435.435,0,0,1,.87,0v1.015A.435.435,0,0,1,1442.856,636.7Z" transform="translate(-1442.421 -634.818)"/></g><g transform="translate(3.064 3.064)"><path class="at" d="M1428.938,642.468a.435.435,0,0,1-.615,0l-.718-.718a.435.435,0,1,1,.615-.615l.718.718A.435.435,0,0,1,1428.938,642.468Z" transform="translate(-1427.477 -641.007)"/></g><g transform="translate(0 10.463)"><path class="au" d="M1423.174,656.385a.435.435,0,0,1-.435.435h-1.016a.435.435,0,0,1,0-.87h1.016A.435.435,0,0,1,1423.174,656.385Z" transform="translate(-1421.288 -655.95)"/></g><g transform="translate(3.064 17.144)"><path class="av" d="M1428.938,669.571a.435.435,0,0,1,0,.615l-.718.718a.435.435,0,0,1-.615-.615l.718-.718A.435.435,0,0,1,1428.938,669.571Z" transform="translate(-1427.477 -669.443)"/></g><g transform="translate(10.463 19.911)"><path class="aw" d="M1442.856,675.032a.435.435,0,0,1,.435.435v1.016a.435.435,0,1,1-.87,0v-1.016A.435.435,0,0,1,1442.856,675.032Z" transform="translate(-1442.421 -675.032)"/></g><g transform="translate(17.144 17.144)"><path class="av" d="M1456.041,669.571a.435.435,0,0,1,.615,0l.718.718a.435.435,0,0,1-.615.615l-.718-.718A.435.435,0,0,1,1456.041,669.571Z" transform="translate(-1455.913 -669.443)"/></g><g transform="translate(19.911 10.463)"><path class="ax" d="M1461.5,656.385a.435.435,0,0,1,.435-.435h1.015a.435.435,0,1,1,0,.87h-1.015A.435.435,0,0,1,1461.5,656.385Z" transform="translate(-1461.503 -655.95)"/></g><g transform="translate(17.144 3.064)"><path class="at" d="M1456.041,642.468a.435.435,0,0,1,0-.615l.718-.718a.435.435,0,0,1,.615.615l-.718.718A.435.435,0,0,1,1456.041,642.468Z" transform="translate(-1455.913 -641.007)"/></g></g></g></g><path class="i" d="M1489.174,621.51c5.068,1.225-.093,15.078-3.782,21.166s-10.927,15.535-13.931,14.268,7.878-15.935,8.868-17.872C1481.808,636.175,1484.456,620.369,1489.174,621.51Z" transform="translate(-254.938 -222.757)"/><g transform="translate(1220.347 395.393)"><path class="n" d="M1480,618.144a.279.279,0,0,0,.22-.107l.865-1.1a4.427,4.427,0,0,1,3.1-1.591.28.28,0,0,0-.049-.558,4.914,4.914,0,0,0-3.5,1.815l-.856,1.09a.28.28,0,0,0,.22.453Z" transform="translate(-1479.719 -614.785)"/></g><g transform="translate(1228.83 396.051)"><path class="ak" d="M1497.132,619.459a.279.279,0,0,0,.225-.113l.66-.89c.192-.206,1.225-1.388.936-2.162a.28.28,0,0,0-.525.2c.125.334-.428,1.158-.842,1.609l-.678.913a.28.28,0,0,0,.225.447Z" transform="translate(-1496.852 -616.113)"/></g><path class="ag" d="M1489.813,606.77a5.592,5.592,0,0,0,1.835.486,2.508,2.508,0,0,1-1.29.119A1.187,1.187,0,0,1,1489.813,606.77Z" transform="translate(-264.468 -215.345)"/><path class="i" d="M1465.947,688.336a7.694,7.694,0,0,0-2.754-.534c-1.068.117-1.623-1.1-1.813-.484s.695,1.252,1.1,1.4-2.1,1.085-2.1,1.085a3.387,3.387,0,0,0,2.638,1.535c1.769.066,4.406-.934,4.707-1.535S1465.947,688.336,1465.947,688.336Z" transform="translate(-249.603 -255.924)"/><path class="r" d="M1484.252,739.281c-.615,1.048-1,2.794-.551,5.707,1.1,7.077,3.6,18.765,5.007,20.83a5.133,5.133,0,0,0,1.2,1.239C1489.7,763.021,1487.929,746.113,1484.252,739.281Z" transform="translate(-261.283 -282.247)"/><g transform="translate(1214.077 432.52)"><path class="ap" d="M1471.958,706.14c.24,7.28-1.942,15.069-4.9,16.877a63.673,63.673,0,0,0,3.36,8.989c2.869-.254,8.477-2.145,10.921-2.784-.954-6.01-2.437-11.719-4.46-15.262-1.433-2.508-.463-22.152.2-24.189C1476.309,691,1471.713,698.7,1471.958,706.14Z" transform="translate(-1467.055 -689.771)"/></g><path class="r" d="M1487.12,642.8c3.642-6.01,8.712-19.58,3.963-21.1.023.184.048.375.075.583.356,2.732-1.113,7.283-1.558,8.979a78.452,78.452,0,0,1-4.807,11.479,19.7,19.7,0,0,1-6.766,7.253c-2.13,1.255-3.272,5.386-3.667,7.111C1477.786,656.235,1483.848,648.2,1487.12,642.8Z" transform="translate(-256.666 -222.88)"/><path class="u" d="M988.8,811.772l.338-1.891,3.144.21-.3.94s3.618,1.742,3.618,3.711c.078.419-7.254.912-8.135-.274C986.845,813.627,988.8,811.772,988.8,811.772Z" transform="translate(-10.782 -317.892)"/><path class="u" d="M1021.024,810.52l.721-1.5,3.041-.819a.77.77,0,0,1,.965.831l-.1.837a3.247,3.247,0,0,0,1.265.649c1.3.335,4.023,1.292,3.587,3.363.079.419-9.555.912-10.436-.274C1019.448,812.764,1021.024,810.52,1021.024,810.52Z" transform="translate(-27.23 -317.029)"/><path class="r" d="M1038.043,620.366l-17,3.677s-.423,7.966,2.624,8.866c6.816,2.011,15.972-5.57,16.321-9.4S1038.043,620.366,1038.043,620.366Z" transform="translate(-27.782 -222.186)"/><path class="i" d="M1006.248,606.222s.46,1.269,1.044,2.486.853,2.426-.283,3.114c-.8.483-3.3-.133-3.527-1.9S1006.248,606.222,1006.248,606.222Z" transform="translate(-18.922 -215.068)"/><g transform="translate(985.118 394.883)"><path class="r" d="M1006.22,614.91a3.413,3.413,0,0,0,2.1-1.155,1.6,1.6,0,0,1-.73,1.87,2.932,2.932,0,0,1-2.969-.77A5.04,5.04,0,0,0,1006.22,614.91Z" transform="translate(-1004.622 -613.755)"/></g><path class="z" d="M995.332,682.944c-4.331,0-8.1-.338-9.813-.5-.189.715-.4,1.465-.646,2.258-1.852,6-.429,22.384-.121,29.9.1,2.447-.706,22.6,1.818,32.01.5,1.855,3.961,1.863,5.357-1.077,3.035-6.4,4.721-42.053,4.453-44.522C996.38,701.021,995.316,688.747,995.332,682.944Z" transform="translate(-9.062 -253.554)"/><path class="i" d="M1037.895,626.6c-1.63,1.116-3.034,1.823-4.017,1.763-2.642-.163-13.636-5.252-15.534-4.842-2.177.47-5.162,4.278-1.9,9.31,1.765,2.726,11.453,7.116,19.348,5.6,2.616-.5,5.511-2.21,8.283-4.487A27.9,27.9,0,0,0,1037.895,626.6Z" transform="translate(-24.743 -223.79)"/><g transform="translate(990.257 403)"><path class="r" d="M1031.737,637.315c-4.546-.433-13.221-5.263-16.491-7.167a7.145,7.145,0,0,0,1.2,6.04c1.765,2.726,11.453,7.116,19.348,5.6,2.616-.5,5.511-2.21,8.283-4.487a21.143,21.143,0,0,0-2.477-3.6C1038.906,635.523,1035.023,637.628,1031.737,637.315Z" transform="translate(-1015 -630.148)"/></g><path class="i" d="M1000.073,617.054a20.828,20.828,0,0,1,.436-3.379,3.759,3.759,0,0,1,1.64-2.514c1.733-1.1,3.761,6.07,2.969,6.621S1000.073,617.054,1000.073,617.054Z" transform="translate(-17.207 -217.505)"/><path class="z" d="M1000.585,608.565l-1.017-.267s-2.5-4.723-.712-6.024,2.887-2.9,5.237-1.013c.748.6-.015,4.485-.375,4.453s-.852.1-1.026.907S1000.585,608.565,1000.585,608.565Z" transform="translate(-16.266 -212.127)"/><path class="z" d="M1024.9,714.412c-1.272-12.263-7.7-30.318-8.635-32.581a56.814,56.814,0,0,1-10.13.8c-.01,3.844-2.111,14.1.566,20.2,1.839,4.191,7.222,9.975,8.143,13.893,1.633,6.949-2.869,24.965-1.588,28.508.811,2.242,3.978,2.734,6.469-.847C1021.382,742.009,1026.492,729.719,1024.9,714.412Z" transform="translate(-19.869 -253.242)"/><path class="u" d="M1026.5,714.412c-1.272-12.263-7.7-30.318-8.635-32.581a55.155,55.155,0,0,1-9.361.8c.743,4.263,2.249,10.216,5.107,12.887,4.7,4.394,8.78,15.332,8.121,22.794-.55,6.231-4.7,22.649-4.153,28.67a5.31,5.31,0,0,0,3.746-2.593C1022.975,742.009,1028.084,729.719,1026.5,714.412Z" transform="translate(-21.462 -253.242)"/><path class="i" d="M1008.373,610.654a.981.981,0,0,0-.624-.87c-.6-.2-.777.563-.153,1.432S1008.6,611.691,1008.373,610.654Z" transform="translate(-20.807 -216.851)"/><path class="ay" d="M1007.033,656.669c-2.342-9.545,5.3-23.029-.974-32.052-5.146-7.4-23.181-6.595-23.371,2.188-.074,3.444-.7,22.877.684,30.012C983.628,658.141,1004.532,659.113,1007.033,656.669Z" transform="translate(-8.327 -221.817)"/><path class="k" d="M1023.2,625.358a11.971,11.971,0,0,0-6.711-4.3c1.58,4.359,5.012,14.4,4.386,17.806-.808,4.4-3.568,4.932-3.466,9.928a66.339,66.339,0,0,1-.969,10.061c3.717-.149,6.858-.585,7.735-1.442C1021.836,647.865,1029.476,634.381,1023.2,625.358Z" transform="translate(-25.472 -222.558)"/><g transform="translate(990.257 399.707)"><path class="ay" d="M1034.327,628.341a2.3,2.3,0,0,1-.449.021c-2.642-.163-13.636-5.252-15.534-4.842-2.177.47-5.162,4.278-1.9,9.31,1.589,2.454,9.6,6.255,16.944,5.88C1034.865,635.222,1034.72,631.166,1034.327,628.341Z" transform="translate(-1015 -623.497)"/></g><path class="z" d="M1027.355,645.58a41.1,41.1,0,0,1-.368,4.8c-2.065-.9-8.079-5.309-7.263-8.16Z" transform="translate(-27.09 -233.241)"/><g transform="translate(998.591 370.681)"><rect class="s" width="32.495" height="30.573" rx="11.335" transform="translate(1.922 1.572)"/><rect class="az" width="32.495" height="30.573" rx="11.335"/><path class="n" d="M1057.691,582.353l-1.121-2.02a1.467,1.467,0,0,1,.357-1.85l3.249-2.641a1.466,1.466,0,0,1,2.2.417l1.714,3.035a2.7,2.7,0,0,1-.052,2.744c-1.98,3.236-7.635,10.877-16.93,10.966a2.712,2.712,0,0,1-2.008-.858l-1.5-1.609a1.5,1.5,0,0,1,.448-2.384l4.312-2.074a1.506,1.506,0,0,1,1.883.489h0a1.539,1.539,0,0,0,1.448.647C1053.407,587,1056.942,586.1,1057.691,582.353Z" transform="translate(-1037.568 -570.245)"/></g><g transform="translate(990.257 403.005)"><path class="k" d="M1026.563,635.448c-2.447-2.139-1.432-.714-4.3-1.164-2.174-.342-5.523-2.9-7.018-4.126a7.146,7.146,0,0,0,1.2,6.035c1.589,2.454,9.6,6.255,16.944,5.88a15.686,15.686,0,0,0,1.115-4.673C1032.049,637.327,1028.2,636.878,1026.563,635.448Z" transform="translate(-1015 -630.158)"/></g><path class="i" d="M1079.127,606.034c-2.682-2.367-11.85,7.43-17.886,11.565a27.9,27.9,0,0,1,6.178,7.341C1074.979,618.728,1081.62,608.233,1079.127,606.034Z" transform="translate(-48.09 -214.79)"/><path class="i" d="M1091.718,602.035c-.072-1.125.685-2.645.722-3.431s-.372-1.511.3-1.191.226,2.186.782,2.325,2.418-2.213,3.616-1.822-.676,1.285-1.407,3.062c-.286.695-.977,2.547-2.212,2.125S1091.766,602.784,1091.718,602.035Z" transform="translate(-63.474 -210.582)"/><path class="r" d="M1083.158,607.049c-1.952,1.173-5.457,7.713-7.522,8.853-2.515,1.387-6.921,6.132-6.921,6.132a21.144,21.144,0,0,1,2.477,3.6C1078.441,619.681,1084.837,609.794,1083.158,607.049Z" transform="translate(-51.863 -215.486)"/><path class="u" d="M995.8,717.911c-5.9-.1-5.213,4.582-4.293,8.492s3.373,11.884,2.607,18.4c-.638,5.422-1.7,16.726-1.29,20.9a4.013,4.013,0,0,0,2.615-2.261c2.578-5.431,4.181-31.959,4.443-41.35a4,4,0,0,0-2.79-4A4.956,4.956,0,0,0,995.8,717.911Z" transform="translate(-12.575 -271.457)"/><path class="g" d="M1218.925,241.38s-27.346,12.435-34.022,15.82-6.409,13.194,7.344,10.123a50.842,50.842,0,0,0,22.58-11.772Z" transform="translate(-108.373 -30.866)"/><path class="aa" d="M1172.461,276.173s-14.218,11.352-12.26,19.759,17.746-5.282,19.6-11.346S1172.461,276.173,1172.461,276.173Z" transform="translate(-97.959 -48.433)"/><rect class="ab" width="32.495" height="30.573" rx="11.335" transform="translate(1065.594 232.213)"/><rect class="ba" width="32.495" height="30.573" rx="11.335" transform="translate(1063.673 230.641)"/><path class="g" d="M1252.617,241.756c8.436.462,8.1,26.534.378,34.7-6.944,7.344-32.885,19.569-34.384,9.614-.935-6.209,19.691-13.092,24.569-20.222C1247.521,259.505,1245.127,241.346,1252.617,241.756Z" transform="translate(-127.528 -31.053)"/><path class="ab" d="M1241.7,221.262a11.646,11.646,0,0,1,2.7-1.871c.965-.311,1.149-2.034,2.192-2.168s1.581,1.3,1.075,2.2,2.558,4.793.747,6.846S1240.869,223.806,1241.7,221.262Z" transform="translate(-139.159 -18.666)"/><path class="z" d="M1239.335,229.048s-1.666.531-2.514-1.607c-.553-1.394.574-4.319,1.477-4.707s.9.507,1.239.854c1.832,1.881,4.739,1.7,5.812,3.379s-.786,3.588-1.749,3.577A21.548,21.548,0,0,1,1239.335,229.048Z" transform="translate(-136.662 -21.404)"/><path class="i" d="M1252.638,233.187l5.207,4.317c.5.787-2.4,5.621-4.266,5.395-.547-.066-.915-.887-1.081-1.922l-.728-5.742Z" transform="translate(-144.284 -26.73)"/><path class="z" d="M1252.065,237.96c.776-.7,1.825-1.66,1.825-1.66a4.435,4.435,0,0,1,.219,3.234,4.251,4.251,0,0,1-1.569,2.176Z" transform="translate(-144.433 -28.301)"/><path class="i" d="M1244.917,230.1l3.121,2.3a2.364,2.364,0,0,1,.284,3.286,6.526,6.526,0,0,1-2.287,1.773c-.931.508-1.958,0-2.759-1.125a12.88,12.88,0,0,1-1.824-3.989C1240.9,230.31,1242.773,228.753,1244.917,230.1Z" transform="translate(-139.025 -24.917)"/><path class="i" d="M1250.231,231.6a3.4,3.4,0,0,0-.134-.705c-.125-.439-.21-1.12.533-.986,1.08.2,1.62,2.571.586,3.059C1250.448,233.327,1250.272,232.2,1250.231,231.6Z" transform="translate(-143.398 -25.064)"/><path class="n" d="M1246.265,238.2a6.382,6.382,0,0,1-1.675,1.272.82.82,0,0,0,.785.3A1.117,1.117,0,0,0,1246.265,238.2Z" transform="translate(-140.659 -29.26)"/><path class="r" d="M1247.973,239.343c.822-.876,2.587.057,3.311-2.536a3.031,3.031,0,0,0-.313-1.648l.068.05a2.364,2.364,0,0,1,.284,3.286,6.527,6.527,0,0,1-2.287,1.773,1.646,1.646,0,0,1-1.737-.117C1247.488,240.058,1247.722,239.611,1247.973,239.343Z" transform="translate(-142.026 -27.726)"/><g transform="translate(1100.781 205.67)"><g transform="translate(0 1.664)"><path class="z" d="M1240.892,237.8l-.054.033a1.913,1.913,0,0,1-1.9.123,1.406,1.406,0,0,1-.713-1.235c-.011-.587.488-1.156,1.446-1.645a1.08,1.08,0,0,1,1.426.428h0C1241.378,235.984,1242.021,237.1,1240.892,237.8Zm-1.373-2.127c-.411.255-.853.627-.845,1.038a.959.959,0,0,0,.486.856,1.477,1.477,0,0,0,1.454-.12c.607-.352.625-.814.1-1.722a.635.635,0,0,0-.837-.254C1239.77,235.527,1239.646,235.6,1239.519,235.674Z" transform="translate(-1238.229 -234.959)"/></g><g transform="translate(2.777)"><path class="z" d="M1246.173,234.582c-1.129.7-1.844-.369-2.152-.83h0a1.08,1.08,0,0,1,.248-1.469c.861-.642,1.593-.838,2.115-.568a1.406,1.406,0,0,1,.792,1.186,1.912,1.912,0,0,1-.949,1.646Zm-1.782-1.077c.583.872,1.011,1.053,1.589.672a1.478,1.478,0,0,0,.751-1.251.958.958,0,0,0-.552-.815c-.479-.248-1.237.226-1.644.53a.635.635,0,0,0-.144.863Z" transform="translate(-1243.837 -231.597)"/></g></g><g transform="translate(1103.096 207.366)"><path class="z" d="M1243.74,235.276l-.02-.254a1,1,0,0,0-.817.521l.238.092C1243.264,235.32,1243.736,235.277,1243.74,235.276Z" transform="translate(-1242.903 -235.022)"/></g><path class="i" d="M1216.664,331.066a3.186,3.186,0,0,0-3.4-1.312l-1.2.29a2.838,2.838,0,0,0-1.248.3,7.022,7.022,0,0,0-2.572,1.847c-.491.945,1.277.055,1.277.055a10,10,0,0,0-1.514,2.061c-.326.792,1.021.344,1.021.344s-.037.5.215.582A18.9,18.9,0,0,0,1213,334.1c.32-.219,4.247-.374,4.239-1.607A2.893,2.893,0,0,0,1216.664,331.066Z" transform="translate(-122.161 -75.439)"/><g transform="translate(1072.524 236.154)"><path class="n" d="M1188.552,293.166a7.4,7.4,0,0,0-7.4,7.4c0,4.085,3.311,12.15,7.4,12.15s7.4-8.065,7.4-12.15A7.4,7.4,0,0,0,1188.552,293.166Zm0,11.145a3.748,3.748,0,1,1,3.748-3.748A3.748,3.748,0,0,1,1188.552,304.311Z" transform="translate(-1181.156 -293.166)"/></g><path class="n" d="M1196.063,306.666a1.6,1.6,0,1,1-1.6-1.6A1.6,1.6,0,0,1,1196.063,306.666Z" transform="translate(-114.542 -63.019)"/><path class="r" d="M1160.776,312.516a2.577,2.577,0,0,0-1.825,2.657c.045,2.189-.21,5.006,1.3,5.444s4.356-1.653,4-2.187-2.509-3.1-2.078-3.265,2.078.417,2.39-.25S1162.2,312.076,1160.776,312.516Z" transform="translate(-97.421 -66.752)"/><path class="n" d="M951.9,436.394c-4.287-2.512-5.259-11.326.388-13.27s9.6-.72,9.6-.72-2.072-3.938-.89-6.833,7.371,2.02,7.371,2.02-1.5-4.1.6-6.126,9.687,1.261,12.938,7.331c0,0,5.283-5.658,11.5-2.266s17.811,18.357,11.285,19.523S956.19,438.907,951.9,436.394Z" transform="translate(8.898 -116.437)"/><path class="bb" d="M1010.21,446.305c2.145-.384,2.332-2.257,1.4-4.721-3.224-2.223-8.126-3.6-11.358-4.523-5.329-1.518-10.267-3.97-13.648-3.152s-2.427,5.527-2.427,5.527-10.135-10.081-12.647-7.979S972.545,438,972.545,438s-9.251-1.634-12.11,2.187c-1.877,2.509-1.066,5.436-.287,7.152C970.611,448.788,1004.411,447.342,1010.21,446.305Z" transform="translate(3.386 -126.687)"/><path class="n" d="M1467.294,320.345s-1.595,4.027,3.442,4.932,16.542-.3,21.813-.4,17.063.806,19.773-.1-.1-5.335-1.965-5.738a7.759,7.759,0,0,0-1.011-.143,5.938,5.938,0,0,1-4.77-3.1c-1.383-2.586-3.811-5.794-7.384-5.914-2.407-.08-3.565.677-4.089,1.614a1.849,1.849,0,0,1-2.806.573c-2.661-2.225-7.073-4.868-12.121-3.7-4.12.956-5.35,2.869-5.55,4.542a4.26,4.26,0,0,1-2.525,3.5A4.552,4.552,0,0,0,1467.294,320.345Z" transform="translate(-252.977 -64.541)"/><path class="n" d="M1567.774,337.1a2.829,2.829,0,0,1,.357-5.572,7.022,7.022,0,0,1,.787-.035c4.208.04,8.605.367,8.085,2.724C1576.614,335.98,1571.925,338.113,1567.774,337.1Z" transform="translate(-302.721 -76.363)"/><path class="bb" d="M1508.313,326.131c-2.625-1.333-8.658-5.153-10.9-5.153s-.871,3.731-.871,3.731-13.859-8.44-17.679-6.308,0,6.308,0,6.308-5.775-.444-8.173,0-2,4.26-2,4.261a4.975,4.975,0,0,0,2.857,1.344c5.037.906,16.542-.3,21.812-.4s17.063.806,19.774-.1a1.572,1.572,0,0,0,.931-.73C1513.146,327.536,1510.293,327.136,1508.313,326.131Z" transform="translate(-253.793 -69.579)"/><path class="am" d="M1577.289,335.946c-1.257-2.719-7.642-1.906-9.591-1.013a2.088,2.088,0,0,0-1.193,2.3,2.814,2.814,0,0,0,1.727,1.175C1572.057,339.341,1576.337,337.6,1577.289,335.946Z" transform="translate(-303.179 -77.671)"/></g></svg>