<svg xmlns="http://www.w3.org/2000/svg" width="150" height="45.041" viewBox="0 0 150 45.041"><defs><style>.a{fill:#fff;}</style></defs><g transform="translate(-230.213 -183.955)"><g transform="translate(348.067 183.955)"><path class="a" d="M547.6,228.661a64.687,64.687,0,0,1,1.611-9.792,93.607,93.607,0,0,1,3-9.985,84.256,84.256,0,0,1,3.961-9.244,53.57,53.57,0,0,1,4.444-7.28H543.4l1.324-8.407,30.823.117s-5.971,10.426-7.625,13.089a72.392,72.392,0,0,0-4.7,9.05,83.644,83.644,0,0,0-3.865,10.854,56.163,56.163,0,0,0-2.029,11.6Z" transform="translate(-543.404 -183.955)"/></g><g transform="translate(230.213 184.251)"><path class="a" d="M332.031,234.74A19.728,19.728,0,0,1,331,241.278,14.206,14.206,0,0,1,328,246.347a13.463,13.463,0,0,1-4.689,3.255,15.638,15.638,0,0,1-6.127,1.153,15.473,15.473,0,0,1-6.07-1.153,13.428,13.428,0,0,1-4.689-3.255,14.877,14.877,0,0,1-3.05-5.069,18.773,18.773,0,0,1-1.094-6.538,18.13,18.13,0,0,1,1.122-6.51,14.771,14.771,0,0,1,3.107-5.012,13.962,13.962,0,0,1,4.718-3.226,16.113,16.113,0,0,1,11.968,0,13.659,13.659,0,0,1,4.689,3.226,14.669,14.669,0,0,1,3.049,5.012A18.556,18.556,0,0,1,332.031,234.74Zm-8.745,0a10.8,10.8,0,0,0-1.583-6.25,5.172,5.172,0,0,0-4.516-2.276,5.244,5.244,0,0,0-4.545,2.276,10.653,10.653,0,0,0-1.612,6.25,10.932,10.932,0,0,0,1.612,6.308,5.2,5.2,0,0,0,4.545,2.333,5.133,5.133,0,0,0,4.516-2.333A11.083,11.083,0,0,0,323.286,234.74Z" transform="translate(-275.164 -206.009)"/><path class="a" d="M413.563,227.613q-1.154.346-2.65.663t-3.139.547q-1.643.229-3.341.374t-3.255.144a19.071,19.071,0,0,1-6.683-1.094,13.416,13.416,0,0,1-4.954-3.139,13.6,13.6,0,0,1-3.081-4.954,18.877,18.877,0,0,1-1.066-6.538,22.389,22.389,0,0,1,.922-6.654,14.472,14.472,0,0,1,2.649-5.04,11.349,11.349,0,0,1,4.234-3.168,14.2,14.2,0,0,1,5.732-1.095,13.515,13.515,0,0,1,3.2.345,17.368,17.368,0,0,1,2.852.98V186.124l8.583-1.383Zm-19.413-14.4a10.511,10.511,0,0,0,1.786,6.394,6.164,6.164,0,0,0,5.3,2.419q1.152,0,2.132-.086t1.612-.2V206.126a7.478,7.478,0,0,0-2.1-.864,10.12,10.12,0,0,0-2.622-.345Q394.151,204.917,394.15,213.212Z" transform="translate(-326.999 -184.741)"/><path class="a" d="M463.9,234.872a18.461,18.461,0,0,1,1.235-7.032,15.066,15.066,0,0,1,3.243-5.022,13.49,13.49,0,0,1,4.62-3.042,14.471,14.471,0,0,1,5.367-1.033q6.427,0,10.159,3.932t3.732,11.565c0,.5-.02,1.043-.058,1.636s-.076,1.12-.115,1.579h-19.4a5.682,5.682,0,0,0,2.468,4.19,9.922,9.922,0,0,0,5.855,1.549,24.676,24.676,0,0,0,4.62-.43,17.392,17.392,0,0,0,3.7-1.062l1.148,6.945a11.809,11.809,0,0,1-1.837.689,24.042,24.042,0,0,1-2.554.6q-1.407.259-3.014.43a30.054,30.054,0,0,1-3.214.173,19.021,19.021,0,0,1-7.088-1.206,13.8,13.8,0,0,1-4.994-3.3,13.088,13.088,0,0,1-2.927-4.965A19.646,19.646,0,0,1,463.9,234.872Zm20.09-3.272a8.893,8.893,0,0,0-.374-2.123,5.331,5.331,0,0,0-.975-1.837,5.229,5.229,0,0,0-1.665-1.32,5.428,5.428,0,0,0-2.5-.516,5.739,5.739,0,0,0-2.469.488,5.107,5.107,0,0,0-1.721,1.291,5.774,5.774,0,0,0-1.062,1.865,12.2,12.2,0,0,0-.546,2.152Z" transform="translate(-375.967 -205.948)"/><path class="a" d="M252.942,241.553q-.535.247-1.194.535a9.8,9.8,0,0,1-1.428.481,18.009,18.009,0,0,1-1.916.379,16.758,16.758,0,0,1-2.428.158,8.4,8.4,0,0,1-3.51-.659,6.054,6.054,0,0,1-2.277-1.753A7.177,7.177,0,0,1,238.914,238a14.476,14.476,0,0,1-.414-3.538,11.274,11.274,0,0,1,.616-3.974,7.255,7.255,0,0,1,1.594-2.581,5.908,5.908,0,0,1,2.249-1.421,8.151,8.151,0,0,1,2.683-.457,14.118,14.118,0,0,1,3.809.471,15.062,15.062,0,0,1,2.951,1.147l.787.417,2.382-6.671-.527-.329c-.248-.154-.622-.356-1.145-.618a13.818,13.818,0,0,0-1.988-.775,22.633,22.633,0,0,0-2.718-.648,19.7,19.7,0,0,0-3.469-.283,17.666,17.666,0,0,0-6.138,1.047,13.7,13.7,0,0,0-4.939,3.111,14.594,14.594,0,0,0-3.256,5.009,17.935,17.935,0,0,0-1.18,6.679c0,4.984,1.311,8.9,3.9,11.647s6.394,4.157,11.285,4.157a23.461,23.461,0,0,0,5.987-.692,15.758,15.758,0,0,0,4.075-1.585Z" transform="translate(-230.213 -205.948)"/></g></g></svg>