<svg xmlns="http://www.w3.org/2000/svg" width="20" height="19.998" viewBox="0 0 20 19.998"><defs><style>.a{fill:#8e90a9;opacity:0.8;}</style></defs><path class="a" d="M694.253,385.02a.588.588,0,0,0-.484-.584l-2.246-.375-.047-.2a7.306,7.306,0,0,0-.622-1.658l-.093-.18,1.437-1.779a.59.59,0,0,0-.018-.767l-.813-.914a.589.589,0,0,0-.761-.109l-1.92,1.209-.169-.121a7.36,7.36,0,0,0-2.477-1.116l-.2-.048-.376-2.255a.588.588,0,0,0-.583-.495h-1.226a.587.587,0,0,0-.583.495l-.377,2.258-.2.048a7.43,7.43,0,0,0-2.08.863l-.175.106-1.825-1.31a.59.59,0,0,0-.763.063l-.866.866a.588.588,0,0,0-.063.762l1.307,1.832-.106.175a7.442,7.442,0,0,0-.859,2.066l-.049.2-2.264.38a.591.591,0,0,0-.5.584v1.223a.592.592,0,0,0,.5.584l2.265.379.048.2a7.43,7.43,0,0,0,.658,1.727l.1.181-1.437,1.773a.59.59,0,0,0,.018.764l.813.915a.592.592,0,0,0,.759.108l1.946-1.221.168.115a7.416,7.416,0,0,0,2.409,1.068l.2.047.377,2.257a.589.589,0,0,0,.582.495h1.223a.621.621,0,0,0,.584-.495l.376-2.257.2-.048a7.365,7.365,0,0,0,2.056-.847l.174-.106,1.9,1.357a.588.588,0,0,0,.762-.063l.867-.866a.584.584,0,0,0,.063-.761l-1.358-1.9.106-.175a7.288,7.288,0,0,0,.86-2.072l.05-.2,2.246-.375a.589.589,0,0,0,.5-.584Zm-9.961,4.092a3.482,3.482,0,1,1,3.482-3.482A3.482,3.482,0,0,1,684.292,389.112Z" transform="translate(-674.259 -375.629)"/></svg>