<svg xmlns="http://www.w3.org/2000/svg" width="60" height="60" viewBox="0 0 60 60"><defs><style>.a{fill:#482fae;}.b{fill:#fff;}</style></defs><g transform="translate(-781.45 -384.82)"><path class="a" d="M877.981,377.987H858.15a20.144,20.144,0,0,0-20.085,20.084v39.916h39.916A20.144,20.144,0,0,0,898.065,417.9V398.071A20.143,20.143,0,0,0,877.981,377.987Z" transform="translate(-56.615 6.833)"/><g transform="translate(791.608 407.99)"><path class="b" d="M845.609,401.494a8.183,8.183,0,0,1,.487-2.833,6.782,6.782,0,0,1,1.41-2.319,6.7,6.7,0,0,1,2.239-1.567,7.388,7.388,0,0,1,3-.58,9.779,9.779,0,0,1,2.029.2,10.017,10.017,0,0,1,1.792.568l-.817,3.135a9.724,9.724,0,0,0-1.212-.369,6.368,6.368,0,0,0-1.476-.157,3.111,3.111,0,0,0-2.6,1.08,4.452,4.452,0,0,0-.856,2.846,4.613,4.613,0,0,0,.8,2.9,3.37,3.37,0,0,0,2.806,1.027,9.8,9.8,0,0,0,1.528-.131,6.52,6.52,0,0,0,1.5-.423l.555,3.214a9.164,9.164,0,0,1-1.714.5,11.223,11.223,0,0,1-2.265.21,8.545,8.545,0,0,1-3.268-.566,6.165,6.165,0,0,1-2.253-1.542,6,6,0,0,1-1.29-2.305A9.758,9.758,0,0,1,845.609,401.494Z" transform="translate(-845.609 -394.195)"/><g transform="translate(12.515 0.079)"><path class="b" d="M863.256,398.022c-.351-.089-.763-.18-1.237-.277a7.739,7.739,0,0,0-1.529-.144,7.222,7.222,0,0,0-.882.066,5.475,5.475,0,0,0-.777.144V408.4H854.9V395.281a23.783,23.783,0,0,1,2.49-.7,14.276,14.276,0,0,1,3.2-.33c.21,0,.464.012.764.039s.6.062.9.106.6.1.9.156a4.376,4.376,0,0,1,.764.225Z" transform="translate(-854.904 -394.254)"/></g><g transform="translate(22.316 0.054)"><path class="b" d="M869.8,401.059a5.414,5.414,0,0,0-.488-2.688,1.81,1.81,0,0,0-1.674-.792c-.245,0-.5.015-.763.04s-.518.057-.764.092v10.7h-3.926V395.024c.333-.086.725-.179,1.173-.276s.922-.186,1.423-.263,1.014-.141,1.54-.186,1.045-.065,1.555-.065a6.55,6.55,0,0,1,2.437.381,5.491,5.491,0,0,1,1.541.909,7.347,7.347,0,0,1,3.953-1.29,6.936,6.936,0,0,1,2.727.46,4.1,4.1,0,0,1,1.7,1.3,4.931,4.931,0,0,1,.87,2,12.984,12.984,0,0,1,.237,2.583v7.826h-3.926v-7.35a5.418,5.418,0,0,0-.486-2.688,1.811,1.811,0,0,0-1.674-.792,4.27,4.27,0,0,0-1.818.553,6.164,6.164,0,0,1,.237,1.279c.034.447.053.925.053,1.434v7.563H869.8Z" transform="translate(-862.183 -394.235)"/></g></g></g></svg>