<svg xmlns="http://www.w3.org/2000/svg" width="59.999" height="60" viewBox="0 0 59.999 60"><defs><style>.a{fill:#7929ce;}.b{fill:#fff;}</style></defs><g transform="translate(-896.21 -384)"><path class="a" d="M1027.74,377.167h-19.831a20.143,20.143,0,0,0-20.084,20.084v39.916h39.915a20.144,20.144,0,0,0,20.084-20.085V397.251A20.143,20.143,0,0,0,1027.74,377.167Z" transform="translate(-91.615 6.833)"/><g transform="translate(912.733 403.468)"><path class="b" d="M1012.979,411.624q-.527.158-1.212.3c-.456.1-.936.182-1.435.25s-1.011.128-1.528.171-1.014.067-1.489.067a8.7,8.7,0,0,1-3.055-.5,6.148,6.148,0,0,1-2.268-1.435,6.237,6.237,0,0,1-1.408-2.268,8.624,8.624,0,0,1-.487-2.989,10.239,10.239,0,0,1,.421-3.044,6.628,6.628,0,0,1,1.212-2.3,5.182,5.182,0,0,1,1.936-1.45,6.489,6.489,0,0,1,2.622-.5,6.178,6.178,0,0,1,1.462.159,8.053,8.053,0,0,1,1.305.447v-6.27l3.925-.632Zm-8.879-6.588a4.8,4.8,0,0,0,.818,2.924,2.815,2.815,0,0,0,2.424,1.107c.351,0,.676-.012.975-.039s.544-.057.738-.092V401.8a3.438,3.438,0,0,0-.962-.4,4.653,4.653,0,0,0-1.2-.159Q1004.1,401.241,1004.1,405.036Z" transform="translate(-1000.096 -391.626)"/><g transform="translate(14.438 6.218)"><path class="b" d="M1015.614,407.651a3.93,3.93,0,0,0,1.528-.21.813.813,0,0,0,.448-.817,1,1,0,0,0-.58-.829,11.046,11.046,0,0,0-1.765-.8,17.916,17.916,0,0,1-1.672-.711,4.931,4.931,0,0,1-1.279-.883,3.555,3.555,0,0,1-.816-1.224,4.53,4.53,0,0,1-.291-1.713,3.7,3.7,0,0,1,1.45-3.083,6.3,6.3,0,0,1,3.978-1.132,12.765,12.765,0,0,1,2.425.224,11.406,11.406,0,0,1,1.845.487l-.685,3.057a14.442,14.442,0,0,0-1.489-.421,8.109,8.109,0,0,0-1.8-.184q-1.844,0-1.845,1.027a1.081,1.081,0,0,0,.08.423.912.912,0,0,0,.315.356,4.611,4.611,0,0,0,.646.369q.408.2,1.041.439a15.955,15.955,0,0,1,2.134.943,5.13,5.13,0,0,1,1.33,1,3.084,3.084,0,0,1,.686,1.2,5.3,5.3,0,0,1,.2,1.526,3.514,3.514,0,0,1-1.542,3.1,7.7,7.7,0,0,1-4.361,1.05,12.3,12.3,0,0,1-4.768-.842l.658-3.189a12.93,12.93,0,0,0,2.055.618A9.978,9.978,0,0,0,1015.614,407.651Z" transform="translate(-1010.819 -396.244)"/></g></g></g></svg>