<svg xmlns="http://www.w3.org/2000/svg" width="60" height="60" viewBox="0 0 60 60"><defs><style>.a{fill:#feaa26;}</style></defs><path class="a" d="M752.548,710.266l-5.217-.872a22.487,22.487,0,0,0-1.5-4l3.344-4.144a3.412,3.412,0,0,0-.105-4.425l-2.3-2.581a3.417,3.417,0,0,0-4.388-.627l-4.45,2.8a22.5,22.5,0,0,0-6.533-2.947l-.875-5.236a3.406,3.406,0,0,0-3.374-2.863h-3.468a3.4,3.4,0,0,0-3.374,2.861l-.876,5.243a22.526,22.526,0,0,0-5.3,2.2l-4.234-3.019a3.419,3.419,0,0,0-4.413.368l-2.446,2.445a3.409,3.409,0,0,0-.361,4.407l3.027,4.242a22.655,22.655,0,0,0-2.187,5.262l-5.266.883a3.41,3.41,0,0,0-2.865,3.376v3.453a3.416,3.416,0,0,0,2.864,3.378l5.266.881a22.536,22.536,0,0,0,1.6,4.2l-3.335,4.114a3.412,3.412,0,0,0,.105,4.425l2.294,2.585a3.422,3.422,0,0,0,4.388.625l4.532-2.846a22.576,22.576,0,0,0,6.332,2.811l.876,5.236a3.407,3.407,0,0,0,3.372,2.863h3.456a3.409,3.409,0,0,0,3.377-2.862l.875-5.24a22.553,22.553,0,0,0,5.242-2.166l4.429,3.163a3.407,3.407,0,0,0,4.411-.363l2.448-2.445a3.4,3.4,0,0,0,.363-4.41l-3.165-4.417a22.554,22.554,0,0,0,2.191-5.284l5.209-.87a3.406,3.406,0,0,0,2.869-3.378v-3.457A3.414,3.414,0,0,0,752.548,710.266Zm1.081,6.835a1.665,1.665,0,0,1-1.4,1.65l-6.343,1.06-.138.559a20.675,20.675,0,0,1-2.427,5.853l-.3.494,3.835,5.354a1.652,1.652,0,0,1-.177,2.149l-2.448,2.446a1.661,1.661,0,0,1-2.152.177l-5.363-3.832-.492.3a20.8,20.8,0,0,1-5.815,2.4l-.561.137-1.064,6.373a1.754,1.754,0,0,1-1.649,1.4H723.68a1.661,1.661,0,0,1-1.644-1.4l-1.065-6.373-.562-.135A20.889,20.889,0,0,1,713.6,732.7l-.473-.324-5.5,3.45a1.671,1.671,0,0,1-2.145-.3l-2.294-2.586a1.663,1.663,0,0,1-.053-2.159l4.057-5.007-.272-.511a20.9,20.9,0,0,1-1.858-4.877l-.137-.56-6.4-1.07a1.67,1.67,0,0,1-1.4-1.651v-3.453a1.666,1.666,0,0,1,1.4-1.65l6.4-1.072.138-.557a20.944,20.944,0,0,1,2.426-5.833l.3-.5L704.1,698.86a1.663,1.663,0,0,1,.175-2.152l2.445-2.445a1.669,1.669,0,0,1,2.156-.179l5.168,3.683.494-.3a20.928,20.928,0,0,1,5.874-2.438l.561-.137,1.066-6.376a1.658,1.658,0,0,1,1.645-1.4h3.465a1.662,1.662,0,0,1,1.647,1.4l1.062,6.371.561.137a20.785,20.785,0,0,1,6.994,3.154l.477.331,5.424-3.41a1.668,1.668,0,0,1,2.147.307l2.3,2.581a1.67,1.67,0,0,1,.052,2.164l-4.059,5.026.265.508a20.8,20.8,0,0,1,1.756,4.684l.135.561,6.342,1.059a1.667,1.667,0,0,1,1.379,1.65Z" transform="translate(-695.382 -685.369)"/><path class="a" d="M717.366,695.763a11.547,11.547,0,1,0,11.549,11.547A11.56,11.56,0,0,0,717.366,695.763Zm0,21.381a9.833,9.833,0,1,1,9.835-9.833A9.844,9.844,0,0,1,717.366,717.144Z" transform="translate(-687.27 -677.312)"/></svg>