<svg xmlns="http://www.w3.org/2000/svg" xmlns:xlink="http://www.w3.org/1999/xlink" width="139.466" height="130" viewBox="0 0 139.466 130"><defs><style>.a{fill:#8cc4b8;}.b{fill:#6ba599;}.c{fill:#202583;}.d{fill:#151a4e;}.e{fill:#f3f3f6;}.f{fill:#f49400;}.g{fill:#d6dae0;}.h{fill:#515f75;}.i{fill:#fff;}.j{fill:#d7dadb;}.k{fill:#f2f3f5;}.l,.n{fill:#979fac;}.m{fill:#505e74;opacity:0.5;}.m,.n{isolation:isolate;}.n{opacity:0.4;}.o{fill:#cacfd5;}.p{fill:#d1e7f0;}.q{fill:#2a214f;}.r{fill:url(#a);}.s{fill:#fb7a8e;}.t{fill:#d96b7c;}.u{fill:#311e69;}.v{fill:#1e1240;}.w{fill:#2e2e3d;}.x{fill:#232327;}</style><linearGradient id="a" x1="-6.909" y1="6.651" x2="-6.847" y2="6.651" gradientUnits="objectBoundingBox"><stop offset="0" stop-color="gray"/><stop offset="0.093" stop-color="#6f6f6f"/><stop offset="0.388" stop-color="#3f3f3f"/><stop offset="0.648" stop-color="#1c1c1c"/><stop offset="0.86" stop-color="#070707"/><stop offset="1"/></linearGradient></defs><g transform="translate(-241.728 -25.628)"><g transform="translate(241.728 25.628)"><g transform="translate(0 58.051)"><path class="a" d="M272.194,361.6s5.734-18.859,4.628-26.247-7.44,7.065-6.66-3.658,1.059-21.831-1.934-23.217-2.92,20.314-2.92,20.314-7.677-29.56-14.066-26.668,1.734,25.9.922,26.393c-.488.3-6.891-17.624-10.106-13.918C238.981,318.144,258.152,368.071,272.194,361.6Z" transform="translate(-241.728 -301.924)"/><path class="b" d="M305.072,308.485c-2.993-1.385-2.92,20.314-2.92,20.314s-7.45-28.684-13.78-26.775a7.717,7.717,0,0,0,1.131,3.511c1.519,2.212,2.353,1.762,3.688,5.03s2.239,8.986,4.071,13.384,6.264,9.26,6.678,13.769-.9,9.311-.576,13.106a105.385,105.385,0,0,0,1.672,11.212,6.275,6.275,0,0,0,4-.43s5.734-18.859,4.628-26.247-7.44,7.065-6.66-3.658S308.066,309.87,305.072,308.485Z" transform="translate(-278.572 -301.931)"/></g><g transform="translate(91.891 56.697)"><path class="b" d="M684.418,357.777s-7.778-8.608-4.55-11.706,8.692-.31,9.861-2.8-4.139-14.375,1.584-15.418,9.52-2.081,11.378-5.355-6.557-16.238.581-16.549,6.405,3.839,10.18.376,5.335-13.282,9.386-10.279-8.749,16.682-3.337,18.746,8.593,1.836,6.518,6.87-11.542,6.287-12.558,8.995,5.794-.789,6.838,3.855-14.618,6.606-15,9.994,8.192,8.388.321,11.49S694.439,364.085,684.418,357.777Z" transform="translate(-679.083 -295.479)"/><path class="a" d="M728.153,362.394c-1.566.82-4.809-.187-3.505-1.854s1.3-3.11,1.92-5.9,3.09-1.933,5.719-2.248,5.323-2.907,6.077-4.045-.934-2.641-3.2-2.768-4.5-.968-4.7-3.524,2.981-9.607,1.915-10.9-3.741,4.012-5.521,5.766-4.2.607-6.069-.411-3.061-.375-4.848,1,2.715,7.426,2.857,11.655-1.436,5.964-3.925,5.671-1.591.929-3.843,2.848-3.771.042-6.205,1.515,1.809,10.381,1.136,12.981-1.866,2.456-5.32,1.794-3.328,1.072-3.814,4.041c-.378,2.308,1.535,6.526,2.407,8.293,3.312,1.949,5.872,2.61,8.134,2.517,2.646-1.9,6.4-4.5,7.271-5.565,1.373-1.68,3.425-1.219,5.613-3.6s-.546-2.486-2.191-3.978-1.591-2.4-.408-5.536,4.252-2.826,6.54-3.939,8.26-2.56,8.166-4.156S729.718,361.573,728.153,362.394Z" transform="translate(-693.061 -323.497)"/></g><g transform="translate(21.47 0)"><g transform="translate(0 0.185)"><path class="c" d="M350.67,37.187l.065-10.678h-3.241c-1.978,0-3.579,2.352-3.579,5.339s1.587,5.339,3.565,5.339Z" transform="translate(-343.916 -26.509)"/><g transform="translate(3.205 0)"><ellipse class="d" cx="3.581" cy="5.339" rx="3.581" ry="5.339"/></g></g><g transform="translate(4.391 2.854)"><path class="d" d="M365.572,39.214h76.737a.758.758,0,0,1,.758.758v3.822a.758.758,0,0,1-.758.758H365.572a.758.758,0,0,1-.758-.758h0V39.972a.758.758,0,0,1,.758-.758Z" transform="translate(-364.814 -39.214)"/></g><g transform="translate(6.768 7.157)"><rect class="e" width="72.05" height="112.294"/></g><g transform="translate(77.265 0.185)"><path class="c" d="M718.417,37.187l.065-10.678H715.24c-1.978,0-3.578,2.352-3.578,5.339s1.587,5.339,3.564,5.339Z" transform="translate(-711.662 -26.509)"/><g transform="translate(3.205 0)"><ellipse class="d" cx="3.581" cy="5.339" rx="3.581" ry="5.339"/></g></g><g transform="translate(4.391 116.781)"><path class="d" d="M365.572,581.451h76.737a.758.758,0,0,1,.758.758v3.822a.758.758,0,0,1-.758.758H365.572a.758.758,0,0,1-.758-.758h0v-3.822a.758.758,0,0,1,.758-.758Z" transform="translate(-364.814 -581.451)"/></g><g transform="translate(61.382 38.1)"><path class="f" d="M639.891,206.968H644.7a3.826,3.826,0,0,1,3.826,3.826h0v3.252a.574.574,0,0,1-.574.574h-8.061a3.826,3.826,0,1,1,0-7.652Z" transform="translate(-636.065 -206.968)"/></g><g transform="translate(59.415 60.84)"><path class="f" d="M630.422,315.2h7a3.717,3.717,0,0,1,3.717,3.717h0v3.159a.558.558,0,0,1-.558.558H630.422a3.717,3.717,0,1,1,0-7.434Z" transform="translate(-626.705 -315.198)"/></g><g transform="translate(11.911 47.066)"><path class="g" d="M404.979,249.638H440.4a4.373,4.373,0,0,1,4.373,4.373v3.716A4.373,4.373,0,0,1,440.4,262.1H401.262a.656.656,0,0,1-.656-.656v-7.434a4.373,4.373,0,0,1,4.373-4.373Z" transform="translate(-400.606 -249.638)"/></g><g transform="translate(11.911 71.161)"><path class="g" d="M404.979,364.318H443.9a4.373,4.373,0,0,1,4.373,4.373v3.716a4.373,4.373,0,0,1-4.373,4.373H401.262a.656.656,0,0,1-.656-.656v-7.434a4.373,4.373,0,0,1,4.373-4.373Z" transform="translate(-400.606 -364.318)"/></g><g transform="translate(11.867 87.299)"><path class="g" d="M403.127,441.128h4.412a2.731,2.731,0,0,1,2.731,2.731h0a2.731,2.731,0,0,1-2.731,2.731h-6.734a.41.41,0,0,1-.41-.41h0v-2.322A2.731,2.731,0,0,1,403.127,441.128Z" transform="translate(-400.396 -441.128)"/></g><g transform="translate(14.179 89.4)"><ellipse class="h" cx="0.525" cy="0.63" rx="0.525" ry="0.63"/><circle class="h" cx="0.525" cy="0.525" r="0.525" transform="translate(2.101)"/><circle class="h" cx="0.63" cy="0.63" r="0.63" transform="translate(4.202)"/></g><g transform="translate(19.537)"><path class="i" d="M440.124,26.128h36.3a2.722,2.722,0,0,1,2.722,2.722h0V48.632a2.722,2.722,0,0,1-2.722,2.722h-36.3a2.722,2.722,0,0,1-2.722-2.722h0V28.85A2.722,2.722,0,0,1,440.124,26.128Z" transform="translate(-437.297 -26.023)"/><path class="j" d="M476.027,51.065h-36.3a2.831,2.831,0,0,1-2.827-2.827V28.455a2.831,2.831,0,0,1,2.827-2.827h36.3a2.831,2.831,0,0,1,2.827,2.827V48.237A2.831,2.831,0,0,1,476.027,51.065Zm-36.3-25.227a2.62,2.62,0,0,0-2.617,2.617V48.237a2.62,2.62,0,0,0,2.617,2.617h36.3a2.62,2.62,0,0,0,2.617-2.617V28.455a2.62,2.62,0,0,0-2.617-2.617Z" transform="translate(-436.902 -25.628)"/><path class="j" d="M437.4,56.361h41.742v.182H437.4Z" transform="translate(-437.297 -49.904)"/><path class="k" d="M452.174,70.181h32.668A1.815,1.815,0,0,1,486.656,72h0v9.619a1.815,1.815,0,0,1-1.815,1.815H450.722a.363.363,0,0,1-.363-.363h0V72A1.815,1.815,0,0,1,452.174,70.181Z" transform="translate(-447.532 -60.82)"/><g transform="translate(36.873 3.046)"><circle class="l" cx="0.21" cy="0.21" r="0.21" transform="translate(1.681)"/><circle class="l" cx="0.21" cy="0.21" r="0.21"/><circle class="l" cx="0.21" cy="0.21" r="0.21" transform="translate(0.84)"/></g><rect class="m" width="29.835" height="2.311" transform="translate(4.727 15.022)"/><rect class="m" width="15.758" height="2.311" transform="translate(4.727 11.451)"/><rect class="n" width="25.423" height="2.311" transform="translate(3.046 2.206)"/></g><g transform="translate(36.976 94.127)"><path class="i" d="M523.124,474.128h36.3a2.722,2.722,0,0,1,2.722,2.722h0v19.782a2.722,2.722,0,0,1-2.722,2.722h-36.3a2.722,2.722,0,0,1-2.722-2.722h0V476.85A2.722,2.722,0,0,1,523.124,474.128Z" transform="translate(-520.297 -474.023)"/><path class="j" d="M559.027,499.065h-36.3a2.831,2.831,0,0,1-2.827-2.827V476.455a2.831,2.831,0,0,1,2.827-2.827h36.3a2.831,2.831,0,0,1,2.827,2.827v19.782A2.831,2.831,0,0,1,559.027,499.065Zm-36.3-25.227a2.62,2.62,0,0,0-2.617,2.617v19.782a2.62,2.62,0,0,0,2.617,2.617h36.3a2.62,2.62,0,0,0,2.617-2.617V476.455a2.62,2.62,0,0,0-2.617-2.617Z" transform="translate(-519.902 -473.628)"/><path class="j" d="M520.4,504.361h41.742v.182H520.4Z" transform="translate(-520.297 -497.904)"/><path class="k" d="M535.174,518.181h32.668A1.815,1.815,0,0,1,569.656,520h0v9.619a1.815,1.815,0,0,1-1.815,1.815H533.722a.363.363,0,0,1-.363-.363h0V520A1.815,1.815,0,0,1,535.174,518.181Z" transform="translate(-530.532 -508.82)"/><g transform="translate(36.873 3.046)"><circle class="l" cx="0.21" cy="0.21" r="0.21" transform="translate(1.681)"/><circle class="l" cx="0.21" cy="0.21" r="0.21"/><circle class="l" cx="0.21" cy="0.21" r="0.21" transform="translate(0.84)"/></g><rect class="m" width="29.835" height="2.311" transform="translate(4.727 15.022)"/><rect class="m" width="15.758" height="2.311" transform="translate(4.727 11.451)"/><rect class="n" width="25.423" height="2.311" transform="translate(3.047 2.206)"/></g><g transform="translate(40.251 25.337)"><path class="o" d="M660.3,202.64l-1.177-1.177a.315.315,0,1,1,.446-.446l.731.731.731-.731a.315.315,0,0,1,.446.446Z" transform="translate(-633.074 -189.432)"/><path class="o" d="M563.031,158.858h-.63c0-3.5-6.747-4.8-13.272-6.063-7.014-1.356-13.639-2.638-13.639-6.574h.63c0,3.416,6.674,4.707,13.128,5.956C556.336,153.548,563.031,154.842,563.031,158.858Z" transform="translate(-535.49 -146.221)"/></g><g transform="translate(21.297 89.085)"><path class="o" d="M446.681,452.166a.314.314,0,0,1-.223-.092l-1.177-1.177,1.177-1.177a.315.315,0,1,1,.446.446l-.731.731.731.731a.315.315,0,0,1-.223.538Z" transform="translate(-445.281 -449.627)"/><path class="o" d="M463.214,474.672c-4.657,0-6.276-5.136-7.842-10.1-1.584-5.024-3.08-9.769-7.37-9.769v-.63c4.752,0,6.388,5.19,7.971,10.21,1.567,4.969,3.046,9.663,7.241,9.663Z" transform="translate(-447.43 -453.214)"/></g></g><g transform="translate(84.309 51.178)"><path class="p" d="M778.324,625.25l-.161-.7,1.526-.191.2,1.415s.983,1.371.693,2.009c-.409.9-6.152.666-6.278-.332C774.051,625.487,778.324,625.25,778.324,625.25Z" transform="translate(-746.704 -549.74)"/><g transform="translate(0 3.76)"><rect class="q" width="11.942" height="16.849" rx="3.264" transform="translate(0 2.23) rotate(-10.762)"/><path class="i" d="M645.617,290.689a1.143,1.143,0,0,1,.231-.069l8.4-1.6a1.166,1.166,0,0,1,1.364.927h0l2.513,13.219a1.167,1.167,0,0,1-.928,1.364l-8.4,1.6a1.166,1.166,0,0,1-1.363-.928h0l-2.513-13.218a1.169,1.169,0,0,1,.7-1.3m-.2-.49a1.7,1.7,0,0,0-1.015,1.884l2.513,13.219a1.7,1.7,0,0,0,1.984,1.35h0l8.4-1.6a1.728,1.728,0,0,0,.334-.1,1.7,1.7,0,0,0,1.016-1.884l-2.513-13.218a1.7,1.7,0,0,0-1.984-1.35h0l-8.4,1.6a1.732,1.732,0,0,0-.335.1Z" transform="translate(-644.082 -288.186)"/><path class="r" d="M659.577,292.8l-3.913,11.868.53,2.785,5.553-15.065Z" transform="translate(-653.003 -291.275)"/></g><path class="s" d="M761.763,278.119l.423,2a1.247,1.247,0,0,1-1.041,1.394,3.448,3.448,0,0,1-1.524-.105c-.545-.126-.771-.687-.692-1.411a6.809,6.809,0,0,1,.68-2.212C760.107,276.792,761.391,276.835,761.763,278.119Z" transform="translate(-734.56 -275.436)"/><path class="t" d="M762.187,290.286l-.014-.067a1.244,1.244,0,0,1-.99.85,3.456,3.456,0,0,1-1.524-.1.98.98,0,0,1-.7-1c-.01.067-.019.134-.027.2-.078.723.147,1.284.692,1.411a3.448,3.448,0,0,0,1.523.105A1.247,1.247,0,0,0,762.187,290.286Z" transform="translate(-734.561 -285.603)"/><path class="s" d="M764.018,288.492l.932,3.447c-.94,1.356-3.636.035-3.338-.431l1.727-2.518Z" transform="translate(-736.673 -284.441)"/><path class="u" d="M762.4,274.9a1.261,1.261,0,0,0,1.263-.742c.357-.842.871-2.19.657-2.824-.193-.57-.67-1.775-1.78-2.021-3.712-.821-2.3,3.33-2.017,3.552S761.2,274.815,762.4,274.9Z" transform="translate(-735.434 -269.21)"/><path class="v" d="M761.335,269.32c-.217.647-.588,1.976-.166,2.385a3.6,3.6,0,0,0,3.171.448,9.7,9.7,0,0,1-.677,2.1,1.261,1.261,0,0,1-1.263.742c-1.195-.091-1.589-1.812-1.877-2.035C760.273,272.764,759.179,269.6,761.335,269.32Z" transform="translate(-735.437 -269.297)"/><path class="s" d="M762.185,285.523s.044-.74.37-.466.042,1.152-.137,1.206S762.169,285.894,762.185,285.523Z" transform="translate(-737.142 -281.679)"/><path class="p" d="M713.682,627.761h0a.26.26,0,0,1,.189-.316.25.25,0,0,1,.063-.008l2.03-.006a.26.26,0,0,1,.234.375s.68,2.233.327,2.651c-.584.689-5.629.686-6.947.122a.259.259,0,0,1-.149-.3c.4-1.676,3.117-2.1,4.031-2.2a.26.26,0,0,0,.229-.286A.242.242,0,0,0,713.682,627.761Z" transform="translate(-695.466 -552.168)"/><path class="w" d="M705.45,398.027s9.1-.782,9.1-1.129c3.481,0,4.469-.723,5.846-.84a7.737,7.737,0,0,1,1.428,4.159c.544,4.637,1.095,33.624,3,44.372.269,1.52-3.68,1.954-5.913.6-4.028-2.449-5.535-26.612-5.8-33.789,0,0-3.538,6.369-4.116,11.417-.651,5.673,2.185,17.3,3.393,21.809.287,1.072-1.1,1.593-4.521,1.165a8.3,8.3,0,0,1-1.686-.395,2.415,2.415,0,0,1-1.537-1.681c-1.021-3.906-4.34-16.982-4.34-21.844C700.306,413.958,705.45,398.027,705.45,398.027Z" transform="translate(-688.266 -369.406)"/><path class="u" d="M716.861,421.826c-.222.758-.466,1.612-.72,2.531,1.553,1.318,4.84,3.116,10.195,1.415C732.709,423.746,721.65,420.823,716.861,421.826Z" transform="translate(-700.774 -389.6)"/><path class="p" d="M716.006,319.26a2.488,2.488,0,0,0-1.7-4.427,16.129,16.129,0,0,1-5.08-.231c-3.065-1.018-10.872-4.382-11.838-2.76-1.982,3.33,6.767,8.78,12.108,9.8C711.708,322.068,714.038,320.841,716.006,319.26Z" transform="translate(-685.733 -302.542)"/><path class="x" d="M781.413,454.961c-1.9-10.747-2.456-39.734-3-44.372-.064-.543-.142-1-.227-1.4-1.867.765-3.729,2.024-3.866,4.029-.283,4.1.2,6.959-.707,7.4-2.641,1.272-1.555,1.3-.706,4.829s2.935,11.1,2.7,16.187c-.186,4.088.008,11.463,2.147,14.677C779.686,456.567,781.6,456.035,781.413,454.961Z" transform="translate(-744.856 -379.779)"/><path class="e" d="M717.959,328.939a1.633,1.633,0,0,1-.489-1.77c2.93-9.049-1.994-18.261.207-21.137,4.739-6.193,14.015-4.776,16.493-1.813,3.223,3.852,3.721,14.274,1.75,23.843a2.964,2.964,0,0,1-1.021,1.712C731.105,332.833,721.36,331.674,717.959,328.939Z" transform="translate(-701.524 -294.867)"/><path class="u" d="M721.946,380.939c1.157-.7,2.651-2.319,2.064-5.9-.282-1.721-1.105-2.181-1.987-1.871A27.337,27.337,0,0,1,721.946,380.939Z" transform="translate(-705.359 -351.254)"/><path class="e" d="M670.755,314.652c1.333,1.809.806,11.988-1.072,16.378-2.453,5.739-12.752.553-15.726-6.18s9.972,1.364,9.972,1.364.692-6.177,2.63-9.651C667.94,314.093,670.112,313.78,670.755,314.652Z" transform="translate(-651.305 -304.756)"/><path class="p" d="M654.654,352.043a7.2,7.2,0,0,1-.259-.672,3.311,3.311,0,0,1,1.438-.609c1.509-.379,6.719,3.159,8.745,4.244s2.884,4.43,3.527,4.328.428-.854.775-2.506a86.881,86.881,0,0,1,3.261-8.191,31.678,31.678,0,0,1-1.763,9.586C667.927,363.962,657.628,358.776,654.654,352.043Z" transform="translate(-652.001 -331.948)"/><path class="s" d="M689.782,301.946a7.262,7.262,0,0,0-1.425-2c-.467-.33-1.61-.784-1.79-.609-.421.411.181.7.4.821a1.722,1.722,0,0,1,.656.613c.136.231.627.938.185.8s-.483-1.064-.913-.773.467,1.676,1.046,2.335S690.141,303.019,689.782,301.946Z" transform="translate(-677.299 -292.979)"/><path class="x" d="M720.173,464.822c-1.791-.99-4.708,3.345-3.767,5.465a18.456,18.456,0,0,1,.94,9.8c-.754,3.063.047,6.408,1.649,10.506,1.262,3.227,1.3,7.359,1.967,9.455,3.04.312,4.273-.208,4-1.223-1.208-4.509-4.045-16.136-3.393-21.809.579-5.048,4.116-11.417,4.116-11.417S721.964,465.811,720.173,464.822Z" transform="translate(-700.839 -423.609)"/><path class="p" d="M764.383,305.533a7.821,7.821,0,0,0-4.146-2.18,20.025,20.025,0,0,1,1.858,7.231,24.12,24.12,0,0,1-3.061,15.006c-.751,1.246-2.513,4.752-3.695,7.135,3.686.461,7.655.069,9.773-1.637a2.964,2.964,0,0,0,1.021-1.712C768.1,319.807,767.605,309.385,764.383,305.533Z" transform="translate(-731.736 -296.179)"/><path class="s" d="M650.613,345.4a12.343,12.343,0,0,0-.639-1.3,5.159,5.159,0,0,0-.768-.991c-.3-.353-.52-.257-.638-.191s-.193.315-.193.315-.439-.669-.708-.556a1.93,1.93,0,0,0-.639,1.83c.2.813,2.057,2.011,2.5,1.836A4.08,4.08,0,0,0,650.613,345.4Z" transform="translate(-646.15 -327.232)"/></g></g></g></svg>