<svg xmlns="http://www.w3.org/2000/svg" width="147.29" height="130" viewBox="0 0 147.29 130"><defs><style>.a{fill:#8b51dd;}.b{fill:#d16244;}.c{fill:#f3f3f6;}.d{fill:#dcdcde;}.e{fill:#614cd4;}.f{fill:#413196;}.g{fill:#2e2e3d;}.h{fill:#f07c5d;}.i{fill:#311e69;}.j{fill:#fff;}.k{fill:#1e1240;}.l{fill:#232327;}</style></defs><g transform="translate(0 4.468)"><path class="a" d="M298.406,319.184s-6.1-.865-6.173,5.345,1.609,11.186,7.9,11.186c2.36,0,5.707.68,7.932-5.375C310.682,323.222,304.761,315.3,298.406,319.184Z" transform="translate(-230.879 -312.372)"/><path class="b" d="M285.285,358.1s-7.687,5.556-12.84,18.255-6.994,18.589,2.3,23.927,23.909-22.486,24.055-30.2S285.285,358.1,285.285,358.1Z" transform="translate(-223.677 -324.331)"/><g transform="translate(59.808 27.592)"><path class="c" d="M291.3,408.071c4.459-5.042,8.312-9.018,9.3-13.883,2.566-12.688-18.1-33.847-7.532-39.586,11.512-6.249,23.715-8.575,35.229,1.923,13.446,12.26,5.531,43.074,10.9,52.428C329.631,410.677,305.955,414.014,291.3,408.071Z" transform="translate(-290.028 -349.282)"/></g><g transform="translate(81.548 27.608)"><path class="d" d="M337.579,356.531c-5.4-4.926-10.958-7.028-16.521-7.226,2.274,3.1,6.711,9.489,8.1,13.963,1.894,6.105,6.421,26.211,7.579,31.369.414,1.846.074,8.405-.535,16.067,4.99-.521,9.313-1.21,12.277-1.745C343.11,399.605,351.025,368.791,337.579,356.531Z" transform="translate(-321.058 -349.305)"/></g><path class="e" d="M258.117,409.609a77.068,77.068,0,0,0,46.767,6.147c14.508-2.681,31.08-4.549,37.747-.853,12.947,7.178,11.9,28.712,0,38.1s-72.263,10.215-92.879,5.522S191.589,430.088,209.257,408C219.511,395.185,241.481,401.8,258.117,409.609Z" transform="translate(-204.662 -337.108)"/><path class="f" d="M253.366,444.548c-7.8-.106-19.369-8.041-26.527-12.888s-9.474-2.691-17.9-7.385a8.784,8.784,0,0,1-3.505-3.188c-6.125,19.868,25.868,39.318,44.315,43.517a93.246,93.246,0,0,0,10.735,1.636c2.382-3.888,4.159-9.082,7.574-14.8,7.33-12.263,31.407-19.784,31.407-19.784C288.524,430.771,268.946,444.758,253.366,444.548Z" transform="translate(-204.665 -343.187)"/><path class="g" d="M267.834,472.02c-.458-2.281-3.679-4.7-10.857-3.754,0,0-6.718.393-10.583,3.648s-3.4,5.371-.829,6.843,13.9.184,17.485-.46A5.678,5.678,0,0,0,267.834,472.02Z" transform="translate(-216.308 -357.25)"/><path class="h" d="M330.955,354.066c2.421-4.8,32.532,10.215,42.316,29.094s-.086,25.661-41.148,24l-2.6-6.211,27.463-11.292s-9.855-8.926-13.618-12.236C332.693,368.034,329.172,357.6,330.955,354.066Z" transform="translate(-242.044 -322.852)"/><path class="h" d="M309.487,338.317l3.293,9.9c.535,1.631-2.151,7.119-5.393,5.872-.949-.365-.674-2.929-.5-4.854l-.776-9.155Z" transform="translate(-235.034 -318.407)"/><path class="i" d="M306.616,346.28a6,6,0,0,0,2.939-5.4l-3.289,1.27Z" transform="translate(-235.081 -319.174)"/><path class="h" d="M304.346,328.768l1.814,3.624a5.99,5.99,0,0,1-2.381,7.984c-2.624,1.382-5.821.636-7.354-2.747-1.363-3.007,0-6.411.348-8.08C297.575,325.743,301.956,324.754,304.346,328.768Z" transform="translate(-231.957 -314.776)"/><path class="h" d="M296.544,336.21a5.024,5.024,0,0,1-.347-1.006c-.161-.657-.554-1.6-1.411-.877-1.247,1.047-.194,4.5,1.5,4.369C297.538,338.6,296.937,337.017,296.544,336.21Z" transform="translate(-231.481 -317.135)"/><path class="j" d="M303.53,339.209a11.746,11.746,0,0,1-3.817.685s.794,1.524,1.756,1.9S303.259,341.034,303.53,339.209Z" transform="translate(-233.119 -318.674)"/><path class="b" d="M303.271,343.376a7.858,7.858,0,0,1-4.367.166,8.113,8.113,0,0,1-2.32-1.948c.023.056.041.113.067.168,1.532,3.383,4.73,4.129,7.354,2.747A5.748,5.748,0,0,0,307,340,7.427,7.427,0,0,1,303.271,343.376Z" transform="translate(-232.182 -318.91)"/><path class="b" d="M341.429,354.561a18.065,18.065,0,0,0,6.406,7.785c6.474,4.443,7.9,2.232,12.947,8.863s12.316,23.526,9.79,27.158-14.526.648-21.631,4.1a27.649,27.649,0,0,0-7.37,5.289c36.107.773,44.562-6.242,35.265-24.184C369.655,369.723,351.525,357.948,341.429,354.561Z" transform="translate(-245.609 -323.27)"/><path class="a" d="M295.215,328.175s4.286,2.506,6.428,2.814l-.558-1.717s4.085,1.955,5.118,1.717,1.316-5.465-1.749-6.628S293.766,323.488,295.215,328.175Z" transform="translate(-231.718 -314.057)"/><path class="h" d="M309.458,334.092a5.044,5.044,0,0,0-.06-1.062c-.1-.67-.09-1.688.975-1.346,1.55.5,1.882,4.094.266,4.611C309.441,336.678,309.4,334.988,309.458,334.092Z" transform="translate(-236.007 -316.401)"/><path class="a" d="M303.57,316.1s-1.1-4.649,2.773-6.064,6.575,8.716,1.847,8.316S303.57,316.1,303.57,316.1Z" transform="translate(-234.231 -309.899)"/><g transform="translate(23.959 50.365)"><path class="i" d="M287.158,381.786H240.18a1.321,1.321,0,0,0-1.321,1.321l7.579,31.979a4.808,4.808,0,0,0,4.808,4.808h44.812l-7.578-36.786A1.321,1.321,0,0,0,287.158,381.786Z" transform="translate(-238.859 -381.786)"/><path class="i" d="M249.676,427.881v1.005a4.808,4.808,0,0,0,4.808,4.808h63.831a4.1,4.1,0,0,0,4.1-4.1v-1.709Z" transform="translate(-242.097 -395.586)"/><path class="k" d="M238.865,383.584c0,.021-.006.041-.006.062l7.579,31.979a4.808,4.808,0,0,0,4.808,4.808h44.812L293.621,408.6c-6.954-1.58-19.5-4.753-28.366-8.842C256.3,395.634,242.409,387.907,238.865,383.584Z" transform="translate(-238.859 -382.324)"/><path class="j" d="M276.162,408.2a2.535,2.535,0,1,0,1.856-3.43A2.78,2.78,0,0,0,276.162,408.2Z" transform="translate(-250.006 -388.654)"/></g><path class="h" d="M329.567,422.284s-3.024-1.985-4.57-1.454-4.326,3.174-3.678,3.284,3.425-1.747,3.425-1.747-2.49,2.823-2.643,3.914,1.678,1.5,2.592,1.247,5.528-.633,6.681-1.838S329.567,422.284,329.567,422.284Z" transform="translate(-239.559 -343.084)"/><g transform="translate(60.948 82.692)"><path class="f" d="M374.153,427.927c-.526,10.457-14.109,9.773-18.324,12.985-4.422,3.368-7.579,8.21-22.316,8.842a165.287,165.287,0,0,0-33.351,4.421c-6.092,1.471-7.943,9.722-8.507,14.562,26.372,1.962,67.43-.043,77.02-7.607C378.513,453.37,380.923,437.317,374.153,427.927Z" transform="translate(-291.655 -427.927)"/></g><path class="g" d="M290.368,474.195a28.151,28.151,0,0,0-6.914-.414s-1-.154-2.554-.263c-3.935-.277-11.4-.265-14.964,3.3-4.969,4.969,3.174,8.835,11.054,7.178.638-.135,1.235-.263,1.812-.389,5.529-1.2,8.339-1.967,10.519-1.406C291.729,482.82,293.4,474.885,290.368,474.195Z" transform="translate(-222.552 -358.853)"/><g transform="translate(47.234 117.689)"><path class="l" d="M279.441,478.6c-5.684-1.789-6.526,0-7.189,2.478a5.81,5.81,0,0,0,.766,4.457,18.06,18.06,0,0,0,6.266-.206c.638-.135,1.235-.263,1.812-.389,5.529-1.2,8.339-1.967,10.519-1.406.856.22,1.618-.643,2.11-1.874A141.952,141.952,0,0,1,279.441,478.6Z" transform="translate(-272.08 -477.879)"/></g></g><path class="e" d="M1152.238,270.924s-4.795-1.6-6.233-4.475,2.078-15.929-9.43-21.629-23.253,2.77-22.268,14.6c.889,10.675,9.483,17.261,23.707,14.113C1143.1,272.4,1152.238,270.924,1152.238,270.924Z" transform="translate(-1097.963 -243)"/><g transform="translate(24.23 5.073)"><path class="j" d="M1168.227,266.062a3.326,3.326,0,0,1,3.56.384c1.562,1.405,1.645,5.446,1.645,6.792a4.022,4.022,0,0,1-2.269.469,3.223,3.223,0,0,1-1.959,1.952,3.436,3.436,0,0,1-4.053-1.562l-2.108-.156s-.366-6.194,1.8-8.041C1166.2,264.735,1168.227,266.062,1168.227,266.062Z" transform="translate(-1160.617 -265.421)"/><path class="j" d="M1162.65,310.209a19.536,19.536,0,0,1,4.644,4.628,8.7,8.7,0,0,1,1.406,4.032s-8.414,4.138-16.776.421c0,0,1.162-6.732,4.363-9.081a4.165,4.165,0,0,0,3.126,1.437A4.031,4.031,0,0,0,1162.65,310.209Z" transform="translate(-1151.925 -300.508)"/></g></svg>