<svg xmlns="http://www.w3.org/2000/svg" width="45.446" height="45" viewBox="0 0 45.446 45"><defs><style>.a{fill:#feaa26;}</style></defs><path class="a" d="M964.731,571.46a9.063,9.063,0,0,1,3.93.785,5.805,5.805,0,0,1,2.487,2.1,5.151,5.151,0,0,1,.835,2.822,5.171,5.171,0,0,1-1.746,4.059,23.78,23.78,0,0,1-1.937,1.463,12.584,12.584,0,0,0-2.392,1.956,3.474,3.474,0,0,0-.8,2.38v1.646h-3.454v-1.827a5.88,5.88,0,0,1,.55-2.669,5.639,5.639,0,0,1,1.3-1.752,20.778,20.778,0,0,1,2.012-1.5,11.045,11.045,0,0,0,2.126-1.646,2.672,2.672,0,0,0,.694-1.9,2.8,2.8,0,0,0-1.026-2.321,4.371,4.371,0,0,0-2.81-.823,6.734,6.734,0,0,0-5.277,2.629l-2.392-1.792A10.112,10.112,0,0,1,964.731,571.46Zm-1.253,20.977a2.626,2.626,0,0,1,1.9.732,2.39,2.39,0,0,1,.761,1.8,2.448,2.448,0,0,1-.758,1.808,2.594,2.594,0,0,1-1.9.75,2.552,2.552,0,0,1-1.86-.75,2.448,2.448,0,0,1-.758-1.808,2.385,2.385,0,0,1,.758-1.792A2.575,2.575,0,0,1,963.478,592.437Z" transform="translate(-941.685 -561.993)"/><path class="a" d="M973.223,612.5A22.5,22.5,0,1,1,995.946,590,22.639,22.639,0,0,1,973.223,612.5Zm0-42.632A20.133,20.133,0,1,0,993.554,590,20.255,20.255,0,0,0,973.223,569.868Z" transform="translate(-950.5 -567.5)"/></svg>