<svg xmlns="http://www.w3.org/2000/svg" width="22" height="18.73" viewBox="0 0 22 18.73"><defs><style>.a{fill:#fa0;}</style></defs><g transform="translate(-452 -372)"><path class="a" d="M1605.394,1309.3a.651.651,0,0,1-.548-.312.748.748,0,0,1,.049-.861,5.741,5.741,0,0,0,1.191-2.39c-2.882-1.567-4.585-4.079-4.585-6.8,0-4.613,4.935-8.364,11-8.364s11,3.751,11,8.364-4.935,8.363-11,8.363a14.313,14.313,0,0,1-3.12-.34,11.014,11.014,0,0,1-3.769,2.3A.626.626,0,0,1,1605.394,1309.3Zm7.106-17.314c-5.336,0-9.677,3.117-9.677,6.948,0,2.3,1.6,4.449,4.277,5.754a.719.719,0,0,1,.381.735,6.682,6.682,0,0,1-.385,1.561,8.618,8.618,0,0,0,1.629-1.308.628.628,0,0,1,.611-.181,13.035,13.035,0,0,0,3.165.386c5.337,0,9.677-3.117,9.677-6.948S1617.836,1291.988,1612.5,1291.988Z" transform="translate(-1149.5 -918.572)"/></g></svg>