<svg xmlns="http://www.w3.org/2000/svg" width="22" height="22.181" viewBox="0 0 22 22.181"><defs><style>.a{fill:#fff;}.b{fill:#00e676;}</style></defs><g transform="translate(-315.405 -880.04)"><path class="a" d="M334.227,883.276a10.792,10.792,0,0,0-7.735-3.237,10.951,10.951,0,0,0-10.97,10.932c0,.033,0,.066,0,.1a11.574,11.574,0,0,0,1.439,5.455l-1.557,5.7,5.815-1.5a10.7,10.7,0,0,0,5.216,1.32h0A11.028,11.028,0,0,0,337.4,891.01,10.88,10.88,0,0,0,334.227,883.276Zm-7.735,16.906h0a8.908,8.908,0,0,1-4.616-1.259l-.359-.179-3.476.9.9-3.419-.24-.356a9.1,9.1,0,1,1,12.531,2.936A8.742,8.742,0,0,1,326.493,900.183Z" transform="translate(0 0)"/><path class="b" d="M325.085,902.126l.346.173a9.053,9.053,0,0,0,4.673,1.267h0a9.217,9.217,0,1,0-9.173-9.261c0,.034,0,.068,0,.1a9.441,9.441,0,0,0,1.385,4.84l.231.346-.922,3.4Z" transform="translate(-3.656 -3.368)"/><path class="a" d="M342.31,904.891l-.659-.3s-.959-.42-1.557-.719c-.06,0-.12-.06-.18-.06a.865.865,0,0,0-.42.12h0s-.06.06-.9,1.019a.329.329,0,0,1-.3.18h-.06a.455.455,0,0,1-.24-.12l-.3-.12h0a5.832,5.832,0,0,1-1.738-1.139c-.12-.12-.3-.24-.42-.36a6.7,6.7,0,0,1-1.139-1.439l-.06-.12c-.06-.06-.06-.12-.12-.24,0-.12-.06-.1.06-.3a2.462,2.462,0,0,1,.42-.48c.12-.12.18-.3.3-.42a.739.739,0,0,0,.12-.6,23.353,23.353,0,0,0-.962-2.278.693.693,0,0,0-.42-.3h-.659c-.12,0-.24.06-.36.06l-.06.06c-.12.06-.24.18-.36.24-.12.12-.18.24-.3.36a3.057,3.057,0,0,0-.659,1.858h0a3.553,3.553,0,0,0,.3,1.379l.06.18a9.991,9.991,0,0,0,2.218,3.058l.24.24a3.631,3.631,0,0,1,.48.482,10.708,10.708,0,0,0,4.316,2.278c.18.06.42.06.6.12h.6a2.223,2.223,0,0,0,.9-.24c.18-.12.3-.12.42-.24l.12-.12c.12-.12.24-.18.36-.3a1.6,1.6,0,0,0,.3-.36,3.452,3.452,0,0,0,.24-.84v-.42A.746.746,0,0,0,342.31,904.891Z" transform="translate(-10.541 -11.362)"/></g></svg>