<svg width="25" height="18" viewBox="0 0 25 18" fill="none"
  xmlns="http://www.w3.org/2000/svg">
  <path d="M5.81853 3.74993C7.13458 5.05589 8.02628 6.72839 8.37718 8.54894L6.46384 7.21128C6.40731 7.17188 6.34356 7.14399 6.27625 7.12922C6.20894 7.11445 6.13935 7.11307 6.07152 7.12518C6.00368 7.1373 5.93894 7.16266 5.8809 7.19982C5.82286 7.23697 5.77268 7.28522 5.73328 7.34176C5.69388 7.39829 5.66598 7.46204 5.65122 7.52935C5.63645 7.59666 5.63512 7.66619 5.64723 7.73403C5.65935 7.80187 5.68466 7.86666 5.72181 7.9247C5.75897 7.98274 5.80722 8.03287 5.86375 8.07227L9.32511 10.4848L11.5637 6.78344C11.5994 6.72451 11.623 6.65916 11.6334 6.59107C11.6437 6.52299 11.6406 6.45347 11.6241 6.3866C11.6077 6.31974 11.5782 6.25682 11.5373 6.20135C11.4965 6.14588 11.4452 6.09897 11.3863 6.06334C11.3273 6.0277 11.262 6.00396 11.1939 5.99359C11.1258 5.98322 11.0564 5.98645 10.9895 6.00293C10.9226 6.0194 10.8597 6.04885 10.8042 6.08966C10.7487 6.13047 10.7018 6.1818 10.6662 6.24074L9.49556 8.17663C9.11037 6.16177 8.13714 4.30614 6.69862 2.84371C5.85394 2.00379 4.82904 1.3673 3.70168 0.982561C2.55026 0.598186 1.3176 0.525619 0.129013 0.772145L0.42643 2.13061C1.38898 1.93114 2.3861 1.97474 3.32756 2.25748C4.26902 2.54022 5.12515 3.05314 5.81853 3.74993V3.74993Z" fill="#F49400"/>
  <path d="M20.5476 0.980956C19.4202 1.36468 18.3952 2.00057 17.5507 2.8403C16.1122 4.30273 15.139 6.15847 14.7538 8.17332L13.5832 6.23732C13.5475 6.17828 13.5006 6.12685 13.4451 6.08594C13.3896 6.04502 13.3265 6.01544 13.2596 5.99888C13.1926 5.98233 13.1231 5.97911 13.0549 5.98943C12.9867 5.99976 12.9212 6.02344 12.8622 6.05908C12.8032 6.09471 12.7517 6.14157 12.7108 6.19709C12.6698 6.25261 12.6403 6.31571 12.6237 6.38266C12.6071 6.44961 12.6039 6.51916 12.6143 6.58735C12.6246 6.65553 12.6483 6.72099 12.6839 6.78003L14.9242 10.4814L18.3856 8.06896C18.4421 8.02956 18.4904 7.97933 18.5275 7.92129C18.5647 7.86325 18.59 7.79846 18.6021 7.73062C18.6143 7.66278 18.6129 7.59325 18.5981 7.52594C18.5833 7.45863 18.5554 7.39488 18.516 7.33835C18.4766 7.28181 18.4265 7.23366 18.3685 7.19651C18.3104 7.15936 18.2456 7.13399 18.1778 7.12188C18.11 7.10977 18.0404 7.11115 17.9731 7.12591C17.9058 7.14068 17.842 7.16847 17.7855 7.20787L15.8722 8.54553C16.2231 6.72498 17.1147 5.05248 18.4308 3.74652C19.1254 3.04882 19.983 2.5353 20.926 2.25226C21.8689 1.96922 22.8676 1.92557 23.8316 2.1254L24.129 0.76693C22.9374 0.519452 21.7014 0.593371 20.5476 0.980956V0.980956Z" fill="#F49400"/>
  <path d="M20.3493 17.973H3.89301C3.48884 17.9804 3.09823 17.8273 2.80674 17.5472C2.51525 17.2672 2.34671 16.883 2.33803 16.4788V6.81305C2.33803 6.67327 2.39355 6.53926 2.49239 6.44042C2.59123 6.34158 2.7253 6.28595 2.86508 6.28595C3.00485 6.28595 3.13887 6.34158 3.23771 6.44042C3.33655 6.53926 3.39207 6.67327 3.39207 6.81305V16.4788C3.40056 16.6034 3.458 16.7196 3.55185 16.8021C3.6457 16.8845 3.76832 16.9265 3.89301 16.9189H20.3493C20.4742 16.9265 20.597 16.8846 20.6912 16.8022C20.7853 16.7198 20.8431 16.6036 20.852 16.4788V6.81305C20.852 6.67327 20.9075 6.53926 21.0064 6.44042C21.1052 6.34158 21.2393 6.28595 21.379 6.28595C21.5188 6.28595 21.6529 6.34158 21.7517 6.44042C21.8506 6.53926 21.9061 6.67327 21.9061 6.81305V16.4788C21.897 16.8831 21.728 17.2673 21.4363 17.5474C21.1445 17.8274 20.7536 17.9804 20.3493 17.973Z" fill="#F49400"/>
</svg>
