<svg id="Componente_6_2" data-name="Componente 6 – 2" xmlns="http://www.w3.org/2000/svg" width="11" height="11" viewBox="0 0 11 11">
  <path id="Caminho_1639" data-name="Caminho 1639" d="M-2.754-2.187a1.758,1.758,0,0,1-.027-.306,1.864,1.864,0,0,1,.144-.77,2.281,2.281,0,0,1,.36-.567q.216-.247.441-.464a3.95,3.95,0,0,0,.549-.621,1.1,1.1,0,0,0,.189-.63.862.862,0,0,0-.306-.7A1.263,1.263,0,0,0-2.241-6.5a2.143,2.143,0,0,0-1.62.819l-.189-.666a2.052,2.052,0,0,1,.81-.616,2.6,2.6,0,0,1,1.071-.229,2.156,2.156,0,0,1,.968.207,1.585,1.585,0,0,1,.652.576,1.579,1.579,0,0,1,.234.864,1.694,1.694,0,0,1-.1.6,1.759,1.759,0,0,1-.3.5,6.63,6.63,0,0,1-.486.517q-.216.207-.418.432a1.973,1.973,0,0,0-.329.5,1.53,1.53,0,0,0-.126.644,1.186,1.186,0,0,0,.009.162ZM-2.43.054a.568.568,0,0,1-.418-.167.568.568,0,0,1-.167-.419A.568.568,0,0,1-2.848-.95a.568.568,0,0,1,.418-.167.568.568,0,0,1,.418.167.568.568,0,0,1,.167.419.568.568,0,0,1-.167.419A.568.568,0,0,1-2.43.054Z" transform="translate(7.683 9.068)" fill="#727594"/>
  <g id="Elipse_1" data-name="Elipse 1" fill="none" stroke="#727594" stroke-width="0.75">
    <circle cx="5.5" cy="5.5" r="5.5" stroke="none"/>
    <circle cx="5.5" cy="5.5" r="5.125" fill="none"/>
  </g>
</svg>
