<svg xmlns="http://www.w3.org/2000/svg" width="99.908" height="30" viewBox="0 0 99.908 30"><defs><style>.a{fill:#fff;}</style></defs><g transform="translate(-230.213 -183.955)"><g transform="translate(308.71 183.955)"><path class="a" d="M546.2,213.732a43.093,43.093,0,0,1,1.073-6.522,62.36,62.36,0,0,1,2-6.65,56.117,56.117,0,0,1,2.639-6.157,35.683,35.683,0,0,1,2.96-4.849H543.4l.882-5.6,20.53.078s-3.977,6.945-5.079,8.718a48.224,48.224,0,0,0-3.132,6.028,55.707,55.707,0,0,0-2.574,7.23,37.41,37.41,0,0,0-1.352,7.723Z" transform="translate(-543.404 -183.955)"/></g><g transform="translate(230.213 184.152)"><path class="a" d="M322.1,229.431a13.14,13.14,0,0,1-.69,4.355,9.463,9.463,0,0,1-1.992,3.376,8.967,8.967,0,0,1-3.123,2.168,10.416,10.416,0,0,1-4.081.768,10.306,10.306,0,0,1-4.043-.768,8.944,8.944,0,0,1-3.123-2.168,9.909,9.909,0,0,1-2.031-3.376,12.5,12.5,0,0,1-.728-4.355,12.075,12.075,0,0,1,.747-4.336,9.838,9.838,0,0,1,2.069-3.338,9.3,9.3,0,0,1,3.142-2.148,10.732,10.732,0,0,1,7.971,0,9.1,9.1,0,0,1,3.123,2.148,9.77,9.77,0,0,1,2.031,3.338A12.359,12.359,0,0,1,322.1,229.431Zm-5.825,0a7.193,7.193,0,0,0-1.054-4.163,3.445,3.445,0,0,0-3.008-1.516,3.493,3.493,0,0,0-3.027,1.516,7.1,7.1,0,0,0-1.073,4.163,7.281,7.281,0,0,0,1.073,4.2,3.466,3.466,0,0,0,3.027,1.554,3.419,3.419,0,0,0,3.008-1.554A7.382,7.382,0,0,0,316.273,229.431Z" transform="translate(-284.221 -210.294)"/><path class="a" d="M404.156,213.3q-.768.23-1.765.441t-2.091.365q-1.094.153-2.225.249t-2.168.1a12.7,12.7,0,0,1-4.451-.729,8.936,8.936,0,0,1-3.3-2.091,9.058,9.058,0,0,1-2.052-3.3,12.573,12.573,0,0,1-.71-4.355,14.911,14.911,0,0,1,.614-4.432,9.639,9.639,0,0,1,1.764-3.357,7.559,7.559,0,0,1,2.82-2.11,9.458,9.458,0,0,1,3.818-.729,9,9,0,0,1,2.13.23,11.568,11.568,0,0,1,1.9.652v-8.565l5.717-.921Zm-12.93-9.592a7,7,0,0,0,1.19,4.259,4.106,4.106,0,0,0,3.529,1.611q.767,0,1.42-.058t1.074-.134v-10.4a4.981,4.981,0,0,0-1.4-.575,6.74,6.74,0,0,0-1.746-.23Q391.227,198.179,391.226,203.7Z" transform="translate(-346.5 -184.741)"/><path class="a" d="M463.9,229.486a12.3,12.3,0,0,1,.822-4.683,10.034,10.034,0,0,1,2.16-3.345,8.985,8.985,0,0,1,3.077-2.026,9.638,9.638,0,0,1,3.575-.688,8.885,8.885,0,0,1,6.766,2.619q2.485,2.619,2.486,7.7c0,.332-.013.695-.039,1.09s-.051.746-.076,1.051H469.754A3.785,3.785,0,0,0,471.4,234a6.609,6.609,0,0,0,3.9,1.032,16.436,16.436,0,0,0,3.077-.287,11.584,11.584,0,0,0,2.466-.707l.765,4.626a7.864,7.864,0,0,1-1.223.459,16.013,16.013,0,0,1-1.7.4q-.937.172-2.007.287a20.015,20.015,0,0,1-2.141.115,12.669,12.669,0,0,1-4.721-.8,9.191,9.191,0,0,1-3.326-2.2,8.717,8.717,0,0,1-1.949-3.307A13.085,13.085,0,0,1,463.9,229.486Zm13.381-2.179a5.924,5.924,0,0,0-.249-1.414,3.551,3.551,0,0,0-.649-1.223,3.483,3.483,0,0,0-1.109-.879,3.615,3.615,0,0,0-1.663-.344,3.823,3.823,0,0,0-1.644.325,3.4,3.4,0,0,0-1.147.86,3.845,3.845,0,0,0-.707,1.242,8.127,8.127,0,0,0-.364,1.434Z" transform="translate(-405.333 -210.221)"/><path class="a" d="M245.352,233.936q-.357.164-.8.356a6.522,6.522,0,0,1-.951.321,12,12,0,0,1-1.276.252,11.162,11.162,0,0,1-1.617.105,5.593,5.593,0,0,1-2.338-.439,4.033,4.033,0,0,1-1.516-1.168,4.78,4.78,0,0,1-.85-1.793,9.643,9.643,0,0,1-.275-2.357,7.51,7.51,0,0,1,.41-2.647,4.832,4.832,0,0,1,1.062-1.719,3.935,3.935,0,0,1,1.5-.946,5.429,5.429,0,0,1,1.787-.3,9.4,9.4,0,0,1,2.537.314,10.032,10.032,0,0,1,1.965.764l.524.278,1.587-4.443-.351-.219c-.165-.1-.414-.237-.763-.412a9.2,9.2,0,0,0-1.324-.516,15.075,15.075,0,0,0-1.81-.431,13.118,13.118,0,0,0-2.31-.188,11.766,11.766,0,0,0-4.088.7,9.123,9.123,0,0,0-3.29,2.072A9.721,9.721,0,0,0,231,224.849a11.945,11.945,0,0,0-.786,4.449c0,3.32.873,5.93,2.595,7.758s4.259,2.769,7.516,2.769a15.627,15.627,0,0,0,3.988-.461,10.5,10.5,0,0,0,2.714-1.056Z" transform="translate(-230.213 -210.221)"/></g></g></svg>