<svg xmlns="http://www.w3.org/2000/svg" width="195.286" height="34.57" viewBox="0 0 195.286 34.57"><defs><style>.a{fill:#151a4e;}.b{fill:#202583;}.c{fill:#727594;}</style></defs><g transform="translate(-30 -15)"><g transform="translate(30 15.23)"><path class="a" d="M322.116,229.431a13.13,13.13,0,0,1-.69,4.355,9.462,9.462,0,0,1-1.994,3.376,8.975,8.975,0,0,1-3.126,2.168,10.434,10.434,0,0,1-4.085.768,10.323,10.323,0,0,1-4.047-.768,8.952,8.952,0,0,1-3.126-2.168,9.909,9.909,0,0,1-2.033-3.376,12.5,12.5,0,0,1-.729-4.355,12.066,12.066,0,0,1,.748-4.336,9.837,9.837,0,0,1,2.071-3.338,9.309,9.309,0,0,1,3.145-2.148,10.751,10.751,0,0,1,7.978,0,9.106,9.106,0,0,1,3.126,2.148,9.77,9.77,0,0,1,2.033,3.338A12.352,12.352,0,0,1,322.116,229.431Zm-5.83,0a7.188,7.188,0,0,0-1.055-4.163,3.449,3.449,0,0,0-3.01-1.516,3.5,3.5,0,0,0-3.03,1.516,7.09,7.09,0,0,0-1.074,4.163,7.276,7.276,0,0,0,1.074,4.2,3.47,3.47,0,0,0,3.03,1.554,3.423,3.423,0,0,0,3.01-1.554A7.377,7.377,0,0,0,316.286,229.431Z" transform="translate(-284.204 -210.327)"/><path class="a" d="M404.174,213.3q-.769.23-1.767.441t-2.093.365q-1.1.153-2.227.249t-2.17.1a12.725,12.725,0,0,1-4.455-.729,8.945,8.945,0,0,1-3.3-2.091,9.056,9.056,0,0,1-2.054-3.3,12.563,12.563,0,0,1-.711-4.355,14.9,14.9,0,0,1,.615-4.432,9.637,9.637,0,0,1,1.766-3.357,7.567,7.567,0,0,1,2.823-2.11,9.474,9.474,0,0,1,3.821-.729,9.02,9.02,0,0,1,2.132.23,11.589,11.589,0,0,1,1.9.652v-8.565l5.722-.921ZM391.231,203.7a7,7,0,0,0,1.191,4.259,4.111,4.111,0,0,0,3.533,1.611q.768,0,1.421-.058t1.075-.134v-10.4a4.987,4.987,0,0,0-1.4-.575,6.753,6.753,0,0,0-1.748-.23Q391.232,198.179,391.231,203.7Z" transform="translate(-346.464 -184.774)"/><path class="a" d="M463.9,229.486a12.286,12.286,0,0,1,.823-4.683,10.033,10.033,0,0,1,2.162-3.345,8.993,8.993,0,0,1,3.08-2.026,9.655,9.655,0,0,1,3.578-.688,8.9,8.9,0,0,1,6.772,2.619q2.488,2.619,2.488,7.7c0,.332-.014.695-.039,1.09s-.051.746-.076,1.051H469.759A3.784,3.784,0,0,0,471.4,234a6.619,6.619,0,0,0,3.9,1.032,16.462,16.462,0,0,0,3.08-.287,11.6,11.6,0,0,0,2.468-.707l.765,4.626a7.873,7.873,0,0,1-1.224.459,16.036,16.036,0,0,1-1.7.4q-.938.172-2.009.287a20.065,20.065,0,0,1-2.143.115,12.691,12.691,0,0,1-4.726-.8,9.2,9.2,0,0,1-3.329-2.2,8.716,8.716,0,0,1-1.951-3.307A13.077,13.077,0,0,1,463.9,229.486Zm13.393-2.179a5.918,5.918,0,0,0-.249-1.414,3.549,3.549,0,0,0-.65-1.223,3.484,3.484,0,0,0-1.11-.879,3.621,3.621,0,0,0-1.665-.344,3.829,3.829,0,0,0-1.646.325,3.405,3.405,0,0,0-1.148.86,3.845,3.845,0,0,0-.708,1.242,8.125,8.125,0,0,0-.364,1.434Z" transform="translate(-405.279 -210.254)"/><path class="a" d="M245.366,233.936q-.357.164-.8.356a6.529,6.529,0,0,1-.952.321,12.018,12.018,0,0,1-1.278.252,11.186,11.186,0,0,1-1.618.105,5.6,5.6,0,0,1-2.34-.439,4.036,4.036,0,0,1-1.518-1.168,4.778,4.778,0,0,1-.85-1.793,9.632,9.632,0,0,1-.276-2.357,7.5,7.5,0,0,1,.411-2.647,4.83,4.83,0,0,1,1.063-1.719,3.938,3.938,0,0,1,1.5-.946,5.439,5.439,0,0,1,1.789-.3,9.419,9.419,0,0,1,2.54.314,10.042,10.042,0,0,1,1.967.764l.525.278,1.588-4.443-.351-.219c-.165-.1-.415-.237-.764-.412a9.215,9.215,0,0,0-1.325-.516,15.1,15.1,0,0,0-1.812-.431,13.139,13.139,0,0,0-2.312-.188,11.786,11.786,0,0,0-4.092.7,9.132,9.132,0,0,0-3.293,2.072A9.72,9.72,0,0,0,231,224.849a11.936,11.936,0,0,0-.786,4.449c0,3.32.874,5.93,2.6,7.758s4.262,2.769,7.523,2.769a15.651,15.651,0,0,0,3.991-.461,10.511,10.511,0,0,0,2.716-1.056Z" transform="translate(-230.213 -210.254)"/><path class="b" d="M546.2,213.732a43.037,43.037,0,0,1,1.074-6.522,62.294,62.294,0,0,1,2-6.65,56.04,56.04,0,0,1,2.641-6.157,35.65,35.65,0,0,1,2.963-4.849H543.4l.883-5.6,20.548.078s-3.981,6.945-5.083,8.718a48.2,48.2,0,0,0-3.135,6.028,55.678,55.678,0,0,0-2.576,7.23,37.367,37.367,0,0,0-1.353,7.723Z" transform="translate(-464.835 -184.185)"/></g><path class="c" d="M11.988-9.222a5.3,5.3,0,0,0-1.2-3.718,4.118,4.118,0,0,0-3.187-1.3,14.577,14.577,0,0,0-1.74.08,7,7,0,0,0-1,.186v8.711a5.084,5.084,0,0,0,1.3.717A4.894,4.894,0,0,0,8.03-4.2,3.971,3.971,0,0,0,9.85-4.588,3.34,3.34,0,0,0,11.085-5.65a4.49,4.49,0,0,0,.691-1.594A8.749,8.749,0,0,0,11.988-9.222Zm2.576,0a9.735,9.735,0,0,1-.412,2.895,6.551,6.551,0,0,1-1.208,2.284,5.492,5.492,0,0,1-1.952,1.487,6.26,6.26,0,0,1-2.643.531,6.417,6.417,0,0,1-2.111-.319A6.667,6.667,0,0,1,4.87-2.954V2.57H2.4v-18.3q.876-.212,2.191-.465a16.278,16.278,0,0,1,3.041-.252,7.738,7.738,0,0,1,2.868.5,6.146,6.146,0,0,1,2.178,1.434,6.337,6.337,0,0,1,1.394,2.271A8.717,8.717,0,0,1,14.564-9.222Zm7.357,5.1q.876,0,1.554-.04A6.782,6.782,0,0,0,24.6-4.309V-8.425a3.165,3.165,0,0,0-.863-.226,9.6,9.6,0,0,0-1.447-.093,9.352,9.352,0,0,0-1.182.08,3.641,3.641,0,0,0-1.142.332,2.446,2.446,0,0,0-.863.691,1.813,1.813,0,0,0-.345,1.155,1.984,1.984,0,0,0,.85,1.846A4.424,4.424,0,0,0,21.921-4.123ZM21.708-16.5a7.158,7.158,0,0,1,2.51.385,4.067,4.067,0,0,1,1.647,1.089,4.123,4.123,0,0,1,.89,1.673,8.079,8.079,0,0,1,.266,2.138v8.632l-.89.146q-.571.093-1.288.173t-1.554.146q-.837.066-1.66.066a9.1,9.1,0,0,1-2.151-.239,4.811,4.811,0,0,1-1.7-.757,3.466,3.466,0,0,1-1.115-1.368,4.787,4.787,0,0,1-.4-2.045,3.936,3.936,0,0,1,.465-1.965A3.7,3.7,0,0,1,17.99-9.753a5.842,5.842,0,0,1,1.859-.744,10.137,10.137,0,0,1,2.231-.239q.372,0,.77.04t.757.106q.359.066.624.12t.372.08v-.691a5.554,5.554,0,0,0-.133-1.208,2.764,2.764,0,0,0-.478-1.062,2.421,2.421,0,0,0-.943-.744,3.7,3.7,0,0,0-1.554-.279,11.669,11.669,0,0,0-2.138.173,7.476,7.476,0,0,0-1.368.359L17.7-15.888a7.611,7.611,0,0,1,1.594-.412A13.764,13.764,0,0,1,21.708-16.5Zm13.7.053q.319,0,.73.04t.81.106q.4.066.73.133a4.456,4.456,0,0,1,.491.12L37.75-13.9a8.279,8.279,0,0,0-.969-.252,8.5,8.5,0,0,0-1.74-.146,6.469,6.469,0,0,0-1.368.146q-.677.146-.89.2V-2.343h-2.47V-15.57a16.79,16.79,0,0,1,2.178-.6A13.991,13.991,0,0,1,35.413-16.446Zm6.666.292h5.232v2.072H42.079v6.374A7.661,7.661,0,0,0,42.238-6a2.573,2.573,0,0,0,.478,1.062,1.72,1.72,0,0,0,.8.544,3.531,3.531,0,0,0,1.115.159,5.247,5.247,0,0,0,1.793-.252q.677-.252.943-.359l.478,2.045a9.17,9.17,0,0,1-1.3.465,7.4,7.4,0,0,1-2.125.279,6.441,6.441,0,0,1-2.324-.359,3.384,3.384,0,0,1-1.474-1.076,4.308,4.308,0,0,1-.783-1.766,11.642,11.642,0,0,1-.226-2.43V-20.005l2.47-.425Zm7.569.4q.85-.212,2.258-.452a19.531,19.531,0,0,1,3.24-.239,7,7,0,0,1,2.736.465,4.279,4.279,0,0,1,1.74,1.3,5.033,5.033,0,0,1,.916,2.005A11.634,11.634,0,0,1,60.8-10.1v7.755h-2.47V-9.567a11.791,11.791,0,0,0-.173-2.178,3.682,3.682,0,0,0-.571-1.461,2.26,2.26,0,0,0-1.062-.81,4.667,4.667,0,0,0-1.647-.252q-.4,0-.823.027t-.81.066q-.385.04-.691.093t-.438.08V-2.343h-2.47ZM63.326-9.222a8.815,8.815,0,0,1,.531-3.2,6.687,6.687,0,0,1,1.408-2.271,5.715,5.715,0,0,1,2.018-1.355,6.305,6.305,0,0,1,2.337-.451A5.316,5.316,0,0,1,73.9-14.76a8,8,0,0,1,1.487,5.3v.412a3.762,3.762,0,0,1-.027.465H65.9a5.056,5.056,0,0,0,1.248,3.267A4.57,4.57,0,0,0,70.55-4.2a9.058,9.058,0,0,0,2.191-.226,7.9,7.9,0,0,0,1.341-.438l.345,2.072a7.343,7.343,0,0,1-1.58.5,11.233,11.233,0,0,1-2.563.266,8.13,8.13,0,0,1-3.121-.544A5.822,5.822,0,0,1,65-4.07a6.123,6.123,0,0,1-1.262-2.271A9.6,9.6,0,0,1,63.326-9.222Zm9.482-1.355a4.144,4.144,0,0,0-.837-2.749A2.881,2.881,0,0,0,69.594-14.4a3.257,3.257,0,0,0-1.5.332,3.539,3.539,0,0,0-1.1.863,3.973,3.973,0,0,0-.7,1.222,6.028,6.028,0,0,0-.332,1.408Zm10.438-5.87q.319,0,.73.04t.81.106q.4.066.73.133a4.456,4.456,0,0,1,.491.12L85.582-13.9a8.279,8.279,0,0,0-.969-.252,8.5,8.5,0,0,0-1.74-.146,6.469,6.469,0,0,0-1.368.146q-.677.146-.89.2V-2.343h-2.47V-15.57a16.79,16.79,0,0,1,2.178-.6A13.991,13.991,0,0,1,83.245-16.446ZM90.815-4.123a4.862,4.862,0,0,0,2.244-.4,1.347,1.347,0,0,0,.73-1.275,1.693,1.693,0,0,0-.717-1.434,11.368,11.368,0,0,0-2.364-1.2q-.8-.319-1.527-.651A5.356,5.356,0,0,1,87.92-9.86a3.42,3.42,0,0,1-.85-1.089,3.48,3.48,0,0,1-.319-1.567,3.518,3.518,0,0,1,1.355-2.908A5.78,5.78,0,0,1,91.8-16.5a10.341,10.341,0,0,1,1.169.066q.584.066,1.089.159t.89.2q.385.106.6.186l-.451,2.125a6.236,6.236,0,0,0-1.248-.438,8.055,8.055,0,0,0-2.045-.226,3.776,3.776,0,0,0-1.806.412,1.364,1.364,0,0,0-.77,1.288,1.759,1.759,0,0,0,.173.8,1.839,1.839,0,0,0,.531.624,4.367,4.367,0,0,0,.89.518q.531.239,1.275.5.983.372,1.753.73a5.487,5.487,0,0,1,1.315.837,3.207,3.207,0,0,1,.837,1.155,4.189,4.189,0,0,1,.292,1.66,3.294,3.294,0,0,1-1.421,2.895,7.074,7.074,0,0,1-4.05.983,10.585,10.585,0,0,1-2.868-.305q-1.036-.305-1.408-.465L86.99-4.92q.425.159,1.355.478A7.815,7.815,0,0,0,90.815-4.123Z" transform="translate(129 47)"/></g></svg>