<svg xmlns="http://www.w3.org/2000/svg" width="27.002" height="27" viewBox="0 0 27.002 27"><defs><style>.a{fill:#f38d45;}.b{fill:#fff;}</style></defs><g transform="translate(-2813 -802.979)"><path class="a" d="M265.579,378.118h-8.925a9.065,9.065,0,0,0-9.038,9.036v17.964h17.964a9.065,9.065,0,0,0,9.038-9.038v-8.925a9.065,9.065,0,0,0-9.038-9.036Z" transform="translate(2565.385 424.861)"/><g transform="translate(2818.1 811.605)"><path class="b" d="M261.847,396.935a3.957,3.957,0,0,1-.219,1.355,2.863,2.863,0,0,1-.636,1.034,2.794,2.794,0,0,1-1.022.657,3.834,3.834,0,0,1-1.381.232c-.213,0-.438-.01-.671-.03s-.464-.045-.69-.077-.442-.069-.648-.112-.388-.089-.547-.137v-8.737l1.772-.286v3.116a3.326,3.326,0,0,1,.619-.2,3.151,3.151,0,0,1,.69-.073,2.825,2.825,0,0,1,1.177.232,2.3,2.3,0,0,1,.856.66,2.947,2.947,0,0,1,.523,1.028A4.7,4.7,0,0,1,261.847,396.935Zm-1.808-.048q0-1.713-1.26-1.713a2.1,2.1,0,0,0-.541.073,1.547,1.547,0,0,0-.438.178v3.223q.131.023.333.041t.438.018a1.272,1.272,0,0,0,1.095-.5,2.167,2.167,0,0,0,.377-1.321Z" transform="translate(-256.032 -390.833)"/><path class="b" d="M272.369,398.748a4.063,4.063,0,0,1-.215,1.35,2.913,2.913,0,0,1-.619,1.046,2.77,2.77,0,0,1-.968.672,3.235,3.235,0,0,1-1.267.238,3.2,3.2,0,0,1-1.255-.238,2.779,2.779,0,0,1-.97-.672,3.081,3.081,0,0,1-.631-1.046,3.885,3.885,0,0,1-.226-1.35,3.735,3.735,0,0,1,.232-1.344,3.046,3.046,0,0,1,.641-1.035,2.9,2.9,0,0,1,.976-.666,3.331,3.331,0,0,1,2.473,0,2.815,2.815,0,0,1,.969.666,3,3,0,0,1,.631,1.035,3.817,3.817,0,0,1,.228,1.344Zm-1.808,0a2.234,2.234,0,0,0-.327-1.291,1.071,1.071,0,0,0-.934-.47,1.085,1.085,0,0,0-.939.47,2.2,2.2,0,0,0-.333,1.291,2.251,2.251,0,0,0,.333,1.3,1.076,1.076,0,0,0,.939.482,1.061,1.061,0,0,0,.934-.482,2.29,2.29,0,0,0,.328-1.3Z" transform="translate(-260.046 -392.658)"/><path class="b" d="M277.348,392.983l1.773-.285v1.843h2.128v1.474h-2.128v2.2a1.752,1.752,0,0,0,.2.892.842.842,0,0,0,.791.334,3.435,3.435,0,0,0,.587-.053,3.06,3.06,0,0,0,.553-.146l.25,1.38a5.037,5.037,0,0,1-.714.225,4.148,4.148,0,0,1-.963.095,3.164,3.164,0,0,1-1.2-.2,1.885,1.885,0,0,1-.762-.547,2.043,2.043,0,0,1-.4-.851,5.021,5.021,0,0,1-.112-1.106Z" transform="translate(-264.431 -391.568)"/></g></g></svg>