<svg xmlns="http://www.w3.org/2000/svg" width="203.842" height="30.351" viewBox="0 0 203.842 30.351"><defs><style>.a{fill:#151a4e;}.b{fill:#202583;}.c{fill:#727594;}</style></defs><g transform="translate(-30 -15)"><g transform="translate(30 15.23)"><path class="a" d="M322.116,229.431a13.13,13.13,0,0,1-.69,4.355,9.462,9.462,0,0,1-1.994,3.376,8.975,8.975,0,0,1-3.126,2.168,10.434,10.434,0,0,1-4.085.768,10.323,10.323,0,0,1-4.047-.768,8.952,8.952,0,0,1-3.126-2.168,9.909,9.909,0,0,1-2.033-3.376,12.5,12.5,0,0,1-.729-4.355,12.066,12.066,0,0,1,.748-4.336,9.837,9.837,0,0,1,2.071-3.338,9.309,9.309,0,0,1,3.145-2.148,10.751,10.751,0,0,1,7.978,0,9.106,9.106,0,0,1,3.126,2.148,9.77,9.77,0,0,1,2.033,3.338A12.352,12.352,0,0,1,322.116,229.431Zm-5.83,0a7.188,7.188,0,0,0-1.055-4.163,3.449,3.449,0,0,0-3.01-1.516,3.5,3.5,0,0,0-3.03,1.516,7.09,7.09,0,0,0-1.074,4.163,7.276,7.276,0,0,0,1.074,4.2,3.47,3.47,0,0,0,3.03,1.554,3.423,3.423,0,0,0,3.01-1.554A7.377,7.377,0,0,0,316.286,229.431Z" transform="translate(-284.204 -210.327)"/><path class="a" d="M404.174,213.3q-.769.23-1.767.441t-2.093.365q-1.1.153-2.227.249t-2.17.1a12.725,12.725,0,0,1-4.455-.729,8.945,8.945,0,0,1-3.3-2.091,9.056,9.056,0,0,1-2.054-3.3,12.563,12.563,0,0,1-.711-4.355,14.9,14.9,0,0,1,.615-4.432,9.637,9.637,0,0,1,1.766-3.357,7.567,7.567,0,0,1,2.823-2.11,9.474,9.474,0,0,1,3.821-.729,9.02,9.02,0,0,1,2.132.23,11.589,11.589,0,0,1,1.9.652v-8.565l5.722-.921ZM391.231,203.7a7,7,0,0,0,1.191,4.259,4.111,4.111,0,0,0,3.533,1.611q.768,0,1.421-.058t1.075-.134v-10.4a4.987,4.987,0,0,0-1.4-.575,6.753,6.753,0,0,0-1.748-.23Q391.232,198.179,391.231,203.7Z" transform="translate(-346.464 -184.774)"/><path class="a" d="M463.9,229.486a12.286,12.286,0,0,1,.823-4.683,10.033,10.033,0,0,1,2.162-3.345,8.993,8.993,0,0,1,3.08-2.026,9.655,9.655,0,0,1,3.578-.688,8.9,8.9,0,0,1,6.772,2.619q2.488,2.619,2.488,7.7c0,.332-.014.695-.039,1.09s-.051.746-.076,1.051H469.759A3.784,3.784,0,0,0,471.4,234a6.619,6.619,0,0,0,3.9,1.032,16.462,16.462,0,0,0,3.08-.287,11.6,11.6,0,0,0,2.468-.707l.765,4.626a7.873,7.873,0,0,1-1.224.459,16.036,16.036,0,0,1-1.7.4q-.938.172-2.009.287a20.065,20.065,0,0,1-2.143.115,12.691,12.691,0,0,1-4.726-.8,9.2,9.2,0,0,1-3.329-2.2,8.716,8.716,0,0,1-1.951-3.307A13.077,13.077,0,0,1,463.9,229.486Zm13.393-2.179a5.918,5.918,0,0,0-.249-1.414,3.549,3.549,0,0,0-.65-1.223,3.484,3.484,0,0,0-1.11-.879,3.621,3.621,0,0,0-1.665-.344,3.829,3.829,0,0,0-1.646.325,3.405,3.405,0,0,0-1.148.86,3.845,3.845,0,0,0-.708,1.242,8.125,8.125,0,0,0-.364,1.434Z" transform="translate(-405.279 -210.254)"/><path class="a" d="M245.366,233.936q-.357.164-.8.356a6.529,6.529,0,0,1-.952.321,12.018,12.018,0,0,1-1.278.252,11.186,11.186,0,0,1-1.618.105,5.6,5.6,0,0,1-2.34-.439,4.036,4.036,0,0,1-1.518-1.168,4.778,4.778,0,0,1-.85-1.793,9.632,9.632,0,0,1-.276-2.357,7.5,7.5,0,0,1,.411-2.647,4.83,4.83,0,0,1,1.063-1.719,3.938,3.938,0,0,1,1.5-.946,5.439,5.439,0,0,1,1.789-.3,9.419,9.419,0,0,1,2.54.314,10.042,10.042,0,0,1,1.967.764l.525.278,1.588-4.443-.351-.219c-.165-.1-.415-.237-.764-.412a9.215,9.215,0,0,0-1.325-.516,15.1,15.1,0,0,0-1.812-.431,13.139,13.139,0,0,0-2.312-.188,11.786,11.786,0,0,0-4.092.7,9.132,9.132,0,0,0-3.293,2.072A9.72,9.72,0,0,0,231,224.849a11.936,11.936,0,0,0-.786,4.449c0,3.32.874,5.93,2.6,7.758s4.262,2.769,7.523,2.769a15.651,15.651,0,0,0,3.991-.461,10.511,10.511,0,0,0,2.716-1.056Z" transform="translate(-230.213 -210.254)"/><path class="b" d="M546.2,213.732a43.037,43.037,0,0,1,1.074-6.522,62.294,62.294,0,0,1,2-6.65,56.04,56.04,0,0,1,2.641-6.157,35.65,35.65,0,0,1,2.963-4.849H543.4l.883-5.6,20.548.078s-3.981,6.945-5.083,8.718a48.2,48.2,0,0,0-3.135,6.028,55.678,55.678,0,0,0-2.576,7.23,37.367,37.367,0,0,0-1.353,7.723Z" transform="translate(-464.835 -184.185)"/></g><path class="c" d="M6.912-1.809q.891,0,1.579-.04A6.894,6.894,0,0,0,9.639-2V-6.183a3.218,3.218,0,0,0-.878-.229A9.76,9.76,0,0,0,7.29-6.507a9.507,9.507,0,0,0-1.2.081,3.7,3.7,0,0,0-1.161.338,2.487,2.487,0,0,0-.878.7A1.844,1.844,0,0,0,3.7-4.212a2.017,2.017,0,0,0,.864,1.876A4.5,4.5,0,0,0,6.912-1.809ZM6.7-14.391A7.277,7.277,0,0,1,9.248-14a4.135,4.135,0,0,1,1.674,1.107,4.192,4.192,0,0,1,.9,1.7,8.213,8.213,0,0,1,.27,2.174V-.243l-.9.148Q10.611,0,9.882.081T8.3.23Q7.452.3,6.615.3A9.247,9.247,0,0,1,4.428.054,4.891,4.891,0,0,1,2.7-.715a3.524,3.524,0,0,1-1.134-1.39,4.867,4.867,0,0,1-.4-2.079,4,4,0,0,1,.472-2,3.764,3.764,0,0,1,1.283-1.35,5.939,5.939,0,0,1,1.89-.756,10.306,10.306,0,0,1,2.268-.243q.378,0,.783.041t.769.108q.365.068.634.122t.378.081v-.7A5.646,5.646,0,0,0,9.5-10.111a2.81,2.81,0,0,0-.486-1.08,2.461,2.461,0,0,0-.958-.756,3.758,3.758,0,0,0-1.579-.283,11.863,11.863,0,0,0-2.174.175,7.6,7.6,0,0,0-1.39.365l-.3-2.079a7.737,7.737,0,0,1,1.62-.419A13.993,13.993,0,0,1,6.7-14.391ZM21.816.324a7.642,7.642,0,0,1-2.983-.54,6,6,0,0,1-2.16-1.512,6.277,6.277,0,0,1-1.31-2.308,9.575,9.575,0,0,1-.432-2.957,8.938,8.938,0,0,1,.472-2.97A7.013,7.013,0,0,1,16.74-12.3a5.99,5.99,0,0,1,2.12-1.539,6.854,6.854,0,0,1,2.794-.554,11.167,11.167,0,0,1,1.89.162,8.694,8.694,0,0,1,1.809.513l-.567,2.133a6.04,6.04,0,0,0-1.309-.432,7.4,7.4,0,0,0-1.58-.162,3.993,3.993,0,0,0-3.226,1.323A5.829,5.829,0,0,0,17.55-6.993a7.924,7.924,0,0,0,.257,2.079,4.29,4.29,0,0,0,.81,1.62,3.613,3.613,0,0,0,1.417,1.04,5.417,5.417,0,0,0,2.106.364,7.976,7.976,0,0,0,1.809-.189,6.616,6.616,0,0,0,1.269-.4l.351,2.106a2.636,2.636,0,0,1-.621.257,8.7,8.7,0,0,1-.918.216q-.513.095-1.093.162A9.706,9.706,0,0,1,21.816.324Zm12.015,0a7.642,7.642,0,0,1-2.984-.54,6,6,0,0,1-2.16-1.512,6.277,6.277,0,0,1-1.309-2.308,9.575,9.575,0,0,1-.432-2.957,8.938,8.938,0,0,1,.472-2.97A7.013,7.013,0,0,1,28.755-12.3a5.99,5.99,0,0,1,2.119-1.539,6.854,6.854,0,0,1,2.794-.554,11.167,11.167,0,0,1,1.89.162,8.694,8.694,0,0,1,1.809.513L36.8-11.583a6.04,6.04,0,0,0-1.31-.432,7.4,7.4,0,0,0-1.58-.162,3.993,3.993,0,0,0-3.226,1.323,5.829,5.829,0,0,0-1.121,3.861,7.924,7.924,0,0,0,.257,2.079,4.29,4.29,0,0,0,.81,1.62,3.613,3.613,0,0,0,1.417,1.04,5.417,5.417,0,0,0,2.106.364,7.976,7.976,0,0,0,1.809-.189,6.615,6.615,0,0,0,1.269-.4l.351,2.106a2.636,2.636,0,0,1-.621.257,8.7,8.7,0,0,1-.918.216q-.513.095-1.093.162A9.706,9.706,0,0,1,33.831.324ZM51.786-7.02A8.882,8.882,0,0,1,51.3-4a6.916,6.916,0,0,1-1.364,2.322,6,6,0,0,1-2.092,1.5A6.583,6.583,0,0,1,45.2.351a6.583,6.583,0,0,1-2.646-.527,6,6,0,0,1-2.092-1.5A6.916,6.916,0,0,1,39.1-4,8.882,8.882,0,0,1,38.61-7.02a8.913,8.913,0,0,1,.486-3.01,6.891,6.891,0,0,1,1.364-2.336,6,6,0,0,1,2.092-1.5,6.583,6.583,0,0,1,2.646-.527,6.583,6.583,0,0,1,2.646.527,6,6,0,0,1,2.092,1.5A6.891,6.891,0,0,1,51.3-10.03,8.913,8.913,0,0,1,51.786-7.02Zm-2.619,0A6.041,6.041,0,0,0,48.1-10.786a3.462,3.462,0,0,0-2.9-1.391,3.462,3.462,0,0,0-2.9,1.391A6.04,6.04,0,0,0,41.229-7.02,6.04,6.04,0,0,0,42.3-3.253a3.462,3.462,0,0,0,2.9,1.391,3.462,3.462,0,0,0,2.9-1.391A6.041,6.041,0,0,0,49.167-7.02ZM65.961-.405Q65.1-.189,63.68.054A19.609,19.609,0,0,1,60.4.3a6.953,6.953,0,0,1-2.727-.472A4.4,4.4,0,0,1,55.89-1.512a5.426,5.426,0,0,1-.972-2.039,10.63,10.63,0,0,1-.3-2.605V-14.04h2.511V-6.7a6.367,6.367,0,0,0,.81,3.672,3.155,3.155,0,0,0,2.727,1.107q.405,0,.837-.027t.81-.068q.378-.04.688-.081a2.025,2.025,0,0,0,.445-.095V-14.04h2.511Zm3.78-13.23q.864-.216,2.3-.459a19.856,19.856,0,0,1,3.294-.243,7.114,7.114,0,0,1,2.781.473,4.35,4.35,0,0,1,1.769,1.323,5.117,5.117,0,0,1,.932,2.038,11.827,11.827,0,0,1,.27,2.619V0H78.57V-7.344a11.987,11.987,0,0,0-.175-2.214,3.743,3.743,0,0,0-.58-1.485,2.3,2.3,0,0,0-1.08-.823,4.744,4.744,0,0,0-1.674-.257q-.4,0-.837.027t-.824.068q-.391.04-.7.094t-.446.081V0H69.741Zm17.307-.4h5.319v2.106H87.048v6.48a7.789,7.789,0,0,0,.162,1.741,2.616,2.616,0,0,0,.486,1.08,1.748,1.748,0,0,0,.81.553,3.59,3.59,0,0,0,1.134.162,5.334,5.334,0,0,0,1.823-.257q.688-.257.959-.364l.486,2.079a9.323,9.323,0,0,1-1.323.473A7.523,7.523,0,0,1,89.424.3a6.548,6.548,0,0,1-2.363-.364,3.441,3.441,0,0,1-1.5-1.094,4.379,4.379,0,0,1-.8-1.8,11.836,11.836,0,0,1-.229-2.47V-17.955l2.511-.432ZM98.28-1.809a4.942,4.942,0,0,0,2.281-.4,1.37,1.37,0,0,0,.743-1.3,1.721,1.721,0,0,0-.729-1.458,11.557,11.557,0,0,0-2.4-1.215q-.81-.324-1.552-.662a5.445,5.445,0,0,1-1.283-.8,3.476,3.476,0,0,1-.864-1.107,3.538,3.538,0,0,1-.324-1.593A3.577,3.577,0,0,1,95.526-13.3a5.876,5.876,0,0,1,3.753-1.093,10.513,10.513,0,0,1,1.188.068q.594.068,1.107.162t.9.2q.391.108.607.189l-.459,2.16a6.339,6.339,0,0,0-1.269-.445,8.189,8.189,0,0,0-2.079-.23,3.839,3.839,0,0,0-1.836.419,1.387,1.387,0,0,0-.783,1.309,1.788,1.788,0,0,0,.175.81,1.87,1.87,0,0,0,.54.634,4.44,4.44,0,0,0,.9.527q.54.243,1.3.513,1,.378,1.782.743a5.578,5.578,0,0,1,1.337.85,3.261,3.261,0,0,1,.851,1.174,4.259,4.259,0,0,1,.3,1.688A3.348,3.348,0,0,1,102.4-.675a7.191,7.191,0,0,1-4.118,1A10.761,10.761,0,0,1,95.364.014Q94.311-.3,93.933-.459l.459-2.16q.432.162,1.377.486A7.945,7.945,0,0,0,98.28-1.809Z" transform="translate(130 45)"/></g></svg>