<svg xmlns="http://www.w3.org/2000/svg" width="215" height="38.06" viewBox="0 0 215 38.06"><defs><style>.a{fill:#fff;}.b{fill:#b8b9c9;}</style></defs><g transform="translate(-30 -15)"><g transform="translate(30 15)"><path class="a" d="M324.118,230.5a14.455,14.455,0,0,1-.76,4.794,10.417,10.417,0,0,1-2.2,3.717,9.88,9.88,0,0,1-3.442,2.387,11.486,11.486,0,0,1-4.5.845,11.365,11.365,0,0,1-4.455-.845,9.855,9.855,0,0,1-3.442-2.387,10.909,10.909,0,0,1-2.238-3.717,13.755,13.755,0,0,1-.8-4.794,13.283,13.283,0,0,1,.824-4.774,10.829,10.829,0,0,1,2.28-3.675,10.248,10.248,0,0,1,3.463-2.365,11.836,11.836,0,0,1,8.784,0,10.025,10.025,0,0,1,3.442,2.365,10.756,10.756,0,0,1,2.238,3.675A13.6,13.6,0,0,1,324.118,230.5Zm-6.418,0a7.914,7.914,0,0,0-1.162-4.583,3.8,3.8,0,0,0-3.314-1.669,3.85,3.85,0,0,0-3.336,1.669A7.806,7.806,0,0,0,308.7,230.5a8.01,8.01,0,0,0,1.183,4.626,3.82,3.82,0,0,0,3.336,1.711,3.768,3.768,0,0,0,3.314-1.711A8.122,8.122,0,0,0,317.7,230.5Z" transform="translate(-282.379 -209.215)"/><path class="a" d="M406.069,216.179q-.847.254-1.945.486t-2.3.4q-1.206.168-2.452.274t-2.389.106a14.009,14.009,0,0,1-4.9-.8,9.847,9.847,0,0,1-3.636-2.3,9.971,9.971,0,0,1-2.262-3.633,13.832,13.832,0,0,1-.783-4.794,16.4,16.4,0,0,1,.677-4.879,10.609,10.609,0,0,1,1.944-3.7,8.331,8.331,0,0,1,3.107-2.323,10.431,10.431,0,0,1,4.207-.8,9.931,9.931,0,0,1,2.347.253,12.757,12.757,0,0,1,2.093.718v-9.43l6.3-1.014Zm-14.249-10.56a7.7,7.7,0,0,0,1.311,4.689,4.526,4.526,0,0,0,3.889,1.774q.846,0,1.565-.063t1.183-.148V200.423a5.491,5.491,0,0,0-1.543-.634,7.436,7.436,0,0,0-1.924-.253Q391.821,199.536,391.821,205.619Z" transform="translate(-342.534 -184.524)"/><path class="a" d="M463.9,230.57a13.526,13.526,0,0,1,.906-5.156,11.046,11.046,0,0,1,2.38-3.683,9.9,9.9,0,0,1,3.391-2.231,10.629,10.629,0,0,1,3.939-.757,9.8,9.8,0,0,1,7.456,2.883q2.739,2.883,2.739,8.481c0,.365-.015.765-.042,1.2s-.056.821-.084,1.158H470.35a4.166,4.166,0,0,0,1.811,3.073,7.288,7.288,0,0,0,4.3,1.136,18.124,18.124,0,0,0,3.391-.316,12.773,12.773,0,0,0,2.717-.778l.843,5.093a8.662,8.662,0,0,1-1.348.505,17.656,17.656,0,0,1-1.875.442q-1.033.19-2.212.316a22.087,22.087,0,0,1-2.359.127,13.972,13.972,0,0,1-5.2-.884,10.128,10.128,0,0,1-3.665-2.42,9.6,9.6,0,0,1-2.148-3.641A14.4,14.4,0,0,1,463.9,230.57Zm14.745-2.4a6.516,6.516,0,0,0-.274-1.557,3.909,3.909,0,0,0-.716-1.347,3.836,3.836,0,0,0-1.222-.968,3.986,3.986,0,0,0-1.833-.379,4.216,4.216,0,0,0-1.812.358,3.748,3.748,0,0,0-1.264.947,4.232,4.232,0,0,0-.779,1.368,8.943,8.943,0,0,0-.4,1.578Z" transform="translate(-399.361 -209.144)"/><path class="a" d="M246.9,235.469q-.393.181-.876.392a7.188,7.188,0,0,1-1.048.353,13.231,13.231,0,0,1-1.407.278,12.318,12.318,0,0,1-1.782.116,6.168,6.168,0,0,1-2.576-.483,4.444,4.444,0,0,1-1.671-1.286,5.261,5.261,0,0,1-.936-1.974,10.6,10.6,0,0,1-.3-2.595,8.259,8.259,0,0,1,.452-2.914,5.318,5.318,0,0,1,1.17-1.893,4.335,4.335,0,0,1,1.651-1.042,5.988,5.988,0,0,1,1.969-.335,10.37,10.37,0,0,1,2.8.345,11.055,11.055,0,0,1,2.166.841l.578.306,1.748-4.892-.387-.241c-.182-.113-.457-.261-.841-.453a10.142,10.142,0,0,0-1.459-.568,16.615,16.615,0,0,0-1.995-.475,14.465,14.465,0,0,0-2.546-.207,12.976,12.976,0,0,0-4.505.768,10.054,10.054,0,0,0-3.625,2.281,10.7,10.7,0,0,0-2.39,3.673,13.14,13.14,0,0,0-.866,4.9c0,3.655.962,6.528,2.859,8.541s4.693,3.049,8.282,3.049a17.23,17.23,0,0,0,4.394-.508,11.571,11.571,0,0,0,2.991-1.162Z" transform="translate(-230.213 -209.144)"/><path class="b" d="M546.485,216.738a47.377,47.377,0,0,1,1.182-7.18,68.592,68.592,0,0,1,2.2-7.322,61.7,61.7,0,0,1,2.908-6.778,39.234,39.234,0,0,1,3.262-5.338H543.4l.972-6.164,22.623.086s-4.383,7.646-5.6,9.6a53.062,53.062,0,0,0-3.451,6.637,61.291,61.291,0,0,0-2.836,7.959,41.137,41.137,0,0,0-1.489,8.5Z" transform="translate(-456.903 -183.955)"/></g><path class="a" d="M12.956-8.091a5.838,5.838,0,0,0-1.316-4.094,4.534,4.534,0,0,0-3.509-1.433,16.05,16.05,0,0,0-1.915.088,7.7,7.7,0,0,0-1.1.2v9.591a5.6,5.6,0,0,0,1.433.789,5.388,5.388,0,0,0,2.047.38,4.372,4.372,0,0,0,2-.424,3.677,3.677,0,0,0,1.36-1.17,4.943,4.943,0,0,0,.76-1.754A9.632,9.632,0,0,0,12.956-8.091Zm2.836,0A10.718,10.718,0,0,1,15.339-4.9a7.212,7.212,0,0,1-1.33,2.515A6.047,6.047,0,0,1,11.859-.751,6.892,6.892,0,0,1,8.95-.167,7.065,7.065,0,0,1,6.625-.518,7.34,7.34,0,0,1,5.119-1.19V4.892H2.4V-15.255q.965-.234,2.412-.512a17.921,17.921,0,0,1,3.348-.278,8.519,8.519,0,0,1,3.158.556,6.767,6.767,0,0,1,2.4,1.579,6.977,6.977,0,0,1,1.535,2.5A9.6,9.6,0,0,1,15.792-8.091Zm8.1,5.614q.965,0,1.711-.044a7.466,7.466,0,0,0,1.243-.161V-7.213a3.485,3.485,0,0,0-.95-.249,10.57,10.57,0,0,0-1.594-.1,10.3,10.3,0,0,0-1.3.088,4.009,4.009,0,0,0-1.257.366,2.693,2.693,0,0,0-.95.76,2,2,0,0,0-.38,1.272,2.184,2.184,0,0,0,.936,2.032A4.87,4.87,0,0,0,23.891-2.477ZM23.658-16.1a7.881,7.881,0,0,1,2.763.424,4.478,4.478,0,0,1,1.813,1.2,4.539,4.539,0,0,1,.98,1.842,8.9,8.9,0,0,1,.292,2.354v9.5l-.98.161q-.629.1-1.418.19T25.4-.269Q24.476-.2,23.57-.2A10.015,10.015,0,0,1,21.2-.459a5.3,5.3,0,0,1-1.871-.833A3.816,3.816,0,0,1,18.1-2.8a5.271,5.271,0,0,1-.439-2.251,4.333,4.333,0,0,1,.512-2.164,4.076,4.076,0,0,1,1.389-1.462,6.432,6.432,0,0,1,2.047-.819,11.161,11.161,0,0,1,2.456-.263q.409,0,.848.044t.833.117q.395.073.687.132t.409.088v-.76a6.115,6.115,0,0,0-.146-1.33,3.043,3.043,0,0,0-.526-1.17,2.665,2.665,0,0,0-1.038-.819,4.07,4.07,0,0,0-1.711-.307,12.847,12.847,0,0,0-2.354.19,8.23,8.23,0,0,0-1.506.395l-.322-2.251A8.379,8.379,0,0,1,21-15.883,15.154,15.154,0,0,1,23.658-16.1Zm15.088.058q.351,0,.8.044t.892.117q.439.073.8.146a4.906,4.906,0,0,1,.541.132l-.468,2.368a9.115,9.115,0,0,0-1.067-.278,9.354,9.354,0,0,0-1.915-.161,7.122,7.122,0,0,0-1.506.161q-.746.161-.98.219V-.518H33.131V-15.079a18.485,18.485,0,0,1,2.4-.658A15.4,15.4,0,0,1,38.745-16.044Zm7.339.322h5.76v2.281h-5.76v7.018a8.435,8.435,0,0,0,.175,1.886,2.833,2.833,0,0,0,.526,1.17,1.893,1.893,0,0,0,.877.6,3.888,3.888,0,0,0,1.228.175,5.776,5.776,0,0,0,1.974-.278q.746-.278,1.038-.395l.526,2.251A10.1,10.1,0,0,1,51-.5,8.147,8.147,0,0,1,48.658-.2,7.091,7.091,0,0,1,46.1-.591a3.726,3.726,0,0,1-1.623-1.184,4.742,4.742,0,0,1-.863-1.944,12.818,12.818,0,0,1-.249-2.675V-19.962l2.719-.468Zm8.333.439q.936-.234,2.485-.5a21.5,21.5,0,0,1,3.567-.263,7.7,7.7,0,0,1,3.012.512A4.711,4.711,0,0,1,65.4-14.1a5.542,5.542,0,0,1,1.009,2.208A12.808,12.808,0,0,1,66.7-9.056V-.518H63.98V-8.471a12.981,12.981,0,0,0-.19-2.4,4.053,4.053,0,0,0-.629-1.608,2.488,2.488,0,0,0-1.17-.892,5.138,5.138,0,0,0-1.813-.278q-.439,0-.906.029t-.892.073q-.424.044-.76.1t-.482.088V-.518H54.418ZM69.477-8.091a9.705,9.705,0,0,1,.585-3.523,7.362,7.362,0,0,1,1.55-2.5,6.292,6.292,0,0,1,2.222-1.491,6.942,6.942,0,0,1,2.573-.5,5.853,5.853,0,0,1,4.708,1.915q1.637,1.915,1.637,5.833V-7.9a4.141,4.141,0,0,1-.029.512H72.313a5.566,5.566,0,0,0,1.374,3.6A5.031,5.031,0,0,0,77.43-2.564a9.973,9.973,0,0,0,2.412-.249A8.7,8.7,0,0,0,81.319-3.3l.38,2.281a8.084,8.084,0,0,1-1.74.556,12.367,12.367,0,0,1-2.822.292,8.95,8.95,0,0,1-3.436-.6,6.41,6.41,0,0,1-2.383-1.652,6.741,6.741,0,0,1-1.389-2.5A10.574,10.574,0,0,1,69.477-8.091ZM79.915-9.582a4.562,4.562,0,0,0-.921-3.026,3.172,3.172,0,0,0-2.617-1.184,3.586,3.586,0,0,0-1.652.365,3.9,3.9,0,0,0-1.213.95,4.374,4.374,0,0,0-.775,1.345,6.636,6.636,0,0,0-.366,1.55Zm11.491-6.462q.351,0,.8.044t.892.117q.439.073.8.146a4.906,4.906,0,0,1,.541.132l-.468,2.368a9.115,9.115,0,0,0-1.067-.278A9.355,9.355,0,0,0,91-13.676a7.122,7.122,0,0,0-1.506.161q-.746.161-.98.219V-.518H85.793V-15.079a18.485,18.485,0,0,1,2.4-.658A15.4,15.4,0,0,1,91.407-16.044ZM99.74-2.477a5.352,5.352,0,0,0,2.471-.439,1.483,1.483,0,0,0,.8-1.4,1.864,1.864,0,0,0-.789-1.579,12.516,12.516,0,0,0-2.6-1.316q-.877-.351-1.681-.716a5.9,5.9,0,0,1-1.389-.863,3.765,3.765,0,0,1-.936-1.2,3.832,3.832,0,0,1-.351-1.725,3.873,3.873,0,0,1,1.491-3.2,6.363,6.363,0,0,1,4.064-1.184,11.385,11.385,0,0,1,1.287.073q.643.073,1.2.175t.98.219q.424.117.658.2l-.5,2.339a6.865,6.865,0,0,0-1.374-.482,8.868,8.868,0,0,0-2.251-.249,4.158,4.158,0,0,0-1.988.453,1.5,1.5,0,0,0-.848,1.418,1.937,1.937,0,0,0,.19.877,2.024,2.024,0,0,0,.585.687,4.809,4.809,0,0,0,.98.57q.585.263,1.4.556,1.082.409,1.93.8a6.041,6.041,0,0,1,1.447.921,3.531,3.531,0,0,1,.921,1.272,4.612,4.612,0,0,1,.322,1.828A3.626,3.626,0,0,1,104.2-1.249,7.788,7.788,0,0,1,99.74-.167,11.653,11.653,0,0,1,96.582-.5q-1.14-.336-1.55-.512l.5-2.339q.468.175,1.491.526A8.6,8.6,0,0,0,99.74-2.477Z" transform="translate(139.236 48.168)"/></g></svg>