<svg xmlns="http://www.w3.org/2000/svg" width="262.45" height="45.041" viewBox="0 0 262.45 45.041"><defs><style>.a{fill:#fff;}</style></defs><g transform="translate(-315 -75)"><g transform="translate(84.787 -108.955)"><g transform="translate(348.067 183.955)"><path class="a" d="M547.6,228.661a64.687,64.687,0,0,1,1.611-9.792,93.607,93.607,0,0,1,3-9.985,84.256,84.256,0,0,1,3.961-9.244,53.57,53.57,0,0,1,4.444-7.28H543.4l1.324-8.407,30.823.117s-5.971,10.426-7.625,13.089a72.392,72.392,0,0,0-4.7,9.05,83.644,83.644,0,0,0-3.865,10.854,56.163,56.163,0,0,0-2.029,11.6Z" transform="translate(-543.404 -183.955)"/></g><g transform="translate(230.213 184.251)"><path class="a" d="M332.031,234.74A19.728,19.728,0,0,1,331,241.278,14.206,14.206,0,0,1,328,246.347a13.463,13.463,0,0,1-4.689,3.255,15.638,15.638,0,0,1-6.127,1.153,15.473,15.473,0,0,1-6.07-1.153,13.428,13.428,0,0,1-4.689-3.255,14.877,14.877,0,0,1-3.05-5.069,18.773,18.773,0,0,1-1.094-6.538,18.13,18.13,0,0,1,1.122-6.51,14.771,14.771,0,0,1,3.107-5.012,13.962,13.962,0,0,1,4.718-3.226,16.113,16.113,0,0,1,11.968,0,13.659,13.659,0,0,1,4.689,3.226,14.669,14.669,0,0,1,3.049,5.012A18.556,18.556,0,0,1,332.031,234.74Zm-8.745,0a10.8,10.8,0,0,0-1.583-6.25,5.172,5.172,0,0,0-4.516-2.276,5.244,5.244,0,0,0-4.545,2.276,10.653,10.653,0,0,0-1.612,6.25,10.932,10.932,0,0,0,1.612,6.308,5.2,5.2,0,0,0,4.545,2.333,5.133,5.133,0,0,0,4.516-2.333A11.083,11.083,0,0,0,323.286,234.74Z" transform="translate(-275.164 -206.009)"/><path class="a" d="M413.563,227.613q-1.154.346-2.65.663t-3.139.547q-1.643.229-3.341.374t-3.255.144a19.071,19.071,0,0,1-6.683-1.094,13.416,13.416,0,0,1-4.954-3.139,13.6,13.6,0,0,1-3.081-4.954,18.877,18.877,0,0,1-1.066-6.538,22.389,22.389,0,0,1,.922-6.654,14.472,14.472,0,0,1,2.649-5.04,11.349,11.349,0,0,1,4.234-3.168,14.2,14.2,0,0,1,5.732-1.095,13.515,13.515,0,0,1,3.2.345,17.368,17.368,0,0,1,2.852.98V186.124l8.583-1.383Zm-19.413-14.4a10.511,10.511,0,0,0,1.786,6.394,6.164,6.164,0,0,0,5.3,2.419q1.152,0,2.132-.086t1.612-.2V206.126a7.478,7.478,0,0,0-2.1-.864,10.12,10.12,0,0,0-2.622-.345Q394.151,204.917,394.15,213.212Z" transform="translate(-326.999 -184.741)"/><path class="a" d="M463.9,234.872a18.461,18.461,0,0,1,1.235-7.032,15.066,15.066,0,0,1,3.243-5.022,13.49,13.49,0,0,1,4.62-3.042,14.471,14.471,0,0,1,5.367-1.033q6.427,0,10.159,3.932t3.732,11.565c0,.5-.02,1.043-.058,1.636s-.076,1.12-.115,1.579h-19.4a5.682,5.682,0,0,0,2.468,4.19,9.922,9.922,0,0,0,5.855,1.549,24.676,24.676,0,0,0,4.62-.43,17.392,17.392,0,0,0,3.7-1.062l1.148,6.945a11.809,11.809,0,0,1-1.837.689,24.042,24.042,0,0,1-2.554.6q-1.407.259-3.014.43a30.054,30.054,0,0,1-3.214.173,19.021,19.021,0,0,1-7.088-1.206,13.8,13.8,0,0,1-4.994-3.3,13.088,13.088,0,0,1-2.927-4.965A19.646,19.646,0,0,1,463.9,234.872Zm20.09-3.272a8.893,8.893,0,0,0-.374-2.123,5.331,5.331,0,0,0-.975-1.837,5.229,5.229,0,0,0-1.665-1.32,5.428,5.428,0,0,0-2.5-.516,5.739,5.739,0,0,0-2.469.488,5.107,5.107,0,0,0-1.721,1.291,5.774,5.774,0,0,0-1.062,1.865,12.2,12.2,0,0,0-.546,2.152Z" transform="translate(-375.967 -205.948)"/><path class="a" d="M252.942,241.553q-.535.247-1.194.535a9.8,9.8,0,0,1-1.428.481,18.009,18.009,0,0,1-1.916.379,16.758,16.758,0,0,1-2.428.158,8.4,8.4,0,0,1-3.51-.659,6.054,6.054,0,0,1-2.277-1.753A7.177,7.177,0,0,1,238.914,238a14.476,14.476,0,0,1-.414-3.538,11.274,11.274,0,0,1,.616-3.974,7.255,7.255,0,0,1,1.594-2.581,5.908,5.908,0,0,1,2.249-1.421,8.151,8.151,0,0,1,2.683-.457,14.118,14.118,0,0,1,3.809.471,15.062,15.062,0,0,1,2.951,1.147l.787.417,2.382-6.671-.527-.329c-.248-.154-.622-.356-1.145-.618a13.818,13.818,0,0,0-1.988-.775,22.633,22.633,0,0,0-2.718-.648,19.7,19.7,0,0,0-3.469-.283,17.666,17.666,0,0,0-6.138,1.047,13.7,13.7,0,0,0-4.939,3.111,14.594,14.594,0,0,0-3.256,5.009,17.935,17.935,0,0,0-1.18,6.679c0,4.984,1.311,8.9,3.9,11.647s6.394,4.157,11.285,4.157a23.461,23.461,0,0,0,5.987-.692,15.758,15.758,0,0,0,4.075-1.585Z" transform="translate(-230.213 -205.948)"/></g></g><path class="a" d="M13.23-7.77a5.99,5.99,0,0,0-1.35-4.2,4.652,4.652,0,0,0-3.6-1.47,16.466,16.466,0,0,0-1.965.09,7.9,7.9,0,0,0-1.125.21V-3.3a5.743,5.743,0,0,0,1.47.81,5.528,5.528,0,0,0,2.1.39,4.486,4.486,0,0,0,2.055-.435,3.773,3.773,0,0,0,1.395-1.2,5.072,5.072,0,0,0,.78-1.8A9.882,9.882,0,0,0,13.23-7.77Zm2.91,0a11,11,0,0,1-.465,3.27A7.4,7.4,0,0,1,14.31-1.92,6.2,6.2,0,0,1,12.1-.24,7.072,7.072,0,0,1,9.12.36,7.249,7.249,0,0,1,6.735,0,7.531,7.531,0,0,1,5.19-.69V5.55H2.4V-15.12q.99-.24,2.475-.525A18.386,18.386,0,0,1,8.31-15.93a8.74,8.74,0,0,1,3.24.57,6.943,6.943,0,0,1,2.46,1.62,7.158,7.158,0,0,1,1.575,2.565A9.846,9.846,0,0,1,16.14-7.77Zm8.31,5.76q.99,0,1.755-.045A7.66,7.66,0,0,0,27.48-2.22V-6.87a3.576,3.576,0,0,0-.975-.255A10.844,10.844,0,0,0,24.87-7.23a10.563,10.563,0,0,0-1.335.09,4.113,4.113,0,0,0-1.29.375,2.763,2.763,0,0,0-.975.78,2.048,2.048,0,0,0-.39,1.3,2.241,2.241,0,0,0,.96,2.085A5,5,0,0,0,24.45-2.01Zm-.24-13.98a8.086,8.086,0,0,1,2.835.435,4.594,4.594,0,0,1,1.86,1.23,4.657,4.657,0,0,1,1,1.89,9.126,9.126,0,0,1,.3,2.415V-.27L29.2-.105Q28.56,0,27.75.09T26,.255Q25.05.33,24.12.33A10.275,10.275,0,0,1,21.69.06,5.435,5.435,0,0,1,19.77-.8,3.915,3.915,0,0,1,18.51-2.34a5.408,5.408,0,0,1-.45-2.31,4.446,4.446,0,0,1,.525-2.22,4.182,4.182,0,0,1,1.425-1.5,6.6,6.6,0,0,1,2.1-.84,11.451,11.451,0,0,1,2.52-.27q.42,0,.87.045t.855.12q.405.075.705.135t.42.09v-.78a6.274,6.274,0,0,0-.15-1.365,3.122,3.122,0,0,0-.54-1.2,2.734,2.734,0,0,0-1.065-.84,4.176,4.176,0,0,0-1.755-.315,13.181,13.181,0,0,0-2.415.195,8.444,8.444,0,0,0-1.545.405l-.33-2.31a8.6,8.6,0,0,1,1.8-.465A15.547,15.547,0,0,1,24.21-15.99Zm15.48.06q.36,0,.825.045t.915.12q.45.075.825.15a5.033,5.033,0,0,1,.555.135l-.48,2.43a9.351,9.351,0,0,0-1.1-.285A9.6,9.6,0,0,0,39.27-13.5a7.308,7.308,0,0,0-1.545.165q-.765.165-1,.225V0H33.93V-14.94a18.965,18.965,0,0,1,2.46-.675A15.8,15.8,0,0,1,39.69-15.93Zm7.53.33h5.91v2.34H47.22v7.2a8.654,8.654,0,0,0,.18,1.935,2.907,2.907,0,0,0,.54,1.2,1.943,1.943,0,0,0,.9.615,3.989,3.989,0,0,0,1.26.18,5.926,5.926,0,0,0,2.025-.285q.765-.285,1.065-.4l.54,2.31a10.359,10.359,0,0,1-1.47.525,8.359,8.359,0,0,1-2.4.315,7.275,7.275,0,0,1-2.625-.4A3.823,3.823,0,0,1,45.57-1.29a4.866,4.866,0,0,1-.885-1.995A13.151,13.151,0,0,1,44.43-6.03V-19.95l2.79-.48Zm8.55.45q.96-.24,2.55-.51a22.062,22.062,0,0,1,3.66-.27,7.9,7.9,0,0,1,3.09.525,4.833,4.833,0,0,1,1.965,1.47A5.686,5.686,0,0,1,68.07-11.67a13.141,13.141,0,0,1,.3,2.91V0H65.58V-8.16a13.319,13.319,0,0,0-.195-2.46,4.159,4.159,0,0,0-.645-1.65,2.552,2.552,0,0,0-1.2-.915,5.272,5.272,0,0,0-1.86-.285q-.45,0-.93.03t-.915.075q-.435.045-.78.1t-.5.09V0H55.77ZM71.22-7.77a9.958,9.958,0,0,1,.6-3.615,7.553,7.553,0,0,1,1.59-2.565,6.456,6.456,0,0,1,2.28-1.53,7.122,7.122,0,0,1,2.64-.51,6,6,0,0,1,4.83,1.965q1.68,1.965,1.68,5.985v.465a4.249,4.249,0,0,1-.03.525H74.13a5.711,5.711,0,0,0,1.41,3.69A5.162,5.162,0,0,0,79.38-2.1a10.232,10.232,0,0,0,2.475-.255A8.922,8.922,0,0,0,83.37-2.85l.39,2.34a8.294,8.294,0,0,1-1.785.57,12.688,12.688,0,0,1-2.9.3,9.183,9.183,0,0,1-3.525-.615A6.576,6.576,0,0,1,73.11-1.95a6.916,6.916,0,0,1-1.425-2.565A10.848,10.848,0,0,1,71.22-7.77ZM81.93-9.3a4.681,4.681,0,0,0-.945-3.105A3.254,3.254,0,0,0,78.3-13.62a3.679,3.679,0,0,0-1.695.375,4,4,0,0,0-1.245.975,4.488,4.488,0,0,0-.795,1.38A6.809,6.809,0,0,0,74.19-9.3Zm11.79-6.63q.36,0,.825.045t.915.12q.45.075.825.15a5.033,5.033,0,0,1,.555.135l-.48,2.43a9.351,9.351,0,0,0-1.1-.285A9.6,9.6,0,0,0,93.3-13.5a7.308,7.308,0,0,0-1.545.165q-.765.165-1,.225V0H87.96V-14.94a18.965,18.965,0,0,1,2.46-.675A15.8,15.8,0,0,1,93.72-15.93Zm8.55,13.92a5.492,5.492,0,0,0,2.535-.45,1.522,1.522,0,0,0,.825-1.44,1.912,1.912,0,0,0-.81-1.62,12.841,12.841,0,0,0-2.67-1.35q-.9-.36-1.725-.735A6.05,6.05,0,0,1,99-8.49a3.863,3.863,0,0,1-.96-1.23,3.931,3.931,0,0,1-.36-1.77,3.974,3.974,0,0,1,1.53-3.285,6.529,6.529,0,0,1,4.17-1.215,11.681,11.681,0,0,1,1.32.075q.66.075,1.23.18t1,.225q.435.12.675.21l-.51,2.4a7.044,7.044,0,0,0-1.41-.495,9.1,9.1,0,0,0-2.31-.255,4.266,4.266,0,0,0-2.04.465,1.541,1.541,0,0,0-.87,1.455,1.987,1.987,0,0,0,.195.9,2.077,2.077,0,0,0,.6.7,4.933,4.933,0,0,0,1,.585q.6.27,1.44.57,1.11.42,1.98.825a6.2,6.2,0,0,1,1.485.945,3.623,3.623,0,0,1,.945,1.3,4.732,4.732,0,0,1,.33,1.875,3.72,3.72,0,0,1-1.6,3.27A7.99,7.99,0,0,1,102.27.36,11.956,11.956,0,0,1,99.03.015Q97.86-.33,97.44-.51l.51-2.4q.48.18,1.53.54A8.828,8.828,0,0,0,102.27-2.01Z" transform="translate(469 113)"/></g></svg>