<svg xmlns="http://www.w3.org/2000/svg" width="134.286" height="40.323" viewBox="0 0 134.286 40.323"><defs><style>.a{fill:#5d5d69;}</style></defs><g transform="translate(-230.213 -183.955)"><g transform="translate(335.72 183.955)"><path class="a" d="M547.162,223.978a57.905,57.905,0,0,1,1.442-8.766,83.776,83.776,0,0,1,2.682-8.939A75.381,75.381,0,0,1,554.833,198a47.917,47.917,0,0,1,3.979-6.517H543.4l1.185-7.526,27.594.1s-5.346,9.334-6.826,11.718a64.8,64.8,0,0,0-4.21,8.1,74.885,74.885,0,0,0-3.46,9.717,50.271,50.271,0,0,0-1.816,10.381Z" transform="translate(-543.404 -183.955)"/></g><g transform="translate(230.213 184.22)"><path class="a" d="M328.915,233.074a17.659,17.659,0,0,1-.927,5.853,12.72,12.72,0,0,1-2.678,4.538,12.053,12.053,0,0,1-4.2,2.914,14,14,0,0,1-5.485,1.032,13.851,13.851,0,0,1-5.434-1.032,12.022,12.022,0,0,1-4.2-2.914,13.32,13.32,0,0,1-2.73-4.538,16.807,16.807,0,0,1-.979-5.853,16.23,16.23,0,0,1,1-5.828,13.224,13.224,0,0,1,2.781-4.487,12.5,12.5,0,0,1,4.224-2.888,14.425,14.425,0,0,1,10.714,0,12.227,12.227,0,0,1,4.2,2.888,13.133,13.133,0,0,1,2.73,4.487A16.614,16.614,0,0,1,328.915,233.074Zm-7.829,0a9.668,9.668,0,0,0-1.417-5.6,4.63,4.63,0,0,0-4.043-2.037,4.7,4.7,0,0,0-4.069,2.037,9.537,9.537,0,0,0-1.443,5.6,9.787,9.787,0,0,0,1.443,5.647,4.659,4.659,0,0,0,4.069,2.088,4.6,4.6,0,0,0,4.043-2.088A9.923,9.923,0,0,0,321.086,233.074Z" transform="translate(-278.005 -207.353)"/><path class="a" d="M410.612,223.122q-1.033.31-2.373.593t-2.81.49q-1.471.205-2.991.335t-2.914.129a17.073,17.073,0,0,1-5.983-.98,12.011,12.011,0,0,1-4.435-2.811,12.175,12.175,0,0,1-2.759-4.435,16.9,16.9,0,0,1-.955-5.853,20.04,20.04,0,0,1,.826-5.957,12.956,12.956,0,0,1,2.372-4.512,10.161,10.161,0,0,1,3.79-2.837,12.712,12.712,0,0,1,5.131-.98,12.1,12.1,0,0,1,2.862.309,15.555,15.555,0,0,1,2.553.877V185.979l7.684-1.238Zm-17.38-12.892a9.409,9.409,0,0,0,1.6,5.724,5.518,5.518,0,0,0,4.744,2.166q1.031,0,1.909-.077t1.444-.18V203.886a6.693,6.693,0,0,0-1.882-.773,9.062,9.062,0,0,0-2.347-.309Q393.234,202.8,393.233,210.229Z" transform="translate(-333.117 -184.741)"/><path class="a" d="M463.905,233.182a16.527,16.527,0,0,1,1.105-6.295,13.487,13.487,0,0,1,2.9-4.5,12.076,12.076,0,0,1,4.136-2.723,12.955,12.955,0,0,1,4.8-.925,11.943,11.943,0,0,1,9.094,3.52q3.341,3.52,3.341,10.354c0,.446-.018.934-.052,1.464s-.068,1-.1,1.413H471.767a5.087,5.087,0,0,0,2.21,3.751,8.883,8.883,0,0,0,5.241,1.387,22.084,22.084,0,0,0,4.136-.385,15.565,15.565,0,0,0,3.314-.95l1.028,6.217a10.56,10.56,0,0,1-1.644.617,21.527,21.527,0,0,1-2.286.539q-1.26.231-2.7.385a26.918,26.918,0,0,1-2.877.155,17.028,17.028,0,0,1-6.346-1.079,12.351,12.351,0,0,1-4.471-2.954,11.717,11.717,0,0,1-2.62-4.445A17.592,17.592,0,0,1,463.905,233.182Zm17.985-2.929a7.964,7.964,0,0,0-.335-1.9,4.771,4.771,0,0,0-.873-1.644,4.68,4.68,0,0,0-1.49-1.182,4.859,4.859,0,0,0-2.235-.462,5.138,5.138,0,0,0-2.21.437,4.573,4.573,0,0,0-1.541,1.156,5.17,5.17,0,0,0-.95,1.67,10.928,10.928,0,0,0-.489,1.927Z" transform="translate(-385.179 -207.288)"/><path class="a" d="M250.561,239.163q-.48.221-1.069.479a8.765,8.765,0,0,1-1.278.431,16.115,16.115,0,0,1-1.716.339,15.007,15.007,0,0,1-2.173.142,7.516,7.516,0,0,1-3.142-.59,5.42,5.42,0,0,1-2.038-1.57,6.425,6.425,0,0,1-1.142-2.41,12.957,12.957,0,0,1-.37-3.168,10.093,10.093,0,0,1,.551-3.558,6.493,6.493,0,0,1,1.427-2.311,5.288,5.288,0,0,1,2.013-1.272,7.3,7.3,0,0,1,2.4-.409,12.638,12.638,0,0,1,3.41.421,13.476,13.476,0,0,1,2.642,1.027l.7.374,2.132-5.972-.472-.294c-.222-.138-.557-.319-1.025-.553a12.367,12.367,0,0,0-1.78-.694,20.258,20.258,0,0,0-2.433-.58,17.629,17.629,0,0,0-3.105-.253,15.814,15.814,0,0,0-5.5.938,12.261,12.261,0,0,0-4.422,2.785,13.065,13.065,0,0,0-2.915,4.485,16.056,16.056,0,0,0-1.056,5.979c0,4.462,1.173,7.97,3.487,10.427s5.724,3.722,10.1,3.722a21,21,0,0,0,5.36-.62,14.1,14.1,0,0,0,3.648-1.419Z" transform="translate(-230.213 -207.288)"/></g></g></svg>