<svg xmlns="http://www.w3.org/2000/svg" width="60" height="60" viewBox="0 0 60 60"><defs><style>.a{fill:#feb327;}.b{fill:#fff;}</style></defs><g transform="translate(-1043.45 -384.82)"><path class="a" d="M877.981,377.987H858.15a20.144,20.144,0,0,0-20.085,20.084v39.916h39.916A20.144,20.144,0,0,0,898.065,417.9V398.071A20.143,20.143,0,0,0,877.981,377.987Z" transform="translate(205.385 6.833)"/><path class="b" d="M-8.977-3.771a5.534,5.534,0,0,0-.5-2.747,1.847,1.847,0,0,0-1.71-.808q-.377,0-.781.04t-.781.094V3.742H-16.76V-9.938q.512-.135,1.2-.283t1.454-.269q.767-.121,1.575-.189t1.589-.067a6.678,6.678,0,0,1,2.491.39,5.62,5.62,0,0,1,1.575.929A6.894,6.894,0,0,1-4.9-10.4a6.932,6.932,0,0,1,2.06-.35,7.075,7.075,0,0,1,2.787.471A4.2,4.2,0,0,1,1.687-8.942,5.044,5.044,0,0,1,2.575-6.9a13.208,13.208,0,0,1,.242,2.639v8H-1.195V-3.771a5.534,5.534,0,0,0-.5-2.747A1.847,1.847,0,0,0-3.4-7.326a3.615,3.615,0,0,0-.9.162,3.519,3.519,0,0,0-.956.4,6.115,6.115,0,0,1,.242,1.306q.054.687.054,1.468V3.742H-8.977ZM4.837-9.938a22.367,22.367,0,0,1,2.639-.552,21.687,21.687,0,0,1,3.393-.256,8.265,8.265,0,0,1,3,.471,4.51,4.51,0,0,1,1.9,1.333,5.194,5.194,0,0,1,1,2.047,10.889,10.889,0,0,1,.3,2.639v8H13.051V-3.771a5.409,5.409,0,0,0-.512-2.747,2.087,2.087,0,0,0-1.912-.808q-.431,0-.916.04t-.862.094V3.742H4.837ZM23.149.86A4.006,4.006,0,0,0,24.711.645a.832.832,0,0,0,.458-.835,1.022,1.022,0,0,0-.592-.848,11.258,11.258,0,0,0-1.8-.821,18.491,18.491,0,0,1-1.71-.727,5.026,5.026,0,0,1-1.306-.9,3.649,3.649,0,0,1-.835-1.252,4.636,4.636,0,0,1-.3-1.75,3.785,3.785,0,0,1,1.481-3.151A6.443,6.443,0,0,1,24.173-10.8a13.039,13.039,0,0,1,2.477.229,11.527,11.527,0,0,1,1.885.5l-.7,3.124a14.733,14.733,0,0,0-1.522-.431,8.269,8.269,0,0,0-1.845-.189q-1.885,0-1.885,1.05a1.085,1.085,0,0,0,.081.431.919.919,0,0,0,.323.364,4.5,4.5,0,0,0,.66.377q.417.2,1.064.444a16.433,16.433,0,0,1,2.181.956,5.125,5.125,0,0,1,1.36,1.023,3.177,3.177,0,0,1,.7,1.225,5.45,5.45,0,0,1,.2,1.562,3.6,3.6,0,0,1-1.575,3.178,7.842,7.842,0,0,1-4.457,1.077A12.809,12.809,0,0,1,19.985,3.8a12.719,12.719,0,0,1-1.737-.539L18.921,0a13.162,13.162,0,0,0,2.1.633A10.214,10.214,0,0,0,23.149.86Z" transform="translate(1068.006 419.022)"/></g></svg>