<svg xmlns="http://www.w3.org/2000/svg" xmlns:xlink="http://www.w3.org/1999/xlink" width="22" height="22" viewBox="0 0 22 22"><defs><style>.a,.b{fill-rule:evenodd;}.a{fill:url(#a);}.b{fill:#fff;}</style><linearGradient id="a" x1="0.5" x2="0.5" y2="1" gradientUnits="objectBoundingBox"><stop offset="0" stop-color="#00b2ff"/><stop offset="1" stop-color="#006aff"/></linearGradient></defs><path class="a" d="M26,11.5c-6.2,0-11,4.54-11,10.67a10.439,10.439,0,0,0,3.455,7.893.886.886,0,0,1,.3.626l.06,1.957a.882.882,0,0,0,1.235.779l2.182-.963a.878.878,0,0,1,.587-.044A11.964,11.964,0,0,0,26,32.841c6.2,0,11-4.54,11-10.67S32.2,11.5,26,11.5Z" transform="translate(-15 -11.5)"/><path class="b" d="M209.814,352.477l3.231-5.126a1.651,1.651,0,0,1,2.386-.44l2.57,1.928a.661.661,0,0,0,.795,0l3.47-2.634a.522.522,0,0,1,.757.695l-3.229,5.124a1.651,1.651,0,0,1-2.386.44l-2.57-1.928a.661.661,0,0,0-.795,0l-3.473,2.636A.522.522,0,0,1,209.814,352.477Z" transform="translate(-205.418 -338.686)"/></svg>