<svg xmlns="http://www.w3.org/2000/svg" width="17.814" height="12" viewBox="0 0 17.814 12"><defs><style>.a{fill:#2e2e3d;}</style></defs><path class="a" d="M229.894,403.792l-.144,0a4.935,4.935,0,0,1-3.469-1.553.5.5,0,0,1-.134-.4A2.789,2.789,0,0,1,228,399.561a2.294,2.294,0,0,1-.2-.3,2.39,2.39,0,1,1,3.981.3,2.782,2.782,0,0,1,1.852,2.276.5.5,0,0,1-.132.4q-.1.1-.2.2A4.933,4.933,0,0,1,229.894,403.792Zm-2.711-2.067a3.967,3.967,0,0,0,5.414,0c-.18-.7-.812-1.194-1.921-1.49a.5.5,0,0,1-.113-.92,1.39,1.39,0,1,0-1.346,0,.5.5,0,0,1-.113.92C227.995,400.532,227.364,401.021,227.183,401.725Z" transform="translate(-224.144 -393.71)"/><path class="a" d="M239.809,405.75H226.13a2.071,2.071,0,0,1-2.068-2.068v-7.676a2.259,2.259,0,0,1,2.256-2.256h13.491a2.07,2.07,0,0,1,2.067,2.068v7.864A2.07,2.07,0,0,1,239.809,405.75Zm-13.491-11a1.257,1.257,0,0,0-1.256,1.256v7.676a1.07,1.07,0,0,0,1.068,1.068h13.679a1.069,1.069,0,0,0,1.067-1.068v-7.864a1.069,1.069,0,0,0-1.067-1.068Z" transform="translate(-224.062 -393.75)"/><path class="a" d="M239.549,397.415H233.44a.5.5,0,0,1,0-1h6.109a.5.5,0,0,1,0,1Z" transform="translate(-224.062 -394.415)"/><path class="a" d="M239.549,399.3h-2.663a.5.5,0,0,1,0-1h2.663a.5.5,0,1,1,0,1Z" transform="translate(-224.062 -394.305)"/><path class="a" d="M239.549,401.2h-4.794a.5.5,0,1,1,0-1h4.794a.5.5,0,0,1,0,1Z" transform="translate(-224.062 -394.195)"/><path class="a" d="M239.549,403.085h-3.828a.5.5,0,0,1,0-1h3.828a.5.5,0,0,1,0,1Z" transform="translate(-224.062 -394.085)"/></svg>