<svg xmlns="http://www.w3.org/2000/svg" width="60.081" height="60" viewBox="0 0 60.081 60"><defs><style>.a{fill:#29d6b0;}.b{fill:#fff;}</style></defs><g transform="translate(-825.963 -385.165)"><path class="a" d="M727.547,378.332H707.689a20.156,20.156,0,0,0-20.111,20.084v39.916h39.968a20.158,20.158,0,0,0,20.112-20.085V398.416A20.157,20.157,0,0,0,727.547,378.332Z" transform="translate(138.385 6.833)"/><g transform="translate(829.947 402.549)"><path class="b" d="M704.213,402.948a9.016,9.016,0,0,1-.476,3,6.525,6.525,0,0,1-1.377,2.324,6.2,6.2,0,0,1-2.156,1.494,7.727,7.727,0,0,1-5.61,0,6.215,6.215,0,0,1-2.156-1.494,6.85,6.85,0,0,1-1.4-2.324,8.617,8.617,0,0,1-.5-3,8.285,8.285,0,0,1,.516-2.986,6.76,6.76,0,0,1,1.429-2.3,6.436,6.436,0,0,1,2.169-1.48,7.428,7.428,0,0,1,5.5,0,6.267,6.267,0,0,1,2.158,1.48,6.711,6.711,0,0,1,1.4,2.3A8.469,8.469,0,0,1,704.213,402.948Zm-4.022,0a4.958,4.958,0,0,0-.726-2.868,2.382,2.382,0,0,0-2.078-1.043,2.413,2.413,0,0,0-2.09,1.043,4.873,4.873,0,0,0-.742,2.868,4.993,4.993,0,0,0,.742,2.892,2.392,2.392,0,0,0,2.09,1.071,2.362,2.362,0,0,0,2.078-1.071A5.081,5.081,0,0,0,700.191,402.948Z" transform="translate(-690.533 -389.683)"/><path class="b" d="M708.621,402.538a5.435,5.435,0,0,0-.49-2.7,1.819,1.819,0,0,0-1.681-.793q-.37,0-.768.039c-.264.028-.52.058-.767.094V409.91h-3.943V396.487c.335-.089.727-.181,1.177-.278s.926-.186,1.429-.265,1.018-.14,1.548-.183,1.049-.066,1.561-.066a6.582,6.582,0,0,1,2.447.383,5.477,5.477,0,0,1,1.548.911,7.365,7.365,0,0,1,3.969-1.294,6.95,6.95,0,0,1,2.738.462,4.119,4.119,0,0,1,1.707,1.306,4.961,4.961,0,0,1,.874,2.01,13.007,13.007,0,0,1,.239,2.589v7.848h-3.944v-7.372a5.435,5.435,0,0,0-.489-2.7,1.817,1.817,0,0,0-1.68-.793,3.592,3.592,0,0,0-.887.159,3.4,3.4,0,0,0-.938.4,6.132,6.132,0,0,1,.239,1.281c.034.449.052.93.052,1.441v7.584h-3.942Z" transform="translate(-686.897 -389.668)"/><path class="b" d="M715.928,396.487a22.11,22.11,0,0,1,2.593-.543,21.365,21.365,0,0,1,3.334-.249,8.116,8.116,0,0,1,2.95.462,4.432,4.432,0,0,1,1.866,1.306,5.081,5.081,0,0,1,.977,2.01,10.579,10.579,0,0,1,.291,2.589v7.848H724v-7.372a5.3,5.3,0,0,0-.5-2.7,2.05,2.05,0,0,0-1.878-.793c-.282,0-.582.013-.9.039s-.6.058-.846.094V409.91h-3.943Z" transform="translate(-681.688 -389.668)"/><path class="b" d="M729.939,393.551a2.152,2.152,0,0,1-.7,1.7,2.511,2.511,0,0,1-3.307,0,2.422,2.422,0,0,1,0-3.409,2.514,2.514,0,0,1,3.307,0A2.161,2.161,0,0,1,729.939,393.551Zm-.37,17.916h-3.942v-13.9h3.942Z" transform="translate(-678.449 -391.225)"/></g></g></svg>