<svg xmlns="http://www.w3.org/2000/svg" width="60.001" height="60" viewBox="0 0 60.001 60"><defs><style>.a{fill:#ff457c;}.b{fill:#fff;}</style></defs><g transform="translate(-430.546 -384.951)"><path class="a" d="M432.078,378.118H412.247A20.144,20.144,0,0,0,392.161,398.2v39.916h39.917a20.143,20.143,0,0,0,20.084-20.084V398.2A20.143,20.143,0,0,0,432.078,378.118Z" transform="translate(38.385 6.833)"/><g transform="translate(441.477 402.072)"><path class="b" d="M413.2,402.772a10.139,10.139,0,0,1-.4,2.933,6.592,6.592,0,0,1-1.162,2.273,5.254,5.254,0,0,1-1.9,1.48,6.148,6.148,0,0,1-2.615.528,7.019,7.019,0,0,1-1.534-.159,7.322,7.322,0,0,1-1.375-.448v5.233h-3.936V396.3q.527-.157,1.215-.3c.458-.1.938-.181,1.439-.252s1.014-.128,1.534-.172,1.018-.066,1.492-.066a8.552,8.552,0,0,1,3.067.516,6.3,6.3,0,0,1,2.272,1.453,6.233,6.233,0,0,1,1.414,2.288A8.784,8.784,0,0,1,413.2,402.772Zm-4.017.105a4.776,4.776,0,0,0-.819-2.921,2.848,2.848,0,0,0-2.432-1.1c-.353,0-.679.012-.978.04s-.547.057-.741.092V406.1a3.444,3.444,0,0,0,.965.395,4.566,4.566,0,0,0,1.2.16Q409.184,406.657,409.183,402.878Z" transform="translate(-400.279 -389.215)"/><path class="b" d="M423.876,404.391a8.789,8.789,0,0,1-.489,3.012,6.356,6.356,0,0,1-1.414,2.3,6.208,6.208,0,0,1-2.272,1.466,8.522,8.522,0,0,1-3.067.516c-.474,0-.972-.023-1.492-.066s-1.031-.1-1.534-.172-.982-.154-1.439-.251-.863-.2-1.216-.3V391.469l3.937-.635v6.924a7.4,7.4,0,0,1,1.375-.448,7.008,7.008,0,0,1,1.532-.159,6.278,6.278,0,0,1,2.616.516,5.122,5.122,0,0,1,1.9,1.468,6.545,6.545,0,0,1,1.162,2.285A10.432,10.432,0,0,1,423.876,404.391Zm-4.016-.106q0-3.8-2.8-3.805a4.672,4.672,0,0,0-1.2.159,3.44,3.44,0,0,0-.965.4V408.2c.194.035.44.066.741.092s.625.04.978.04a2.828,2.828,0,0,0,2.43-1.111A4.817,4.817,0,0,0,419.86,404.285Z" transform="translate(-396.58 -390.833)"/><path class="b" d="M427.194,399.637l2.762-3.9h4.07L429.2,402.5a41.116,41.116,0,0,1,2.945,3.786,34.145,34.145,0,0,1,2.063,3.354h-4.221q-.216-.4-.532-.992t-.712-1.243a6.5,6.5,0,0,0-.827-1.1q-.432-.448-.85-.817c-.267.228-.539.479-.813.755a5.423,5.423,0,0,0-.784,1.034c-.248.415-.49.823-.73,1.227s-.451.782-.635,1.134H420.1c.221-.434.514-.952.877-1.555s.762-1.227,1.2-1.869a23.153,23.153,0,0,1,1.406-1.87q.757-.909,1.484-1.7L422.57,399.1,420.2,395.74h4.255Z" transform="translate(-393.411 -389.133)"/></g></g></svg>