<svg xmlns="http://www.w3.org/2000/svg" width="60.001" height="60" viewBox="0 0 60.001 60"><defs><style>.a{fill:#1ea9ec;}.b{fill:#fff;}</style></defs><g transform="translate(-359.5 -384.951)"><path class="a" d="M581.03,378.118H561.2A20.143,20.143,0,0,0,541.115,398.2v39.916H581.03a20.144,20.144,0,0,0,20.086-20.084V398.2A20.144,20.144,0,0,0,581.03,378.118Z" transform="translate(-181.615 6.833)"/><g transform="translate(371.978 402.21)"><g transform="translate(0 5.77)"><path class="b" d="M555.113,406.475a3.836,3.836,0,0,0,1.508-.209.8.8,0,0,0,.442-.805.988.988,0,0,0-.572-.819,10.88,10.88,0,0,0-1.741-.792q-.911-.339-1.651-.7a4.826,4.826,0,0,1-1.26-.87,3.52,3.52,0,0,1-.805-1.209,4.464,4.464,0,0,1-.287-1.69,3.653,3.653,0,0,1,1.43-3.04,6.223,6.223,0,0,1,3.925-1.118,12.607,12.607,0,0,1,2.39.221,11.147,11.147,0,0,1,1.819.482l-.675,3.013a14.243,14.243,0,0,0-1.469-.415,7.9,7.9,0,0,0-1.78-.183q-1.82,0-1.819,1.014a1.034,1.034,0,0,0,.078.416.891.891,0,0,0,.311.352,4.478,4.478,0,0,0,.637.365c.268.13.612.275,1.028.432a15.9,15.9,0,0,1,2.1.931,5.017,5.017,0,0,1,1.313.989,3.063,3.063,0,0,1,.676,1.18,5.273,5.273,0,0,1,.2,1.5,3.466,3.466,0,0,1-1.522,3.06,7.589,7.589,0,0,1-4.3,1.037,12.4,12.4,0,0,1-3.028-.311,12.167,12.167,0,0,1-1.676-.521l.65-3.144a12.823,12.823,0,0,0,2.026.611A9.9,9.9,0,0,0,555.113,406.475Z" transform="translate(-550.382 -395.221)"/></g><g transform="translate(11.861)"><path class="b" d="M565.117,390.936a8.5,8.5,0,0,1,2,.221,9.786,9.786,0,0,1,1.4.428l-.753,3.093a5.019,5.019,0,0,0-1.131-.35,6.038,6.038,0,0,0-1.131-.117,3.171,3.171,0,0,0-1.182.194,1.846,1.846,0,0,0-.754.533,2.068,2.068,0,0,0-.389.806,4.163,4.163,0,0,0-.117,1.013v.676h4.783v3.224h-4.783V411.1h-3.872v-14.4a5.316,5.316,0,0,1,5.926-5.77Z" transform="translate(-559.191 -390.936)"/></g><g transform="translate(21.191 6.496)"><path class="b" d="M579.973,395.76q-1.172,3.948-2.448,7.406t-2.789,6.706a15.567,15.567,0,0,1-1.093,1.989,6.157,6.157,0,0,1-1.2,1.352,4.263,4.263,0,0,1-1.472.779,6.652,6.652,0,0,1-1.912.246,7.779,7.779,0,0,1-1.679-.17,7.424,7.424,0,0,1-1.263-.377l.676-3.091a6.743,6.743,0,0,0,1.067.285,5.964,5.964,0,0,0,.988.078,2.164,2.164,0,0,0,1.6-.559,4.536,4.536,0,0,0,.949-1.547q-1.327-2.6-2.653-5.834a72.449,72.449,0,0,1-2.5-7.263h4.107q.261,1.012.614,2.195t.743,2.391q.392,1.208.8,2.352t.77,2.079q.339-.935.7-2.079t.718-2.352q.351-1.21.679-2.391t.587-2.195Z" transform="translate(-566.12 -395.76)"/></g></g></g></svg>