<svg xmlns="http://www.w3.org/2000/svg" width="11.888" height="12.874" viewBox="0 0 11.888 12.874"><defs><style>.a{fill:#2e2e3d;}</style></defs><path class="a" d="M216.946,410.874a7.966,7.966,0,0,1-5.809-2.5.5.5,0,0,1-.134-.4c.2-1.716,1.322-2.964,3.339-3.719a3.667,3.667,0,1,1,5.205,0c2.015.752,3.137,2,3.337,3.719a.5.5,0,0,1-.134.4c-.1.108-.208.214-.316.316A7.963,7.963,0,0,1,216.946,410.874Zm-4.915-3.013a7,7,0,0,0,9.716.106c.036-.035.073-.07.109-.106-.265-1.417-1.415-2.379-3.507-2.937a.5.5,0,0,1-.113-.921,2.669,2.669,0,0,0,1.042-3.627A2.669,2.669,0,1,0,215.65,404a.5.5,0,0,1-.112.921C213.446,405.485,212.3,406.447,212.031,407.861Z" transform="translate(-211 -398)"/></svg>